<?xml version="1.0" encoding="utf-8"?>
<!-- Generator: Adobe Illustrator 23.0.3, SVG Export Plug-In . SVG Version: 6.00 Build 0)  -->
<svg version="1.1" id="logo" xmlns="http://www.w3.org/2000/svg" xmlns:xlink="http://www.w3.org/1999/xlink" x="0px" y="0px"
	 viewBox="0 0 512 512" style="enable-background:new 0 0 512 512;" xml:space="preserve">
<style type="text/css">
	.st0{fill:#DFF7FF;}
	.st1{fill-rule:evenodd;clip-rule:evenodd;}
</style>
<rect id="background" class="st0" width="512" height="512"/>
<g id="content">
	<path id="outline" class="st1" d="M356.6,81.1l0.1,0.1c0.7,0.9,1.2,1.8,1.7,2.7c0,0.1,0.1,0.1,0.1,0.2l0,0c0.1,0.3,0.3,0.6,0.4,0.8
		c3.1,4.9,6,7.7,8.6,9.5c3,2,6,2.5,8.8,2.9c3.9,0.6,7.1,1.6,10,3.1c2.8,1.5,5.4,3.3,8.2,5.7c2.5-1.6,5.5-2.5,8.7-2.5
		c4.5,0,8.5,1.8,11.4,4.7c2.9,2.9,4.7,6.9,4.7,11.4c0,3.3-1,6.4-2.7,9c1.9,2.3,3.7,4.5,5.5,6.9c2,2.6,3.9,5.2,5.7,7.8
		c1.1-0.3,2.3-0.5,3.5-0.5c3.4,0,6.5,1.4,8.7,3.6c2.2,2.2,3.6,5.3,3.6,8.6s-1.3,6.4-3.5,8.6c7.2,13.7,12.9,28.4,16.8,43.8
		c3.9,15.6,6,31.9,6,48.7s-2.1,33.1-6,48.7c-3.9,15.4-9.6,30.1-16.8,43.8c2.2,2.2,3.5,5.2,3.5,8.6s-1.4,6.4-3.6,8.6
		s-5.3,3.6-8.7,3.6c-1.2,0-2.4-0.2-3.5-0.5c-1.8,2.6-3.7,5.2-5.7,7.8c-1.8,2.3-3.6,4.6-5.5,6.9c1.7,2.6,2.7,5.7,2.7,9
		c0,4.4-1.8,8.5-4.7,11.4c-2.9,2.9-7,4.7-11.4,4.7c-3.2,0-6.2-0.9-8.7-2.5c-2.8,2.3-5.3,4.2-8.2,5.7c-2.9,1.5-6.1,2.5-10,3.1
		c-2.9,0.4-5.8,0.9-8.8,2.9c-2.6,1.7-5.5,4.6-8.6,9.5c-0.1,0.3-0.3,0.6-0.4,0.8l0,0c0,0.1-0.1,0.1-0.1,0.2c-0.5,0.9-1.1,1.8-1.7,2.7
		l-0.1,0.1c-2.8,3.6-6.8,6.5-11.4,8.2c-5.4,2.1-11.7,2.6-17.4,0.8c-3.9-1.2-7.2-2.8-10.1-4.6c-2.8-1.8-5.3-3.7-7.5-5.6
		c-3.8-3.3-7.5-5.6-10.9-7c-5.2-2.2-10-2.4-14.2-1.1c-4.4,1.4-8.4,4.3-11.9,8.5c-3.7,4.3-6.9,9.8-9.5,16c-1,2.3-2.1,4.1-3.4,5.2
		c-1.2,1.1-2.6,1.7-4.1,1.8c-1.5,0-3-0.5-4.3-1.7c-1.2-1.1-2.3-2.7-3.3-5c-2.7-6.3-5.9-11.9-9.6-16.2c-3.5-4.1-7.5-7.1-11.9-8.4
		c-4.3-1.3-9-1.1-14.2,1c-3.5,1.4-7.1,3.8-11,7c-2.2,1.9-4.6,3.8-7.5,5.6c-2.9,1.8-6.2,3.4-10.1,4.6c-5.7,1.7-12,1.3-17.4-0.8
		c-4.5-1.7-8.6-4.6-11.4-8.2l-0.1-0.1c-0.7-0.9-1.2-1.8-1.7-2.7l0,0c0-0.1-0.1-0.1-0.1-0.2c-0.1-0.3-0.3-0.6-0.4-0.8
		c-3.1-4.9-6-7.7-8.6-9.5c-3-2-6-2.5-8.8-2.9c-3.9-0.6-7.1-1.6-10-3.1c-2.8-1.5-5.4-3.3-8.2-5.7c-2.5,1.6-5.5,2.5-8.7,2.5
		c-4.5,0-8.5-1.8-11.4-4.7c-2.9-2.9-4.7-6.9-4.7-11.4c0-3.3,1-6.4,2.7-9c-1.9-2.3-3.7-4.5-5.5-6.9c-2-2.6-3.9-5.2-5.7-7.8
		c-1.1,0.3-2.3,0.5-3.5,0.5c-3.4,0-6.5-1.4-8.7-3.6s-3.6-5.3-3.6-8.6c0-3.3,1.3-6.4,3.5-8.6c-7.2-13.7-12.9-28.4-16.8-43.8
		c-3.9-15.6-6-31.9-6-48.7s2.1-33.1,6-48.7c3.9-15.4,9.6-30.1,16.8-43.8c-2.2-2.2-3.5-5.2-3.5-8.6c0-3.4,1.4-6.4,3.6-8.6
		c2.2-2.2,5.3-3.6,8.7-3.6c1.2,0,2.4,0.2,3.5,0.5c1.8-2.6,3.7-5.2,5.7-7.8c1.8-2.3,3.6-4.6,5.5-6.9c-1.7-2.6-2.7-5.7-2.7-9
		c0-4.4,1.8-8.5,4.7-11.4c2.9-2.9,7-4.7,11.4-4.7c3.2,0,6.2,0.9,8.7,2.5c2.8-2.3,5.3-4.2,8.2-5.7s6.1-2.5,10-3.1
		c2.9-0.4,5.8-0.9,8.8-2.9c2.6-1.7,5.5-4.6,8.6-9.5c0.1-0.3,0.3-0.6,0.4-0.8l0.1-0.2c0.5-0.9,1.1-1.8,1.7-2.7l0.1-0.1
		c2.8-3.6,6.8-6.5,11.4-8.2c5.4-2.1,11.7-2.6,17.4-0.8c3.9,1.2,7.2,2.8,10.1,4.6c2.8,1.8,5.3,3.7,7.5,5.6c3.8,3.3,7.5,5.6,11,7
		c5.2,2.2,9.9,2.4,14.2,1c4.4-1.4,8.4-4.3,11.9-8.4c3.7-4.3,7-9.9,9.6-16.2c1-2.3,2.1-3.9,3.3-5c1.3-1.2,2.7-1.7,4.3-1.7
		c1.5,0,2.9,0.6,4.1,1.8c1.2,1.1,2.4,2.9,3.4,5.2c2.6,6.2,5.8,11.7,9.5,16c3.6,4.1,7.6,7.1,11.9,8.5c4.3,1.3,9.1,1.1,14.2-1.1
		c3.4-1.4,7.1-3.7,10.9-7c2.2-1.9,4.6-3.8,7.5-5.6c2.9-1.8,6.2-3.4,10.1-4.6c5.7-1.7,12-1.3,17.4,0.8
		C349.7,74.7,353.7,77.5,356.6,81.1L356.6,81.1z M363.8,100c-1.1-0.7-2.1-1.5-3.2-2.5c-0.3,1.6-0.7,3.2-1.3,4.7
		c-2.3,5.8-6.8,11.1-13.1,14.4l-0.2,0.1c-3.6,1.9-7.5,2.3-11,1.6c-3.6-0.8-6.8-3-8.6-6.3l-0.1-0.1l0,0c-1.8-3.3-1.8-7.1-0.5-10.5
		c1.3-3.3,3.8-6.2,7.3-8.1c0.1,0,0.2-0.1,0.2-0.1c1.6-0.8,3.6-0.2,4.5,1.4s0.3,3.6-1.3,4.5c-0.1,0-0.1,0.1-0.2,0.1
		c-2,1.1-3.5,2.8-4.2,4.6c-0.6,1.6-0.6,3.4,0.2,4.9l0,0c0.8,1.5,2.3,2.5,4.1,2.9c2,0.4,4.2,0.2,6.3-0.9l0.2-0.1
		c4.8-2.6,8.3-6.6,10-10.9c1.5-3.9,1.6-8,0-11.7c-0.6-0.9-1.2-1.9-1.8-3c-2-2.6-5-4.6-8.3-5.9c-4.1-1.6-8.8-2-13-0.7
		c-3.2,1-6,2.4-8.5,3.9c-2.5,1.6-4.7,3.3-6.6,5c-4.4,3.7-8.6,6.4-12.7,8.1c-6.8,2.8-13.1,3.1-18.9,1.3c-5.7-1.8-10.7-5.4-15.1-10.5
		c-4.1-4.8-7.7-10.9-10.6-17.8c-0.5-1.1-0.9-1.9-1.4-2.5c-0.4,0.5-0.8,1.2-1.2,2.2c-2.9,7-6.5,13.2-10.7,18
		c-4.4,5.1-9.4,8.7-15,10.5c-5.8,1.8-12.1,1.6-18.8-1.2c-4.1-1.7-8.4-4.4-12.8-8.2c-2-1.7-4.1-3.4-6.6-5c-2.5-1.5-5.3-2.9-8.5-3.9
		c-4.3-1.3-8.9-0.9-13,0.7c-3.3,1.3-6.3,3.3-8.3,5.9c-0.6,1.1-1.2,2.1-1.8,3c-1.6,3.7-1.5,7.9,0,11.7c1.7,4.3,5.2,8.3,10,10.9
		l0.2,0.1c2.1,1.1,4.4,1.4,6.3,0.9c1.8-0.4,3.3-1.4,4.1-2.9l0,0l0,0c0.8-1.5,0.8-3.3,0.2-4.9c-0.7-1.8-2.2-3.5-4.2-4.6l0,0l-0.1-0.1
		c-1.6-0.9-2.3-2.9-1.4-4.6s2.9-2.3,4.6-1.4l0.1,0.1l0,0c3.5,1.9,6.1,4.8,7.3,8.1c1.3,3.4,1.3,7.2-0.5,10.5l-0.1,0.1l0,0
		c-1.8,3.3-5,5.5-8.6,6.3c-3.5,0.8-7.4,0.3-11-1.6l-0.2-0.1c-6.3-3.4-10.8-8.6-13.1-14.4c-0.6-1.6-1-3.1-1.3-4.7
		c-1.1,1-2.2,1.8-3.2,2.5c-4.2,2.8-8,3.5-11.6,4c-3.1,0.4-5.6,1.2-7.8,2.4c-2.2,1.1-4.2,2.6-6.4,4.4c1.6,2.5,2.6,5.5,2.6,8.7
		c0,4.4-1.8,8.5-4.7,11.4c-2.9,2.9-7,4.7-11.4,4.7c-3.1,0-6-0.9-8.5-2.4c-1.7,2.1-3.4,4.1-5,6.3c-1.8,2.4-3.6,4.8-5.4,7.4
		c1.9,2.1,3,4.9,3,8c0,3.4-1.4,6.4-3.6,8.6c-2.2,2.2-5.3,3.6-8.7,3.6c-1,0-1.9-0.1-2.8-0.3c-7,13.2-12.4,27.3-16.1,42.1
		c-4,15.3-6,31-6,47.3s2,32,5.8,47.1c3.7,14.8,9.2,28.9,16.1,42.1c0.9-0.2,1.9-0.3,2.8-0.3c3.4,0,6.5,1.4,8.7,3.6s3.6,5.3,3.6,8.6
		c0,3.1-1.1,5.9-3,8c1.7,2.5,3.5,5,5.4,7.4c1.6,2.1,3.3,4.2,5,6.3c2.5-1.5,5.4-2.4,8.5-2.4c4.5,0,8.5,1.8,11.4,4.7
		c2.9,2.9,4.7,6.9,4.7,11.4c0,3.2-1,6.2-2.6,8.7c2.2,1.9,4.3,3.3,6.4,4.4c2.3,1.2,4.8,2,7.8,2.4c3.6,0.5,7.4,1.2,11.6,4
		c1.1,0.7,2.1,1.5,3.2,2.5c0.3-1.6,0.7-3.2,1.3-4.7c2.3-5.8,6.8-11.1,13.1-14.4l0.2-0.1c3.6-1.9,7.5-2.3,11-1.6
		c3.6,0.8,6.8,3,8.6,6.3l0,0l0.1,0.1c1.8,3.3,1.8,7.1,0.5,10.5c-1.3,3.3-3.8,6.2-7.3,8.1l0,0l-0.1,0.1c-1.6,0.9-3.7,0.3-4.6-1.4
		c-0.9-1.6-0.3-3.7,1.4-4.6l0.1-0.1l0,0c2-1.1,3.5-2.8,4.2-4.6c0.6-1.6,0.6-3.4-0.2-4.9l0,0l0,0c-0.8-1.5-2.3-2.5-4.1-2.9
		c-2-0.4-4.2-0.2-6.3,0.9l-0.2,0.1c-4.8,2.6-8.3,6.6-10,10.9c-1.5,3.9-1.6,8,0,11.7c0.6,0.9,1.2,1.9,1.8,3c2,2.6,5,4.6,8.3,5.9
		c4.1,1.6,8.8,2,13,0.7c3.2-1,6-2.4,8.5-3.9c2.5-1.6,4.7-3.3,6.6-5c4.4-3.8,8.7-6.5,12.8-8.2c6.7-2.8,13-3,18.8-1.2
		c5.7,1.8,10.7,5.4,15,10.5c4.2,4.9,7.8,11.1,10.7,18c0.4,1,0.8,1.7,1.2,2.2c0.4-0.5,0.9-1.4,1.4-2.5c2.9-6.9,6.5-13,10.6-17.8
		c4.4-5.1,9.4-8.8,15.1-10.5c5.8-1.8,12.1-1.5,18.9,1.3c4.1,1.7,8.3,4.4,12.7,8.1c2,1.7,4.1,3.4,6.6,5c2.5,1.5,5.3,2.9,8.5,3.9
		c4.3,1.3,8.9,0.9,13-0.7c3.3-1.3,6.3-3.3,8.3-5.9c0.6-1.1,1.2-2.1,1.8-3c1.6-3.7,1.5-7.9,0-11.7c-1.7-4.3-5.2-8.3-10-10.9l-0.2-0.1
		c-2.1-1.1-4.4-1.4-6.3-0.9c-1.8,0.4-3.3,1.4-4.1,2.9l0,0c-0.8,1.5-0.8,3.3-0.2,4.9c0.7,1.8,2.2,3.5,4.2,4.6c0.1,0,0.1,0.1,0.2,0.1
		c1.6,0.9,2.2,2.9,1.3,4.5c-0.9,1.6-2.8,2.2-4.5,1.4c-0.1,0-0.2-0.1-0.2-0.1c-3.5-1.9-6.1-4.8-7.3-8.1c-1.3-3.4-1.3-7.2,0.5-10.5
		l0,0l0.1-0.1c1.8-3.3,5-5.5,8.6-6.3c3.5-0.8,7.4-0.3,11,1.6l0.2,0.1c6.3,3.4,10.8,8.6,13.1,14.4c0.6,1.6,1,3.1,1.3,4.7
		c1.1-1,2.2-1.8,3.2-2.5c4.2-2.8,8-3.5,11.6-4c3.1-0.4,5.6-1.2,7.8-2.4c2.2-1.1,4.2-2.6,6.4-4.4c-1.6-2.5-2.6-5.5-2.6-8.7
		c0-4.4,1.8-8.5,4.7-11.4c2.9-2.9,7-4.7,11.4-4.7c3.1,0,6,0.9,8.5,2.4c1.7-2.1,3.4-4.1,5-6.3c1.8-2.4,3.6-4.8,5.4-7.4
		c-1.9-2.1-3-4.9-3-8c0-3.4,1.4-6.4,3.6-8.6s5.3-3.6,8.7-3.6c1,0,1.9,0.1,2.8,0.3c7-13.2,12.4-27.3,16.1-42.1
		c3.8-15,5.8-30.8,5.8-47.1s-2-32-5.8-47.1c-3.7-14.8-9.2-28.9-16.1-42.1c-0.9,0.2-1.9,0.3-2.8,0.3c-3.4,0-6.5-1.4-8.7-3.6
		c-2.2-2.2-3.6-5.3-3.6-8.6c0-3.1,1.1-5.9,3-8c-1.7-2.5-3.5-5-5.4-7.4c-1.6-2.1-3.3-4.2-5-6.3c-2.5,1.5-5.4,2.4-8.5,2.4
		c-4.5,0-8.5-1.8-11.4-4.7c-2.9-2.9-4.7-6.9-4.7-11.4c0-3.2,1-6.2,2.6-8.7c-2.2-1.9-4.3-3.3-6.4-4.4c-2.3-1.2-4.8-2-7.8-2.4
		C371.8,103.5,368,102.8,363.8,100L363.8,100z M290.8,50.6c0,1.9-1.5,3.4-3.4,3.4s-3.4-1.5-3.4-3.4c0-2.3-0.8-4.4-2.1-5.9
		c-1.2-1.3-2.8-2.2-4.5-2.2s-3.3,0.8-4.5,2.2c-1.3,1.5-2.1,3.6-2.1,5.9c0,5.5,1.9,10.5,5,14c1.4,1.6,3.1,3,4.9,3.9
		c2.6,0.9,5,1.4,7.4,1.6c3.7-0.2,7.6-1.9,10.7-4.6c3.3-2.8,5.8-6.7,6.6-11c0-0.2,0,0,0.1-0.3s0.2-0.8,0.3-1.7
		c0.9-6.2,1.2-25.5-32-31.9c0.1,0.5,0.1,1,0.1,1.5c0,4.5-2.1,8.6-5.4,11.5c-3.2,2.8-7.6,4.6-12.4,4.6c-4.8,0-9.2-1.7-12.4-4.6
		c-3.3-2.9-5.4-7-5.4-11.5c0-0.5,0-1,0.1-1.5c-33.6,6.3-33.3,25.7-32.3,31.9c0.1,1,0.3,1.5,0.3,1.7c0.1,0.3,0,0.2,0.1,0.3
		c0.8,4.3,3.3,8.1,6.6,11c3.1,2.7,6.9,4.4,10.7,4.6c2.4-0.2,4.8-0.7,7.4-1.6c1.8-0.9,3.5-2.3,4.9-3.9c3.1-3.6,5-8.5,5-14
		c0-2.3-0.8-4.4-2.1-5.9c-1.2-1.3-2.8-2.2-4.5-2.2s-3.3,0.8-4.5,2.2c-1.3,1.5-2.1,3.6-2.1,5.9c0,1.9-1.5,3.4-3.4,3.4
		s-3.4-1.5-3.4-3.4c0-4,1.4-7.6,3.8-10.3c2.4-2.8,5.8-4.5,9.6-4.5s7.2,1.7,9.6,4.5c2.3,2.7,3.8,6.3,3.8,10.3
		c0,7.2-2.5,13.7-6.7,18.4c-4.2,4.9-10.1,7.9-16.7,7.9c-0.3,0-0.6,0-0.8,0c-0.5,0-1,0.1-1.5,0.1c-3.6,0.1-7-0.3-10.3-1.1
		c-7.2-1.7-13-5.4-18.6-8.9c-9.4-5.9-18.1-11.3-31-3.4c-5.4,3.4-8.6,8.2-11.6,12.8c-6,9.2-11.5,17.7-30.9,16.6
		c-1.9-0.1-3.3-1.7-3.2-3.6c0.1-1.9,1.7-3.3,3.6-3.2c15.5,0.9,20-6,24.9-13.5c3.4-5.2,7-10.7,13.7-14.8c16.4-10.2,26.8-3.7,38.1,3.4
		c2.3,1.4,4.7,2.9,7.1,4.3c-2.1-2.9-3.6-6.2-4.2-9.8c-0.1-0.3,0-0.1,0-0.1c-0.1-0.4-0.3-1.3-0.4-2.2c-1.2-8.1-1.8-33.7,41.8-40.3
		c0.1,0,0.1,0,0.2,0c0.7-0.9,1.5-1.8,2.4-2.6C247,7.7,251.4,6,256.2,6s9.2,1.7,12.4,4.6c0.9,0.8,1.7,1.7,2.4,2.7
		c43.4,6.6,42.8,32.1,41.6,40.2c-0.1,0.9-0.3,1.7-0.4,2.2c0,0.1,0-0.1,0,0.1c-0.7,3.5-2.2,6.9-4.2,9.8c2.5-1.3,4.8-2.8,7.1-4.3
		c11.3-7.1,21.7-13.6,38.1-3.4c6.7,4.2,10.3,9.6,13.7,14.8c4.9,7.5,9.4,14.4,24.9,13.5c1.9-0.1,3.5,1.3,3.6,3.2
		c0.1,1.9-1.3,3.5-3.2,3.6c-19.4,1.1-24.9-7.3-30.9-16.6c-3-4.6-6.1-9.4-11.6-12.8c-12.8-8-21.5-2.5-31,3.4
		c-5.6,3.5-11.5,7.2-18.6,8.9c-3.2,0.8-6.7,1.2-10.3,1.1c-0.5,0-1-0.1-1.5-0.1c-0.3,0-0.6,0-0.8,0c-6.5,0-12.4-3-16.7-7.9
		c-4.1-4.8-6.7-11.3-6.7-18.4c0-4,1.4-7.6,3.8-10.3c2.4-2.8,5.8-4.5,9.6-4.5s7.2,1.7,9.6,4.5C289.4,42.9,290.9,46.6,290.8,50.6
		L290.8,50.6z M264.1,15.6c-2-1.8-4.8-2.9-7.9-2.9s-5.9,1.1-7.9,2.9c-1.9,1.7-3.1,3.9-3.1,6.4s1.2,4.8,3.1,6.4
		c2,1.8,4.8,2.9,7.9,2.9c3.1,0,5.9-1.1,7.9-2.9c1.9-1.7,3.1-3.9,3.1-6.4S266,17.3,264.1,15.6z M409.8,113c-1.7-1.7-4-2.7-6.6-2.7
		s-4.9,1-6.6,2.7s-2.7,4-2.7,6.6s1,4.9,2.7,6.6s4,2.7,6.6,2.7s4.9-1,6.6-2.7s2.7-4,2.7-6.6C412.5,117.1,411.5,114.7,409.8,113z
		 M435.1,151.1c-1-1-2.4-1.6-3.9-1.6s-2.9,0.6-3.9,1.6s-1.6,2.3-1.6,3.8s0.6,2.9,1.6,3.8c1,1,2.4,1.6,3.9,1.6s2.9-0.6,3.9-1.6
		s1.6-2.3,1.6-3.8S436.1,152.1,435.1,151.1z M108.8,110.3c-2.6,0-4.9,1-6.6,2.7s-2.7,4-2.7,6.6s1,4.9,2.7,6.6s4,2.7,6.6,2.7
		s4.9-1,6.6-2.7s2.7-4,2.7-6.6s-1-4.9-2.7-6.6C113.7,111.4,111.4,110.3,108.8,110.3z M80.7,149.5c-1.5,0-2.9,0.6-3.9,1.6
		s-1.6,2.3-1.6,3.8s0.6,2.9,1.6,3.8c1,1,2.4,1.6,3.9,1.6s2.9-0.6,3.9-1.6s1.6-2.3,1.6-3.8s-0.6-2.9-1.6-3.8
		C83.6,150.1,82.2,149.5,80.7,149.5z M284,461.4c0-1.9,1.5-3.4,3.4-3.4s3.4,1.5,3.4,3.4c0,4-1.4,7.6-3.8,10.3
		c-2.4,2.8-5.8,4.5-9.6,4.5s-7.2-1.7-9.6-4.5c-2.3-2.7-3.8-6.3-3.8-10.3c0-7.2,2.5-13.7,6.7-18.4c4.2-4.9,10.1-7.9,16.7-7.9
		c0.3,0,0.6,0,0.8,0c0.5,0,1-0.1,1.5-0.1c3.6-0.1,7,0.3,10.3,1.1c7.2,1.7,13,5.4,18.6,8.9c9.4,5.9,18.1,11.3,31,3.4
		c5.4-3.4,8.6-8.2,11.6-12.8c6-9.2,11.5-17.7,30.9-16.6c1.9,0.1,3.3,1.7,3.2,3.6c-0.1,1.9-1.7,3.3-3.6,3.2c-15.5-0.9-20,6-24.9,13.5
		c-3.4,5.2-7,10.7-13.7,14.8c-16.4,10.2-26.8,3.7-38.1-3.4c-2.3-1.4-4.7-2.9-7.1-4.3c2.1,2.9,3.6,6.2,4.2,9.8c0.1,0.2,0,0.1,0,0.1
		c0.1,0.4,0.3,1.3,0.4,2.2c1.2,8.1,1.8,33.7-41.6,40.2c-0.7,1-1.5,1.9-2.4,2.7c-3.2,2.8-7.6,4.6-12.4,4.6s-9.2-1.7-12.4-4.6
		c-0.9-0.8-1.7-1.7-2.4-2.6c-0.1,0-0.1,0-0.2,0c-43.6-6.5-43-32.2-41.8-40.3c0.1-0.9,0.3-1.7,0.4-2.2c0-0.1,0,0.1,0-0.1
		c0.7-3.5,2.2-6.9,4.2-9.8c-2.5,1.3-4.8,2.8-7.1,4.3c-11.3,7.1-21.7,13.6-38.1,3.4c-6.7-4.2-10.3-9.6-13.7-14.8
		c-4.9-7.5-9.4-14.4-24.9-13.5c-1.9,0.1-3.5-1.3-3.6-3.2c-0.1-1.9,1.3-3.5,3.2-3.6c19.4-1.1,24.9,7.3,30.9,16.6
		c3,4.6,6.1,9.4,11.6,12.8c12.8,8,21.5,2.5,31-3.4c5.6-3.5,11.5-7.2,18.6-8.9c3.2-0.8,6.7-1.2,10.3-1.1c0.5,0,1,0.1,1.5,0.1
		c0.3,0,0.6,0,0.8,0c6.5,0,12.4,3,16.7,7.9c4.1,4.8,6.7,11.3,6.7,18.4c0,4-1.4,7.6-3.8,10.3c-2.4,2.8-5.8,4.5-9.6,4.5
		s-7.2-1.7-9.6-4.5c-2.3-2.7-3.8-6.3-3.8-10.3c0-1.9,1.5-3.4,3.4-3.4s3.4,1.5,3.4,3.4c0,2.3,0.8,4.4,2.1,5.9
		c1.2,1.3,2.8,2.2,4.5,2.2s3.3-0.8,4.5-2.2c1.3-1.5,2.1-3.6,2.1-5.9c0-5.5-1.9-10.5-5-14c-1.4-1.6-3.1-3-4.9-3.9
		c-2.6-0.9-5-1.4-7.4-1.6c-3.7,0.2-7.6,1.9-10.7,4.6c-3.3,2.8-5.8,6.7-6.6,11c0,0.2,0,0-0.1,0.3s-0.2,0.8-0.3,1.7
		c-0.9,6.3-1.2,25.6,32.3,31.9c-0.1-0.5-0.1-1-0.1-1.5c0-4.5,2.1-8.6,5.4-11.5c3.2-2.8,7.6-4.6,12.4-4.6c4.8,0,9.2,1.7,12.4,4.6
		c3.3,2.9,5.4,7,5.4,11.5c0,0.5,0,1-0.1,1.5c33.2-6.4,32.9-25.6,32-31.9c-0.1-1-0.3-1.5-0.3-1.7c-0.1-0.3,0-0.2-0.1-0.3
		c-0.8-4.3-3.3-8.1-6.6-11c-3.1-2.7-6.9-4.4-10.7-4.6c-2.4,0.2-4.8,0.7-7.4,1.6c-1.8,0.9-3.5,2.3-4.9,3.9c-3.1,3.6-5,8.5-5,14
		c0,2.3,0.8,4.4,2.1,5.9c1.2,1.3,2.8,2.2,4.5,2.2s3.3-0.8,4.5-2.2C283.2,465.9,284,463.8,284,461.4L284,461.4z M256.2,499.2
		c3.1,0,5.9-1.1,7.9-2.9c1.9-1.7,3.1-3.9,3.1-6.4s-1.2-4.8-3.1-6.4c-2-1.8-4.8-2.9-7.9-2.9s-5.9,1.1-7.9,2.9
		c-1.9,1.7-3.1,3.9-3.1,6.4s1.2,4.8,3.1,6.4C250.3,498.1,253,499.2,256.2,499.2z M403.2,401.7c2.6,0,4.9-1,6.6-2.7s2.7-4,2.7-6.6
		s-1-4.9-2.7-6.6s-4-2.7-6.6-2.7s-4.9,1-6.6,2.7s-2.7,4-2.7,6.6s1,4.9,2.7,6.6C398.3,400.6,400.6,401.7,403.2,401.7z M431.3,362.5
		c1.5,0,2.9-0.6,3.9-1.6s1.6-2.3,1.6-3.8s-0.6-2.9-1.6-3.8c-1-1-2.4-1.6-3.9-1.6s-2.9,0.6-3.9,1.6s-1.6,2.3-1.6,3.8s0.6,2.9,1.6,3.8
		C428.4,361.9,429.8,362.5,431.3,362.5z M102.2,399c1.7,1.7,4,2.7,6.6,2.7s4.9-1,6.6-2.7s2.7-4,2.7-6.6s-1-4.9-2.7-6.6
		s-4-2.7-6.6-2.7s-4.9,1-6.6,2.7s-2.7,4-2.7,6.6C99.5,394.9,100.5,397.3,102.2,399z M76.9,360.9c1,1,2.4,1.6,3.9,1.6
		s2.9-0.6,3.9-1.6s1.6-2.3,1.6-3.8s-0.6-2.9-1.6-3.8c-1-1-2.4-1.6-3.9-1.6s-2.9,0.6-3.9,1.6s-1.6,2.3-1.6,3.8S75.9,359.9,76.9,360.9
		z"/>
	<path id="text" d="M249.8,198.9L249.8,198.9v10.4c0,1.2-0.4,2.1-1.2,2.9c-0.8,0.8-1.8,1.2-2.9,1.2c-1.2,0-2.2-0.4-3-1.2
		s-1.2-1.8-1.2-2.9l0,0v-10.4c0-1.2,0.4-2.1,1.2-3s1.8-1.2,3-1.2c1.1,0,2.1,0.4,2.9,1.2S249.8,197.8,249.8,198.9z M220.6,267.4V255
		h-16.7c-1.1,0-2.1-0.4-2.9-1.2c-0.8-0.8-1.2-1.8-1.2-3c0-1.1,0.4-2.1,1.2-2.9c0.8-0.8,1.8-1.2,2.9-1.2l0,0h16.7v-12.5h-16.7
		c-1.1,0-2.1-0.4-2.9-1.2c-0.8-0.8-1.2-1.8-1.2-2.9c0-1.2,0.4-2.1,1.2-3c0.8-0.8,1.8-1.2,2.9-1.2l0,0h20.8h10.4
		c4.1,0,7.5,1.4,10.3,4.2s4.2,6.3,4.2,10.3l0,0v10.4v10.4c0,4-1.4,7.5-4.2,10.3s-6.3,4.2-10.3,4.2l0,0h-6.2v47.8
		c0,1.1-0.4,2.1-1.2,2.9s-1.8,1.2-2.9,1.2c-1.2,0-2.1-0.4-2.9-1.2c-0.8-0.8-1.2-1.8-1.2-2.9l0,0v-47.8H204c-1.1,0-2.1-0.4-2.9-1.2
		c-0.8-0.8-1.2-1.8-1.2-2.9c0-1.2,0.4-2.1,1.2-2.9s1.8-1.2,2.9-1.2l0,0h16.6V267.4z M228.9,234.2v12.5h12.5v-6.2
		c0-1.7-0.6-3.2-1.8-4.4s-2.7-1.8-4.4-1.8l0,0h-6.3V234.2z M241.4,261.2V255h-12.5v12.5h6.2c1.7,0,3.2-0.6,4.4-1.8
		C240.8,264.4,241.4,262.9,241.4,261.2L241.4,261.2z M220.6,209.3v-16.6h-6.2c-1.7,0-3.2,0.6-4.4,1.8s-1.8,2.7-1.8,4.4l0,0v10.4
		c0,1.2-0.4,2.1-1.2,2.9c-0.8,0.8-1.8,1.2-3,1.2c-1.1,0-2.1-0.4-2.9-1.2c-0.8-0.8-1.2-1.8-1.2-2.9l0,0v-10.4c0-4,1.4-7.5,4.2-10.3
		s6.3-4.2,10.3-4.2l0,0h10.4h20.8c1.1,0,2.1,0.4,2.9,1.2c0.8,0.8,1.2,1.8,1.2,2.9c0,1.2-0.4,2.1-1.2,3s-1.8,1.2-2.9,1.2l0,0h-16.7
		v16.6c0,1.2-0.4,2.1-1.2,2.9c-0.8,0.8-1.8,1.2-2.9,1.2c-1.2,0-2.1-0.4-2.9-1.2C221,211.4,220.6,210.5,220.6,209.3L220.6,209.3z
		 M179,306.8h-16.6h-16.6v16.6c0,1.1-0.4,2.1-1.2,2.9s-1.8,1.2-3,1.2c-1.1,0-2.1-0.4-2.9-1.2c-0.8-0.8-1.2-1.8-1.2-2.9l0,0v-20.8
		v-31.1v-10.4c0-1.2,0.4-2.1,1.2-3c0.8-0.8,1.8-1.2,2.9-1.2c1.2,0,2.2,0.4,3,1.2c0.8,0.8,1.2,1.8,1.2,3l0,0v6.2h16.6H179v-6.2
		c0-1.2,0.4-2.1,1.2-3c0.8-0.8,1.8-1.2,3-1.2c1.1,0,2.1,0.4,2.9,1.2c0.8,0.8,1.2,1.8,1.2,3l0,0v10.4v31.1v20.8
		c0,1.1-0.4,2.1-1.2,2.9s-1.8,1.2-2.9,1.2c-1.2,0-2.2-0.4-3-1.2c-0.8-0.8-1.2-1.8-1.2-2.9l0,0V306.8z M145.7,298.6h12.5v-22.8h-12.5
		V298.6z M179,275.7h-12.5v22.8H179V275.7z M158.2,246.7v-12.5h-16.7c-1.1,0-2.1-0.4-2.9-1.2c-0.8-0.8-1.2-1.8-1.2-2.9
		c0-1.2,0.4-2.1,1.2-3s1.8-1.2,2.9-1.2l0,0h16.7v-12.5H152c-4.1,0-7.5-1.4-10.3-4.2s-4.2-6.2-4.2-10.3l0,0v-10.4
		c0-1.1,0.4-2.1,1.2-2.9c0.8-0.8,1.8-1.2,2.9-1.2c1.2,0,2.2,0.4,3,1.2s1.2,1.8,1.2,2.9l0,0v10.4c0,1.7,0.6,3.2,1.8,4.4
		s2.7,1.8,4.4,1.8l0,0h6.2v-16.6c0-1.1,0.4-2.1,1.2-2.9c0.8-0.8,1.8-1.2,2.9-1.2s2.1,0.4,2.9,1.2c0.8,0.8,1.2,1.8,1.2,2.9l0,0v16.6
		h6.2c1.7,0,3.2-0.6,4.4-1.8s1.8-2.7,1.8-4.4l0,0v-10.4c0-1.1,0.4-2.1,1.2-2.9c0.8-0.8,1.8-1.2,3-1.2c1.1,0,2.1,0.4,2.9,1.2
		c0.8,0.8,1.2,1.8,1.2,2.9l0,0v10.4c0,4-1.4,7.5-4.2,10.3s-6.3,4.2-10.3,4.2l0,0h-6.2v12.5h16.7c1.1,0,2.1,0.4,2.9,1.2
		s1.2,1.8,1.2,3c0,1.1-0.4,2.1-1.2,2.9c-0.8,0.8-1.8,1.2-2.9,1.2l0,0h-16.7v12.5h16.7c1.1,0,2.1,0.4,2.9,1.2s1.2,1.8,1.2,2.9
		c0,1.2-0.4,2.1-1.2,3c-0.8,0.8-1.8,1.2-2.9,1.2l0,0h-20.8h-20.8c-1.1,0-2.1-0.4-2.9-1.2c-0.8-0.8-1.2-1.8-1.2-3
		c0-1.1,0.4-2.1,1.2-2.9s1.8-1.2,2.9-1.2l0,0H158.2z M353.8,250.8v27.3c5.9,1,10.9,3.9,14.8,8.5c4,4.6,6,10,6,16.1l0,0
		c0,6.9-2.4,12.8-7.3,17.6c-4.9,4.8-10.8,7.3-17.7,7.3s-12.8-2.4-17.7-7.3c-4.9-4.9-7.3-10.7-7.3-17.6l0,0c0-6.1,2-11.5,6-16.1
		s8.9-7.4,14.8-8.5l0,0v-27.3c0-1.1,0.4-2.1,1.2-2.9c0.8-0.8,1.8-1.2,2.9-1.2s2.1,0.4,2.9,1.2C353.4,248.7,353.8,249.7,353.8,250.8
		L353.8,250.8z M361.5,290.9c-3.2-3.2-7.2-4.8-11.8-4.8s-8.6,1.6-11.8,4.8c-3.2,3.2-4.8,7.2-4.8,11.8s1.6,8.5,4.8,11.8
		c3.2,3.2,7.2,4.8,11.8,4.8s8.6-1.6,11.8-4.8c3.2-3.2,4.8-7.2,4.8-11.8S364.7,294.2,361.5,290.9z M370.5,244.6L370.5,244.6
		c-4.1,0-7.5-1.4-10.3-4.2s-4.2-6.2-4.2-10.3l0,0v-41.5c0-1.1,0.4-2.1,1.2-2.9c0.8-0.8,1.8-1.2,2.9-1.2c1.2,0,2.2,0.4,3,1.2
		s1.2,1.8,1.2,2.9l0,0v41.5c0,1.7,0.6,3.2,1.8,4.4c1.2,1.2,2.7,1.8,4.4,1.8l0,0c1.1,0,2.1,0.4,2.9,1.2s1.2,1.8,1.2,2.9
		c0,1.2-0.4,2.1-1.2,2.9C372.6,244.2,371.7,244.6,370.5,244.6z M328.9,236.3L328.9,236.3c1.7,0,3.2-0.6,4.4-1.8
		c1.2-1.2,1.8-2.7,1.8-4.4l0,0v-41.5c0-1.1,0.4-2.1,1.2-2.9c0.8-0.8,1.8-1.2,3-1.2c1.1,0,2.1,0.4,2.9,1.2s1.2,1.8,1.2,2.9l0,0v41.5
		c0,4-1.4,7.5-4.2,10.3c-2.8,2.8-6.3,4.2-10.3,4.2l0,0c-1.1,0-2.1-0.4-2.9-1.2s-1.2-1.8-1.2-2.9c0-1.2,0.4-2.1,1.2-2.9
		C326.7,236.7,327.7,236.3,328.9,236.3z M303.9,247.2v-13.5c-3-0.9-5.5-2.7-7.5-5.3s-2.9-5.5-2.9-8.7l0,0v-10.4
		c0-1.2,0.4-2.1,1.2-2.9c0.8-0.8,1.8-1.2,2.9-1.2c1.2,0,2.2,0.4,3,1.2s1.2,1.8,1.2,2.9l0,0v10.4c0,1.8,0.7,3.4,2.1,4.7l0,0v-35.8
		c0-1.1,0.4-2.1,1.2-2.9c0.8-0.8,1.8-1.2,3-1.2c1.1,0,2.1,0.4,2.9,1.2s1.2,1.8,1.2,2.9l0,0v35.8c1.4-1.3,2.1-2.8,2.1-4.7l0,0v-10.4
		c0-1.2,0.4-2.1,1.2-2.9c0.8-0.8,1.8-1.2,2.9-1.2c1.2,0,2.1,0.4,2.9,1.2s1.2,1.8,1.2,2.9l0,0v10.4c0,3.2-1,6.2-2.9,8.7
		c-2,2.6-4.5,4.3-7.5,5.3l0,0v13.5c3,0.9,5.5,2.7,7.5,5.3s2.9,5.5,2.9,8.7l0,0v51.9c0,1.2-0.4,2.1-1.2,3c-0.8,0.8-1.8,1.2-2.9,1.2
		c-1.2,0-2.1-0.4-2.9-1.2c-0.8-0.8-1.2-1.8-1.2-3l0,0v-51.9c0-1.8-0.7-3.4-2.1-4.7l0,0v66.9c0,1.1-0.4,2.1-1.2,2.9
		c-0.8,0.8-1.8,1.2-2.9,1.2c-1.2,0-2.2-0.4-3-1.2c-0.8-0.8-1.2-1.8-1.2-2.9l0,0v-66.9c-1.4,1.3-2.1,2.8-2.1,4.7l0,0v51.9
		c0,1.2-0.4,2.1-1.2,3c-0.8,0.8-1.8,1.2-3,1.2c-1.1,0-2.1-0.4-2.9-1.2c-0.8-0.8-1.2-1.8-1.2-3l0,0v-51.9c0-3.2,1-6.2,2.9-8.7
		C298.4,249.9,300.9,248.1,303.9,247.2L303.9,247.2z M266.4,267.4L266.4,267.4h20.8c1.2,0,2.1,0.4,2.9,1.2c0.8,0.8,1.2,1.8,1.2,2.9
		c0,1.2-0.4,2.1-1.2,2.9c-0.8,0.8-1.8,1.2-2.9,1.2l0,0h-20.8c-1.1,0-2.1-0.4-2.9-1.2c-0.8-0.8-1.2-1.8-1.2-2.9
		c0-1.2,0.4-2.1,1.2-2.9C264.3,267.8,265.3,267.4,266.4,267.4z M266.4,236.3L266.4,236.3h20.8c1.2,0,2.1,0.4,2.9,1.2
		s1.2,1.8,1.2,2.9c0,1.2-0.4,2.1-1.2,2.9c-0.8,0.8-1.8,1.2-2.9,1.2l0,0h-20.8c-1.1,0-2.1-0.4-2.9-1.2s-1.2-1.8-1.2-2.9
		c0-1.2,0.4-2.1,1.2-2.9C264.3,236.7,265.3,236.3,266.4,236.3z"/>
</g>
</svg>
