<?xml version="1.0" encoding="utf-8"?>
<!-- Generator: Adobe Illustrator 23.0.3, SVG Export Plug-In . SVG Version: 6.00 Build 0)  -->
<svg version="1.1" id="logo" xmlns="http://www.w3.org/2000/svg" xmlns:xlink="http://www.w3.org/1999/xlink" x="0px" y="0px"
	 viewBox="0 0 512 512" style="enable-background:new 0 0 512 512;" xml:space="preserve">
<g id="content">
	<path id="outline" d="M484.3,174.7c0-31.2-16.8-60.2-43.7-75.8c-11.4-6.6-20.9-16.1-27.5-27.5c-15.6-26.9-44.7-43.7-75.8-43.7
		c-13.1,0-26.1-3.5-37.5-10.1c-27-15.6-60.5-15.6-87.5,0c-11.4,6.6-24.4,10.1-37.5,10.1c-31.2,0-60.3,16.8-75.8,43.8
		C92.4,82.9,82.9,92.4,71.5,99c-27,15.5-43.8,44.6-43.8,75.7c0,13.2-3.5,26.1-10.1,37.5c-15.6,27-15.6,60.5,0,87.5
		c6.6,11.4,10.1,24.4,10.1,37.5c0,31.2,16.8,60.2,43.7,75.8c11.4,6.6,20.9,16.1,27.5,27.5c15.6,27,44.6,43.7,75.8,43.7
		c13.2,0,26.1,3.5,37.5,10.1c13.5,7.8,28.6,11.7,43.7,11.7s30.3-3.9,43.7-11.7c11.4-6.6,24.4-10.1,37.5-10.1
		c31.2,0,60.2-16.8,75.8-43.7c6.6-11.4,16.1-20.9,27.5-27.5c27-15.6,43.7-44.6,43.7-75.8c0-13.1,3.5-26.1,10.1-37.5
		c15.6-27,15.6-60.5,0-87.5C487.7,200.9,484.3,187.9,484.3,174.7z M483.5,293.5c-7.7,13.3-11.7,28.4-11.7,43.7
		c0,26.7-14.4,51.6-37.5,65c-13.3,7.7-24.4,18.8-32,32c-13.4,23.1-38.3,37.5-65,37.5c-15.3,0-30.5,4-43.7,11.7
		c-23.1,13.4-51.9,13.4-75.1,0c-13.3-7.7-28.4-11.7-43.7-11.7c-26.7,0-51.6-14.4-65-37.5c-7.7-13.3-18.7-24.4-32-32
		c-23.1-13.4-37.5-38.3-37.5-65c0-15.3-4-30.5-11.7-43.7c-13.4-23.1-13.4-51.9,0-75.1c7.7-13.3,11.7-28.4,11.7-43.7
		c0-26.7,14.4-51.6,37.5-65c13.3-7.7,24.4-18.7,32-32c13.3-23.1,38.2-37.5,64.9-37.5c15.3,0,30.5-4,43.7-11.7
		c11.6-6.7,24.5-10,37.5-10c13,0,26,3.3,37.5,10c13.3,7.7,28.4,11.7,43.7,11.7c26.7,0,51.6,14.4,65,37.5c7.7,13.3,18.7,24.4,32,32
		c23.1,13.4,37.5,38.3,37.5,65c0,15.3,4,30.4,11.7,43.7C496.9,241.6,496.9,270.4,483.5,293.5z"/>
	<path id="slogan" d="M137.3,211.7c0.1-0.2,0.3-0.5,0.5-0.8s0.4-0.7,0.5-1.1l0,0l0.5-2.1c0.1-1,0.2-2.3,0.2-4.1l0,0
		c0-0.6,0.1-1,0.3-1.3c0.2-0.2,0.6-0.4,1.3-0.5l0,0c0.3-0.1,1.2-0.3,2.6-0.5c1.4-0.2,2.5-0.6,3.3-1.3l0,0c0.1-0.2,0.5-0.4,1.2-0.4
		l0,0h0.6c1.8,0,3.2-0.7,4.4-2.1l0,0c0.5-0.2,0.8-0.4,1.1-0.4l0,0l2-0.5c1.4-0.6,2.2-1.4,2.3-2.5l0,0c0.2-1.1,0.1-1.8-0.4-2.3l0,0
		c-0.3-0.2-0.5-0.5-0.5-0.9l0,0c-0.1-0.7-0.3-1.2-0.5-1.5s-0.6-0.5-1.2-0.6l0,0c-0.5,0-1.1-0.1-1.8-0.2c-0.7-0.1-1.3-0.1-1.8,0l0,0
		l-1.1-0.2h-0.9c-0.3,0-0.7,0.1-1,0.2s-0.6,0.2-1,0.2l0,0c-1.9-0.3-3-0.5-3.4-0.4l0,0h-1.1l-3.9-0.2c-0.1,0-0.3,0-0.5-0.1
		c-0.2,0-0.3-0.1-0.3-0.3l0,0c-0.1-1.1-0.2-2.6-0.2-4.6l0,0c0-0.4,0.1-0.6,0.4-0.7c0.2-0.1,0.4-0.2,0.5-0.2l0,0c1.2,0,2-0.1,2.5-0.2
		l0,0c2.5-0.8,4.5-1.2,6.2-1.2l0,0c0.9,0,1.7,0.1,2.3,0.2l0,0h1c1-0.2,1.7-0.5,2.1-0.7l0,0l1.3-0.9c0.5-0.3,1.1-0.5,1.8-0.8
		s1.5-0.6,2.5-0.8l0,0l2.8-0.9c0.5-0.2,1-0.4,1.5-0.6s1.1-0.4,1.7-0.6l0,0c0.2-0.1,0.4-0.3,0.6-0.6c0.2-0.3,0.4-0.5,0.6-0.6l0,0
		c-0.1,0-0.5-0.3-1.1-0.9l0,0c-0.7-0.5-0.8-1.1-0.4-1.9l0,0c0.2-0.4,0.2-0.7,0-1.1l0,0c0-0.1-0.1-0.2-0.4-0.3c0.3,0,0.1,0,0,0l0,0
		c-0.7-0.1-1.6-0.2-2.6-0.2c-1.1,0-2-0.1-2.7-0.2l0,0c-2.2-0.3-4.6-0.5-7.1-0.5l0,0c-2.2,0-3.9,0.1-5,0.2l0,0
		c-3.3,0.2-5.7,0.4-7.3,0.4l0,0c-0.4,0.1-0.6,0.2-0.8,0.1c-0.2-0.1-0.3-0.3-0.5-0.8l0,0v-4.1c0-2.1-1.1-3.9-3.4-5.3l0,0
		c-0.4-0.1-0.8-0.3-1.2-0.5s-0.9-0.4-1.5-0.7l0,0c-0.7-0.2-1.3-0.4-1.8-0.4l0,0c-0.7,0-1.5,0.1-2.3,0.4c-0.8,0.3-1.6,0.5-2.2,0.6
		l0,0c-0.6,0.1-1,0.6-1.4,1.4l0,0c-0.1,0.2-0.1,0.5,0,0.8s0.2,0.5,0.3,0.6l0,0c1.1,0.3,1.6,1,1.6,1.9l0,0c0,2.7,0.1,4.7,0.2,6l0,0
		c0,0.6-0.2,0.9-0.7,0.9l0,0c-0.7,0-1.7,0.1-3,0.2c-1.3,0.1-2.4,0.2-3.2,0.4l0,0c-2.2,0.2-4.4,0.6-6.5,1.1l0,0l-4.2,0.7l-1.8,0.2
		c-0.3,0.1-0.8,0.2-1.4,0.2l0,0c-2,0-3.4-0.7-4.3-2.1l0,0c-0.4-0.7-1-1.1-1.8-1.1l0,0c-0.6,0-1.2,0.3-1.8,0.9l0,0
		c-0.2,0.2-0.4,0.4-0.5,0.4l0,0c-0.4,0.1-0.6,0.3-0.7,0.7c-0.1,0.3,0,0.7,0.2,1l0,0c0,0.2,0.1,0.6,0.3,1.1c0.2,0.5,0.2,1-0.1,1.5
		l0,0c-0.1,0.2-0.1,0.4-0.1,0.6s0.1,0.3,0.1,0.4l0,0c0.8,2,1.3,3.8,1.3,5.3l0,0c0,0.6,0.1,1,0.2,1.3l0,0c0.1,0.2,0.4,0.8,0.8,1.7
		s1,1.5,1.9,1.9l0,0c0.8,0.7,1.8,0.9,2.8,0.5l0,0c0.9-0.5,2.2-1,3.9-1.5l0,0c0.9-0.3,2.1-0.7,3.4-1.1c1.3-0.4,2.2-0.7,2.8-1l0,0
		c0.4-0.1,1.1-0.3,2.1-0.5s2-0.4,2.9-0.4l0,0c1.6,0,2.9,0.1,3.7,0.2l0,0l3.7,0.2c0.7,0.2,1,0.6,1,1.1l0,0v3.2v0.4
		c0,0.7-0.4,1.1-1.2,1.3l0,0c-2.7,0.2-5.3,0.6-7.8,1l0,0l-4.3,0.5c-2.2,0.4-4.2,0.8-5.9,1.2c-1.7,0.4-3.1,0.7-4.3,1l0,0l-0.7,0.2
		c-0.6,0-1.1-0.3-1.6-1l0,0c-0.5-0.6-0.9-1-1.4-1.3l0,0c-0.5-0.2-1.3-0.4-2.5-0.4l0,0c-0.8,0-1.5,0.1-2,0.2l0,0
		c-1.1,0.4-1.5,1-1.4,2l0,0c0.1,0.3,0.3,1,0.5,1.9s0.7,1.5,1.4,1.9l0,0c-0.2,1.2-0.4,2.1-0.4,2.6l0,0c0,0.3,0.1,0.9,0.4,1.6l0,0
		c0.1,0.1,0.3,0.8,0.5,1.9l0,0c0.3,0.4,0.5,0.9,0.6,1.5c0.2,0.6,0.3,1.2,0.5,1.5l0,0c0.1,0.1,0.2,0.1,0.4,0.1c0.2,0,0.3,0,0.5,0.1
		l0,0l1.6,0.5l0.7,0.4c0.7-0.2,1.8-0.5,3.3-0.9c1.5-0.3,2.8-0.8,3.8-1.3l0,0l5.2-1.2c1.7-0.5,3-0.8,3.9-0.9l0,0c0.5,0,1.7,0,3.6,0
		s3.8-0.2,5.6-0.5l0,0c0.5,0,0.8,0.3,0.9,0.9l0,0c0,1.1,0.1,2.3,0.4,3.7l0,0l0.5,5.2c-3.8-0.1-8,0.3-12.8,1.2l0,0l-7.4,1
		c-6.3,1.7-9.7,2.5-10.3,2.6l0,0c-0.2,0.1-0.6,0.1-1.1,0.1c-0.5-0.1-0.8-0.1-1.1-0.1l0,0c0-0.3,0.1-0.6,0.2-0.7l0,0
		c-1.8-0.7-2.8-1.1-3.2-1.3l0,0c-0.6-0.1-1.3-0.2-2.3-0.2l0,0c-0.5,0-0.7,0.4-0.7,1.3l0,0v3.9c0,0.2-0.1,0.4-0.4,0.4l0,0
		c-0.5,0.9-0.5,1.9-0.2,2.9l0,0c0.1,0.5,0.1,0.9,0.1,1.2c0,0.4-0.1,0.7-0.1,1.1l0,0c0,1.1,0.5,1.8,1.6,2.3l0,0
		c1.4,0.5,2.4,0.7,3,0.7l0,0c1,0,2-0.3,3.2-0.9l0,0c1-0.2,1.7-0.5,2.2-0.7l0,0c0.7-0.5,1.7-0.7,3-0.8s2.2-0.2,2.8-0.4l0,0
		c1.5-0.6,2.6-1,3.4-1.1l0,0c3.9-0.5,6.6-0.8,8.2-0.9l0,0c3.4-0.3,6.6-0.5,9.5-0.5l0,0l14.4-0.4c2.9,0,7.2-0.1,12.6-0.4l0,0
		c0.7,0,1.3-0.2,1.8-0.7s0.7-1,0.7-1.8l0,0v-0.5c1.4,0.2,2.4,0.3,2.8,0.2l0,0l6.6-0.5l0.7-0.5c0-0.2,0-0.6,0.1-1.2
		c0.1-0.5-0.1-0.9-0.5-1.2l0,0c-0.5-0.4-0.7-0.7-0.6-1c0-0.3,0.2-0.7,0.6-1.2l0,0l0.5-1.1c-0.5-0.1-1-0.2-1.4-0.4
		c-0.5-0.1-1-0.2-1.5-0.4l0,0c-1.9-0.5-4.2-0.7-6.9-0.7l0,0h-15.6h-3.1L137.3,211.7L137.3,211.7z M204.7,223.5
		c0,0.7,0.1,1.5,0.3,2.5l0,0c0,1.1,0.1,2.9,0.4,5.5l0,0c0,1.7,0.1,3.2,0.2,4.5c0.1,1.3,0.2,2.4,0.4,3.4l0,0c0,0.7-0.4,1.1-1.1,1.1
		l0,0c-4.1,0.7-9.3,1.7-15.6,3l0,0l-9.6,1.6h-1.3c-1.3,0-2.2-0.4-2.8-1.1l0,0c-0.5-0.3-1.1-0.5-1.8-0.5l0,0c-0.5,0.1-0.8,0.5-1,1
		s-0.2,1-0.1,1.4l0,0c0.5,1.9,0.9,3.4,1.4,4.6l0,0l0.2,0.5c1.3,1.3,2.9,1.9,4.8,1.9l0,0c0.8,0,1.5-0.1,1.9-0.2l0,0
		c1.5-0.5,4.6-1.2,9.2-2.3l0,0c5.9-1.2,10.4-2.2,13.3-2.9l0,0l0.7,0.5c0,0.9-0.1,1.6-0.2,2l0,0c0,0.2-0.4,2.7-1.1,7.3l0,0l-0.5,4.3
		c-0.1,0.8-0.4,2.6-0.8,5.2c-0.4,2.7-1,5.1-1.7,7.4l0,0c-0.2,0.6-0.5,1.5-0.9,2.7c-0.3,1.2-0.8,2.3-1.4,3.1l0,0
		c-1.4,1.9-3.3,3.7-5.7,5.4c-2.4,1.7-3.8,2.8-4.5,3.3l0,0c-0.9,0.6-2,1.2-3.1,1.8c-1.1,0.6-2.3,1.4-3.5,2.2l0,0l-11,8.2
		c-0.2,0.2-1.5,1.2-3.9,2.8l0,0l-0.9,1.2l0.2,0.2c0.1,0,0.3-0.1,0.5-0.3c0.2-0.2,0.5-0.3,1-0.5l0,0c0.2-0.1,0.4-0.1,0.5,0l0,0v0.5
		l-0.2,0.5l5.3,0.7c-0.4,0.7-0.1,1.1,0.7,1.1l0,0c0.6,0,1-0.1,1.2-0.2l0,0c0.4-0.2,0.7-0.3,1-0.2s0.5,0.3,0.6,0.5l0,0
		c0.3,0.6,0.8,0.9,1.3,0.9l0,0c0.8,0.1,1.9,0.4,3.4,0.9l0,0l2.5,1.3c0.7,0.3,1.1,0.6,1.1,0.9l0,0c0,0.3,0.2,0.6,0.6,0.8
		c0.4,0.2,0.7,0.3,0.8,0.5l0,0c0.1,0,0.4,0.1,0.9,0.3c0.5,0.2,0.9,0.2,1.4-0.1l0,0l2-0.7c2.7-0.2,4.8-0.5,6.2-0.9l0,0
		c1.7-0.6,3.4-1.5,5.2-2.6l0,0c0.9-0.6,2.2-1.7,3.7-3.2l0,0c0.4-0.3,0.9-0.8,1.7-1.3s1.3-1.1,1.7-1.7l0,0c2.1-2.4,3.9-4.5,5.3-6.5
		l0,0c0.9-1.4,1.7-2.8,2.1-4.1l0,0c1.2-2.7,1.7-6.6,1.4-11.7l0,0c-0.1-1.4-0.4-4-0.9-7.6l0,0v-1.2c0.1-1.4,0.2-3.7,0.2-6.9l0,0
		c0-1.4,0.1-2.6,0.2-3.4l0,0c0-0.2,0-0.7,0.1-1.3c0.1-0.7,0-1.2-0.1-1.7l0,0c0-3.4,0.5-6.4,1.4-8.9l0,0c0.4-0.7,0.7-1.2,1.1-1.5l0,0
		c0.2-0.1,0.6-0.2,1.1-0.2l0,0c2.7,0,4.9-0.8,6.5-2.5l0,0c0.1,0,0.2-0.1,0.3-0.2c0.1-0.1,0.2-0.2,0.3-0.2l0,0
		c0.9-0.2,2.5-0.5,4.6-0.7l0,0c0.7-0.1,1.1-0.5,1.3-1.2l0,0c0-0.4-0.1-0.7-0.2-1.1c-0.1-0.4-0.2-0.7-0.2-0.9l0,0
		c0-0.5,0.2-0.9,0.7-1.3l0,0c-0.2-0.1-0.7-0.3-1.3-0.7l0,0c0.2-0.1,0.5-0.2,0.6-0.4c0.2-0.1,0.3-0.2,0.5-0.3l0,0
		c0.6,0,1.1-0.4,1.6-1.1l0,0l1.2-2.1c0.6-1.1,1.1-2.1,1.6-3s0.9-1.8,1.4-2.7l0,0c0.8-1.7,1.5-4.2,1.9-7.6l0,0l0.9-1.3
		c0.1-0.1,0.3-0.6,0.5-1.4s0.2-1.4,0.1-1.8l0,0v-0.2c-0.5-0.1-0.6-0.6-0.4-1.4l0,0l0.2-4.6c0-2.4-0.4-6.2-1.1-11.4l0,0
		c0-0.2-0.2-0.9-0.5-2l0,0c-0.3-0.6-0.8-1.1-1.5-1.5c-0.6-0.4-1.3-0.8-2.1-1.2l0,0c-1.1-0.2-2.4-0.5-4.1-0.7l0,0
		c-6-1.5-11.1-2.1-15.1-1.6l0,0l-4.6,0.2l1.7-3c2.5-5.3,4-9.3,4.6-11.9l0,0c0.5-1.4,0.7-2.5,0.7-3.2l0,0c0-0.9-0.1-1.7-0.4-2.1l0,0
		c-0.1-0.8-0.6-1.6-1.5-2.3c-0.8-0.7-1.4-1.2-1.7-1.6l0,0l-0.5-0.2l0.9,0.9l-0.4,0.5l-1.3-0.9c-0.9-0.9-2-1.4-3.2-1.2l0,0
		c-2.4,0.5-5.1,0.9-8.2,1.2l0,0c-0.3,0.1-0.8,0.2-1.2,0.2l0,0c-0.4,0-0.6-0.1-0.8-0.4c-0.2-0.2-0.4-0.6-0.6-1l0,0l-0.1-0.5
		c-0.7-0.7-1.5-1.1-2.3-1.1l0,0c-0.6,0-1.1,0.1-1.5,0.4l0,0c-0.1,0.1-0.4,0.2-0.9,0.2l0,0c-0.1,0.1-0.9,0.3-2.3,0.5l0,0
		c-0.1,0-0.2,0.1-0.4,0.3c-0.1,0.2-0.2,0.3-0.2,0.5l0,0c0.1,0.2,0.2,0.6,0.2,1l0,0c0,0.8-0.4,1.8-1.3,2.9l0,0
		c-0.2,0.5-0.7,1-1.3,1.7c-0.6,0.6-1,1.2-1.4,1.7l0,0l-5.3,8l-0.7,1.5c0.2-0.1,0.5-0.3,0.7-0.5s0.4-0.2,0.5-0.1l0,0
		c0.9,0,1.9-0.4,2.7-1.2c0.9-0.8,1.5-1.2,1.9-1.5l0,0l3.9-2.2c0.5-0.2,1-0.5,1.7-0.9c0.6-0.4,1.4-0.8,2.2-1.2l0,0
		c0.7-0.5,1.3-0.9,1.8-1.4s0.9-0.9,1.2-1.1l0,0c0.2-0.2,0.5-0.5,0.9-0.8c0.3-0.3,0.7-0.5,1-0.6s0.7,0,1.2,0.2l0,0
		c0.7,0.1,1.2,0,1.4-0.4l0,0c0.5-0.7,1.4-1.4,2.7-2.1l0,0l0.5-0.4c0.4-0.5,0.8-0.7,1.2-0.5c0.4,0.1,0.7,0.2,0.8,0.2l0,0
		c1.1,0.5,1.6,1.1,1.6,1.8l0,0c0,0.2,0,0.6-0.1,1c0,0.4,0,0.7,0.1,1l0,0c0.1,0.4,0.2,0.8,0.2,1.4l0,0c0,1.1-0.3,2.2-0.9,3.4l0,0
		c-0.6,2.2-1.8,5.4-3.7,9.4l0,0c-0.5,0.9-1,2-1.7,3.1c-0.6,1.1-1.1,2-1.5,2.7l0,0c-0.6,0.6-1.6,1-2.9,1.2l0,0l-9.2,2
		c-0.9,0.1-1.9,0.3-2.8,0.5c-1,0.2-1.9,0.3-2.7,0.4l0,0h-0.7c-0.6,0-1.1-0.2-1.4-0.5l0,0c-1.2-0.7-2.1-1.2-2.6-1.4l0,0
		c-0.5,0-0.8,0.1-0.9,0.2l0,0c-0.8,1.9-1.3,3.5-1.3,4.8l0,0c0,0.8,0.1,1.8,0.2,2.8c0.1,1,0.2,1.9,0.4,2.5l0,0
		c0.1,0.7,0.5,1.3,1.3,1.8c0.7,0.5,1.4,0.6,2.1,0.4l0,0c1.3-0.5,2.7-1.1,4.1-2l0,0c3.3-1.5,6.4-2.5,9.2-2.8l0,0
		c3.4-0.4,6.8-1,10.3-2l0,0c1.4-0.6,3-1,4.6-1.3l0,0c0.9-0.1,2.4-0.2,4.5-0.2l0,0c0.2,0,0.6-0.1,1.1-0.2s0.9-0.1,1.2,0l0,0
		c0.2,0,0.6-0.1,1.1-0.2s0.9,0,1.3,0.5l0,0v0.4h-2.8v0.4c0.1-0.1,0.3-0.2,0.7-0.2l0,0c0.3,0,0.8,0.1,1.4,0.2
		c0.6,0.1,1.1-0.1,1.4-0.5l0,0l1.1,0.5c1.5,0.3,3.8,0.6,6.7,0.9l0,0l0.4-0.2l-1.4-0.3c0.2-0.1,0.8-0.4,1.6-0.7l0,0l0.5,0.2
		c0.1,0.4,0.4,1,0.8,1.8c0.4,0.8,0.5,1.6,0.4,2.3l0,0v1.3c0.1,0.7,0.2,1.8,0.2,3.4l0,0c0,1.1-0.1,2.9-0.4,5.5l0,0h-1.6
		c-2,0-3.5,0.1-4.5,0.2l0,0l-11,0.5c-0.4,0-0.7-0.2-0.9-0.5l0,0l-0.5-4.1c-0.8-3.9-2.5-6.6-5.1-8.2l0,0l0.2-0.7
		c-0.9,0.2-2.2,0.6-3.6,1c-1.5,0.4-2.7,0.8-3.6,1.2l0,0c0,0,0.1,0.1,0.4,0.4l0,0c-0.6,0.2-0.9,0.5-1.1,0.8c-0.1,0.3,0,0.6,0.4,0.8
		l0,0c0.5,0.2,0.9,0.6,1.2,1.2c0.3,0.6,0.6,1.1,0.8,1.7l0,0c0.2,0.9,0.5,2.3,0.7,4s0.5,3.2,0.9,4.4l0,0c-0.7,0.3-1.8,0.6-3.2,0.9
		l0,0l-9.9,2.5l-7.6,1.6c-0.4,0.1-0.8,0.2-1.4,0.2l0,0c-1.1,0-1.9-0.4-2.7-1.1l0,0c-0.6-0.3-1-0.2-1.2,0.4l0,0l-0.2,0.5
		c-0.6,0.2-0.9,0.8-0.9,1.6l0,0l0.2,1.5c0.1,0.7,0.8,1.9,1.9,3.5l0,0c0.6,0.8,1.3,1.3,2.1,1.3l0,0c0.7,0,1.5-0.2,2.2-0.5
		c0.8-0.3,1.4-0.5,1.9-0.6l0,0c0.9-0.4,2.1-0.8,3.4-1.2c1.3-0.5,2.4-0.8,3.4-1.1l0,0C195.6,225.8,199.7,224.6,204.7,223.5
		L204.7,223.5z M217.8,200.9v-0.4c-0.7,0.1-1.7,0.2-3,0.4c-1.3,0.1-2.4,0.3-3.4,0.7l0,0v0.2C212.9,201.7,215,201.4,217.8,200.9
		L217.8,200.9z M230.8,222.9l-0.9,10.6c-0.1,0.8-0.7,1.7-1.6,2.7c-0.9,0.9-1.9,1.5-2.8,1.6l0,0c-3.1,0.2-5.4,0.4-6.9,0.7l0,0
		c-0.8,0-1.2-0.3-1.2-0.9l0,0l-0.7-5.3c-0.2-2.8-0.5-4.9-0.7-6.2l0,0l-0.4-3c-0.4-0.8,0-1.3,1.1-1.3l0,0c0.7,0,1.5,0.1,2.2,0.2
		c0.8,0.1,1.5,0.2,2.2,0.2l0,0c1.8,0,3.3-0.1,4.7-0.2s2.5-0.2,3.5-0.4l0,0h0.9c0.4,0,0.6,0.1,0.6,0.3
		C230.7,222.1,230.8,222.4,230.8,222.9L230.8,222.9z M94.7,298l2.3-0.2c0.8,0,1.3,0.4,1.4,1.1l0,0c0,0.1,0.1,0.2,0.3,0.3
		c0.2,0,0.3,0.1,0.5,0.1l0,0h4.6c0.1,0,0.2,0,0.3-0.1c0.1-0.1,0.2,0,0.3,0.1l0,0c0.5,0.4,1.1,0.3,1.8-0.2l0,0
		c1.4-0.9,2.6-1.5,3.4-1.6l0,0c1.1-0.4,2.2-1.4,3.4-3l0,0c0.9-2.4,1.5-4.2,1.6-5.5l0,0c0-3.3,0.1-5.9,0.2-7.6l0,0
		c0-1.8,0.1-4.5,0.3-8l0,0c0.5,0.1,0.9,0.2,1.4,0.3c0.4,0,0.8,0.2,1.1,0.5l0,0c1,0.9,2.4,1.4,4.3,1.4l0,0c3-0.2,5.2-0.7,6.6-1.4l0,0
		c0.6-0.4,2-1,4.3-1.8l0,0c0.2-0.1,0.7-0.3,1.3-0.5s1.1-0.5,1.4-0.7l0,0c0.2-0.2,1.9-2.2,5-6l0,0h0.3c0,0.6,0.1,1.4,0.2,2.4
		c0.1,1,0.2,1.9,0.4,2.6l0,0c0,7.4,0.1,12.9,0.2,16.5l0,0c0,0.6-0.2,1-0.5,1.4s-0.8,0.5-1.4,0.5l0,0h-1.1c-0.2,0.6-0.5,1-0.7,1.1
		l0,0c-0.2,0.2-0.3,0.4-0.3,0.6c0.1,0.2,0.2,0.3,0.5,0.5l0,0c0.7,0.2,1.3,0.5,1.9,0.8c0.6,0.3,1.1,0.6,1.6,0.8l0,0l0.2,0.4l1.4,2.8
		l0.7,0.9c0-0.3,0-0.6,0.1-0.8c0.1-0.2,0.1-0.3,0.1-0.4l0,0c0.1-0.1,0.3-0.5,0.7-1.3l0,0c0.5,0.2,0.7,0.5,0.9,0.7l0,0
		c0.2,0.1,0.4,0.2,0.6,0.4c0.2,0.1,0.3,0.2,0.5,0.4l0,0c0.7,0.5,1.2,0.4,1.6-0.2l0,0c0.3-0.5,0.4-0.9,0.4-1.3l0,0
		c0.5-1.3,0.9-3.4,1.4-6.2l0,0c0.1-0.2,0.3-1.4,0.5-3.4l0,0c0.9-5.2,1.3-9.1,1.1-11.5l0,0c-0.1-2.1,0.1-5.3,0.5-9.5l0,0v-5
		c0.2-3.1,0.4-5.4,0.4-6.9l0,0c0.2-1.4,0.4-3.5,0.4-6.4l0,0v-1.6c0-2.1-0.3-3.7-0.9-4.6l0,0c-0.1-0.3-0.3-0.8-0.7-1.5
		c-0.4-0.8-0.8-1.4-1.3-1.9l0,0c-1.4-1.1-2.8-1.6-4.3-1.8l0,0c-1.1-0.1-2.1-0.2-3.2-0.3c-1.1-0.1-2.1-0.2-3.2-0.3l0,0
		c-0.7-0.2-1.8-0.4-3.2-0.4l0,0c-1.8,0-3.4,0.2-5,0.5l0,0c-1.4,0.2-5.6,1.2-12.4,3l0,0c-2.6,0.7-6.1,2-10.5,4.1l0,0
		c-1.4,0.6-2.5,1.4-3.2,2.5l0,0c-0.3,0.5-0.5,0.8-0.4,1.1c0.1,0.2,0.4,0.5,0.9,0.9l0,0c0.1,0,0.3,0.1,0.7,0.2c0.4,0.1,0.7,0,0.9-0.2
		l0,0h0.2c0.7,0,1.5,0.1,2.3,0.3s1.5,0.2,2.1,0.1l0,0c3.1-0.3,6-0.9,8.7-1.6l0,0c3.2-0.7,6.1-1.7,8.7-2.8l0,0c1-0.5,2.1-0.8,3.4-0.9
		c1.3-0.1,2.1-0.2,2.5-0.2l0,0c0.6,0,1.3,0.1,2.2,0.3s1.7,0.3,2.4,0.5l0,0c0.7,0.1,1.1,0.5,1.1,1.2l0,0c0.2,2.4,0.4,4.1,0.4,5.3l0,0
		c0,2.6-0.1,4.6-0.2,5.9l0,0l-0.2,6c0,1.9-0.8,3.3-2.3,4.1l0,0l-1,0.5c-4.3,2.5-8.6,3.9-13,4.3l0,0l-5.3,0.7h-3.5l0.7-6.7
		c0.1-0.7,0.3-1.2,0.6-1.5s0.8-0.5,1.5-0.8l0,0c5.3-0.7,9.1-1.4,11.4-1.9l0,0c0.8-0.2,2.4-0.9,4.6-1.9l0,0c0.8-0.7,1.8-1.3,2.7-1.7
		c1-0.4,1.6-0.7,1.9-0.8l0,0c0.1,0,0.4-0.1,0.9-0.4l0,0c-0.5-1.1-1.3-1.6-2.5-1.6l0,0c-2.3,0-4-0.1-5.2-0.2l0,0
		c-0.4,0-0.8,0-1.2-0.1s-0.9,0-1.5,0.1l0,0c-0.9,0.1-2.3,0.3-4.2,0.6c-1.8,0.3-3.4,0.6-4.7,1l0,0l-3.4,0.5c-0.1-0.1-0.2-0.3-0.2-0.5
		l0,0c0-1.5-0.6-2.8-1.9-3.7l0,0c-0.6-0.3-1.2-0.6-1.9-1c-0.6-0.4-1.3-0.7-1.9-1l0,0c-0.3-0.1-0.9-0.2-1.7-0.2l0,0
		c-0.1,0-0.3,0.1-0.5,0.3s-0.3,0.3-0.5,0.4l0,0c0,0.4-0.1,0.5-0.4,0.5l0,0c-0.7,0.1-1.2,0.6-1.4,1.4l0,0c0.8,0.6,1.4,1.3,1.6,2l0,0
		c0.7,0.7,1.1,1.6,1.1,2.5c0,1,0,1.6,0,1.9l0,0l-1.8,15.8c-0.7,5.5-1.3,9.8-1.8,13.2l0,0c-0.3,2.8-1.5,4.9-3.4,6.2l0,0
		c-0.7,0.6-1.4,1.1-2,1.4c-0.6,0.4-1.1,0.7-1.6,1.1l0,0c-0.5,0.2-1,0.5-1.6,0.8s-1.2,0.7-1.9,1.1l0,0c-0.3,0-0.5,0.1-0.5,0.4l0,0
		c-0.1,0.3-0.3,0.7-0.4,1.1C94.9,297.2,94.8,297.6,94.7,298L94.7,298z M327.5,157.8c0.1,0.1,0.3,0.2,0.5,0.2l0,0l0.3,0.4
		c-0.1,0.7-0.5,1-1.2,1l0,0c-0.4,0-1-0.2-2-0.7l0,0c-0.5-0.1-0.7,0-0.7,0.4l0,0l-0.7,3.4c0,0.2-0.1,0.4-0.2,0.5s-0.2,0.2-0.2,0.4
		l0,0c-0.1,0.7-0.2,1.6-0.4,2.6c-0.1,1.1-0.2,2.3-0.2,3.7l0,0c0,5.8,0.1,10.1,0.2,13l0,0l0.5,8.9v6.2c-0.8,0-1.8,0.1-3,0.4l0,0
		c-1.4,0.3-2.6,0.5-3.5,0.7l0,0c-2.7,0.5-4.6,0.7-5.7,0.9l0,0c-1.1,0.1-2.1,0.1-3.2,0l0,0l-2.5-0.7h-0.7c0,0.3,0.1,0.6,0.2,0.9l0,0
		c0,0.1,0,0.3,0.1,0.5s0,0.3-0.1,0.5l0,0c-0.6,0.8-1.2,1.2-1.9,1.2l0,0l-1.8-0.2c-0.7,0-1.1,0.3-1.1,0.9l0,0l-0.7,0.2
		c0,0.4,0.1,0.5,0.2,0.5l0,0c0.1,0.1,0.3,0.3,0.5,0.5s0.3,0.4,0.2,0.5l0,0c0,0.1-0.3,0.5-0.9,1.1l0,0c0.6,0.6,0.9,1.4,0.9,2.5l0,0
		l-0.2,1.4c0,0.7,0.2,1.3,0.7,1.7l0,0l0.4,0.7c0,0.5,0.2,0.9,0.5,1.4s0.6,0.8,0.7,0.9l0,0c0.7,1.1,1.7,1.6,2.8,1.6l0,0
		c0.6,0,1.2-0.1,1.9-0.2c0.7-0.1,1.2-0.5,1.5-1.1l0,0l0.5-0.2c0.8-0.2,1.8-0.5,2.9-0.7s2.1-0.5,2.9-0.7l0,0c0.9-0.3,2.1-0.5,3.4-0.5
		s2.3,0,3,0l0,0c0.7-0.2,1.1,0,1.1,0.7l0,0v0.7v9.8c0,1.3-0.1,3.1-0.4,5.5l0,0c0,0.2-0.2,1.6-0.5,4.1l0,0c0,0.2-0.1,0.7-0.4,1.5l0,0
		c0,0.9-0.1,2.4-0.4,4.3l0,0c0,0.6-0.1,1.6-0.4,3l0,0l-0.2,1.6l0.2,1.9c-0.2,3.5-0.5,6.2-0.7,8l0,0l-0.2,2.6l-0.9,5.2l-0.2,2.5
		l-0.4,2l-0.4,2.6v0.4v2.2c-0.2,1.2-0.4,2.1-0.4,2.8l0,0c-0.1,1-0.2,2.5-0.2,4.5l0,0v4.6l-0.2,3c0,0.2,0,0.4-0.1,0.6
		c0,0.2,0,0.4,0.1,0.6l0,0c0.2,0.3,0.4,0.8,0.4,1.3s0,0.8,0,1.1l0,0v1.4c0,0.6,0.2,1.4,0.5,2.3s0.5,1.7,0.6,2.1l0,0
		c0.5,0.9,1.1,1.4,1.9,1.4l0,0c1.2-0.2,2.1-0.7,2.7-1.3l0,0c0.4-0.6,0.8-0.9,1.3-1l0,0c1.1-0.6,2.1-1.5,3-2.7l0,0
		c1.2-1.4,1.9-2.5,2.1-3.4l0,0c0-0.5,0.1-1.1,0.4-1.8l0,0l0.7-2.3l0.4-3c0-0.2,0.1-0.7,0.4-1.4l0,0c0.1-0.4,0.2-0.9,0.2-1.6l0,0
		l0.4-4.3c0.1-1.3,0.4-2.8,0.9-4.6l0,0c0-0.6,0-1.4,0.1-2.4c0-1,0.2-1.9,0.5-2.6l0,0c0.1-0.4,0.1-0.7,0.1-0.9c0-0.2-0.1-0.5-0.1-0.7
		l0,0v-4.1c0-1.4,0.1-2.4,0.2-3l0,0c0.2-1.2,0.3-2,0.2-2.5l0,0c-0.1-0.1-0.1-0.3-0.1-0.6s0.1-0.5,0.1-0.6l0,0
		c0.3-0.7,0.4-1.2,0.4-1.6l0,0v-3c0.1-0.9,0.1-1.9,0.1-2.9s0-2,0.1-2.9l0,0c0.1-0.7,0.2-1.8,0.2-3.4l0,0l0.2-0.7l1.1-3.5
		c0.1-0.5,0.2-1.2,0.2-2.1l0,0v-1.5c0-0.2-0.1-0.4-0.2-0.6c-0.1-0.2-0.2-0.4-0.2-0.6l0,0c-0.1-0.5-0.2-1.1-0.2-1.9l0,0
		c0-0.8,0.1-1.4,0.2-1.8l0,0c0.1-0.6,0.2-1.4,0.4-2.5c0.2-1.1,0.2-2-0.1-2.9l0,0v-0.2l0.2-2.7c0.1-0.2,0.2-0.4,0.1-0.6
		c-0.1-0.2,0-0.3,0.1-0.4l0,0c0.3-0.5,0.5-1.1,0.5-1.7c0-0.6,0-1.2,0-1.5l0,0c0-1.2,0.6-2.1,1.8-2.8l0,0c0.6-0.4,1.3-0.6,2.3-0.8
		s1.6-0.3,2-0.5l0,0c0.2-0.1,0.5-0.2,0.9-0.4c0.3-0.1,0.6-0.3,0.9-0.5l0,0c1.5-1.1,2.9-1.8,4.1-2.3l0,0c1.5-0.6,2.7-2.2,3.4-4.8l0,0
		c0-0.2-0.1-0.6-0.4-1.1l0,0c-0.7-1.2-1.7-2.1-3-2.6l0,0c-2.2-0.8-3.8-1.3-4.6-1.4l0,0c-1-0.1-2.2-0.1-3.6,0
		c-1.5,0.1-2.7,0.2-3.6,0.2l0,0c-0.5,0-0.8-0.1-1.1-0.4l0,0c-0.8-0.7-1.1-1.7-0.9-3l0,0c0-0.9-0.1-1.7-0.2-2.1l0,0v-1.3
		c0-0.5,0.1-1,0.2-1.6s0.1-1,0-1.3l0,0c-0.1-0.2-0.2-0.6-0.2-1l0,0c0-0.4,0.1-0.8,0.2-1.2s0.2-0.8,0.2-1.2l0,0
		c0-0.4,0.1-0.9,0.2-1.6c0.1-0.7,0-1.4-0.2-2l0,0v-0.5c0.2-0.6,0.4-1.3,0.5-2.2s0.3-1.6,0.7-2.1l0,0c0.1-0.1,0.2-0.3,0.2-0.5l0,0
		l0.2-3.5c0-1.5-0.2-3-0.7-4.3l0,0c-0.1,0-0.2-0.1-0.2-0.4l0,0c0-1.5-0.8-3.3-2.3-5.3l0,0c-0.8-1.2-2-2.1-3.6-2.6l0,0
		c-0.1,0-0.4-0.2-0.9-0.5C328.6,157.2,328.1,157.3,327.5,157.8L327.5,157.8z M270.7,197.7v-0.2l-3.9,0.4c-0.5,0-0.9,0.2-1.4,0.6
		s-0.7,0.8-0.7,1.2l0,0c0,0.9-0.2,1.9-0.5,2.8l0,0c-0.5,0.8-0.7,2.1-0.7,3.9l0,0c0,0.8,0.1,1.5,0.4,1.9c0.2,0.4,0.7,0.7,1.4,1l0,0
		l0.7,0.4c0.9,0.6,1.5,0.9,1.6,0.9l0,0c1.9,0.5,3.8,1.3,5.5,2.5l0,0c0.6,0.2,1.1,0.3,1.4,0.2l0,0c0.4-0.2,0.8-0.4,1.4-0.4l0,0
		c0.5,0,1.2,0.2,2.1,0.7l0,0c0.5,0.2,1,0.4,1.6,0.4l0,0c1.2,0,2-0.3,2.6-0.9l0,0c0.7-0.7,1.2-1.5,1.6-2.5l0,0
		c0.6-1.3,1.1-2.3,1.7-2.9c0.5-0.7,1.2-1.2,2.2-1.5l0,0c1.2-0.3,2-1.1,2.5-2.1l0,0l0.2-0.4c1.2-0.9,1.8-2,1.8-3.2l0,0
		c0-0.8-0.3-1.3-0.9-1.4l0,0c-0.9-0.2-1.7-0.4-2.1-0.4l0,0c-2.3,0-3.9-0.1-5-0.2l0,0c-0.8,0-2.1-0.1-3.6-0.3c-1.6-0.2-3-0.3-4.2-0.3
		l0,0C275.2,197.8,273.3,197.7,270.7,197.7L270.7,197.7z M374.3,202.7l-1.6,0.7c-0.2,0.1-0.6,0.2-1,0.2s-0.7,0.1-1,0.2l0,0
		c-1.2,0.5-2,1-2.6,1.5l0,0c-0.1,0.1-1,0.8-2.5,1.9l0,0c-0.5,0.4-1.1,0.7-1.8,1.1c-0.7,0.3-1.2,0.8-1.4,1.3l0,0l-0.2,0.2l-4.6,3.4
		c-1.6,1.7-2.5,2.5-2.5,2.5l0,0l-0.2,0.4l-2.1,3.5c-0.1,0.1-0.2,0.3-0.2,0.5l0,0c0.3,1.2,0.4,2.5,0.2,4.1l0,0
		c-0.1,0.1-0.1,0.2-0.1,0.4c0.1,0.1,0.1,0.2,0.1,0.4l0,0c0.5,0.4,1,0.5,1.6,0.5l0,0c0.7,0,1.5-0.1,2.3-0.3s1.5-0.3,2.1-0.5l0,0
		l1.1-0.5l1.4-0.7c0.3,0,0.8-0.1,1.3-0.4l0,0l3.7-2.1c1.4-0.7,2.4-1.3,3-1.8l0,0c0.6-0.5,1.9-1.3,3.9-2.5l0,0
		c1.4-0.7,2.5-1.3,3.2-1.8l0,0c0.7-0.6,1.3-1.3,1.9-2l0,0l0.9-2.8c0.2-0.7,0.3-1.3,0.3-1.8l0,0c0-1.1-0.3-2.1-0.9-3l0,0
		c-0.2-0.4-0.7-0.8-1.4-1.3l0,0L374.3,202.7z M393.3,208.4l0.2,1.5c-0.1,0.3-0.3,0.7-0.4,1.1c-0.1,0.4-0.2,0.9-0.2,1.5l0,0
		c0,0.3,0.1,0.9,0.4,1.6l0,0l0.5,0.5c0.3,0.2,0.7,0.7,1.4,1.3c0.6,0.7,1.4,1.1,2.2,1.3l0,0c1.4,0.5,2.4,0.9,2.8,1.3l0,0
		c0.6,0.5,1.3,0.8,2,0.9c0.7,0.1,1.2,0.2,1.4,0.2l0,0h6.5c0.8,0,1.7-0.2,2.5-0.5l0,0c0.6-0.2,1.7-0.5,3.4-0.7l0,0l0.7-0.4l1.2-0.7
		c0.2-0.1,0.5-0.2,0.7-0.3s0.5-0.3,0.7-0.5l0,0c0.2-0.1,0.5-0.3,0.8-0.7s0.6-0.6,0.8-0.7l0,0c0.1-0.1,0.4-0.3,0.8-0.5s0.7-0.7,1-1.3
		l0,0c0.3-0.7,0.3-1.2-0.2-1.4l0,0c-0.3-0.2-0.9-0.6-1.7-1c-0.8-0.4-1.6-0.7-2.3-0.8l0,0c-1.9-0.5-4.7-0.9-8.5-1.4l0,0
		c-0.8-0.1-1.7-0.2-2.6-0.4c-0.9-0.1-1.7-0.2-2.6-0.4l0,0c-2.6-0.5-4.5-0.6-5.6-0.5l0,0H399c-0.3,0-0.8-0.1-1.2-0.3
		c-0.5-0.2-0.9-0.3-1.4-0.5l0,0l-1.1-0.2c0.4,0.5,0.3,0.7-0.3,0.7l0,0c-0.1,0.1-0.3,0.2-0.4,0.1c-0.1-0.1-0.2,0-0.2,0.1l0,0
		L393.3,208.4z M287.3,228.4l-4.8,2.1l-2.6,1.3c-1.1,0.2-2.4,0.6-3.8,1c-1.5,0.4-3.1,0.8-5,1.2l0,0c-1.2,0.5-2.2,0.5-3,0.2l0,0h-0.5
		c-0.5,0-1,0.2-1.7,0.5l0,0c-0.1,0.1-0.3,0.1-0.5,0.1s-0.3-0.1-0.5-0.3l0,0c-0.2-0.3-0.7-0.5-1.4-0.5l0,0c-0.2,0.1-0.6,0.2-1.2,0.2
		l0,0c-0.9,0-1.2,0.4-0.9,1.2l0,0c0,0.2,0,0.4,0,0.4l0,0c-0.1,0.1-0.2,0.4-0.2,0.7l0,0c0,0.3,0.2,0.8,0.7,1.2l0,0
		c0,0,0.1,0.1,0.4,0.4l0,0c0.8,1.9,1.2,3.5,1.2,4.8l0,0l0.2,2.9c0,1.8-0.3,3.2-0.9,4.4l0,0v0.7l0.2,1.6c0,0.6,0.2,1,0.5,1.4l0,0
		c0.5,0.5,0.9,1,1.2,1.6c0.3,0.6,0.7,1.1,1.2,1.6l0,0c0.3,0.4,0.7,0.5,1.1,0.5l0,0h1.2c1.2,0,2.1-0.3,2.8-0.9l0,0
		c0.2,0.6,0.5,0.9,0.9,0.9s0.6,0,0.7,0l0,0c0.2-0.1,0.4-0.2,0.5-0.1s0.2,0.1,0.4,0.1l0,0c0.8,0,1.4-0.1,1.6-0.2l0,0
		c0.7-0.2,1.6-0.7,2.8-1.4l0,0c0.6-0.3,0.9-0.7,0.9-1.1l0,0c0-0.5,0.2-0.9,0.5-1.2c0.3-0.4,0.7-0.7,1-0.9l0,0c0.6-0.3,1-0.9,1.1-1.6
		l0,0c0.1-0.6,0.4-1.8,0.9-3.5l0,0c0-0.2,0-0.4,0.1-0.6s0-0.4-0.1-0.6l0,0c-0.2-0.6-0.7-1.3-1.4-2.3l0,0l-0.4-0.7
		c-0.1-0.2-0.2-0.5-0.2-0.9l0,0c0-0.5,0.3-1.2,0.9-2l0,0l2.3-3c0.9-1.2,1.7-2.1,2.3-2.6l0,0c1.3-1.3,1.8-2.8,1.6-4.6l0,0v-0.5v-1.5
		L287.3,228.4L287.3,228.4z M308.5,229.5l-0.5,0.7c-0.6,0.6-1,1.6-1.3,3.2l0,0c-0.5,2.1-0.9,5.3-1.4,9.6l0,0
		c-0.7,4.4-1.1,6.8-1.1,7.3l0,0l-0.4,4.3c0,1.1-0.1,2.5-0.4,4.4l0,0c0,0.6-0.1,1.5-0.4,2.6l0,0c0,4.2-0.1,7.2-0.2,9.3l0,0
		c0,1.5-0.1,2.6-0.2,3.4l0,0c-0.2,3.1-0.5,5.3-0.7,6.6l0,0l-1.1,6.4v0.5v2.1c-0.2,0.7-0.3,1.2-0.2,1.4l0,0c0.2,0.2,0.4,0.5,0.4,0.9
		s0,0.6,0,0.7l0,0v0.3c0,0.5,0.4,1,1.1,1.5l0,0c0.8,0.3,1.5,0.3,1.9-0.2l0,0c0.3-0.4,0.8-0.8,1.5-1.4c0.6-0.6,1.3-1.1,1.9-1.4l0,0
		c0.2,0,0.4-0.1,0.4-0.4l0,0c1.1-1.1,1.8-2.3,2.1-3.7l0,0c0.3-1.1,0.5-1.6,0.5-1.7l0,0l0.4-3.7c0.1-0.6,0.3-1.5,0.6-2.7
		c0.3-1.2,0.5-2.3,0.5-3.3l0,0c0.2-2.4,0.4-4.3,0.4-5.7l0,0c0.1-1.3,0.2-3.3,0.2-5.9l0,0v-2.3c0-0.7,0.1-1.8,0.4-3.2l0,0
		c0-1.2,0.1-2.1,0.2-2.7l0,0c0.1-0.5,0.2-1,0.4-1.7c0.1-0.6,0.2-1.4,0.2-2.4l0,0c0-1.9,0.1-3.3,0.4-4.1l0,0v-1.4
		c0-1.3,0.2-2.3,0.5-2.9l0,0v-0.5l0.5-5l0.5-5.5c0-0.6-0.2-1.1-0.7-1.6l0,0c-0.5-0.7-0.9-1.1-1.4-1.2l0,0c-0.4-0.2-0.8-0.5-1.4-0.6
		c-0.6-0.2-1.1-0.3-1.4-0.5l0,0l-0.7,0.4C309.4,229.8,308.9,229.8,308.5,229.5L308.5,229.5z M343.2,230.7l0.2,0.7
		c0.1,0.6,0.1,1-0.1,1.2s-0.5,0.3-1,0.3l0,0h-0.9c-0.2,0-0.4,0.1-0.5,0.2l0,0c-0.5,0.2-0.7,0.5-0.7,0.7l0,0
		c-0.6,0.9-0.9,1.5-1.1,1.8l0,0c-0.1,0.5-0.2,1.2-0.2,2.1l0,0c0,5.4,0.2,10.8,0.5,16.1l0,0l0.2,3.5c-0.1,1.2-0.2,3-0.2,5.3l0,0
		l0.2,10.1c0,0.5,0.1,0.8,0.2,1.1l0,0c0.1,0.6,0.4,1.5,0.9,2.6l0,0c0.5,0.8,1.2,1.2,2.1,1.1l0,0c0.6,0,1.1-0.1,1.4-0.2l0,0
		c0.4,0,0.6-0.1,0.7-0.2l0,0c0.2-0.2,0.6-0.5,1.1-0.9c0.5-0.3,0.7-0.8,0.7-1.2l0,0c0-0.1,0.1-0.3,0.4-0.5l0,0
		c1.3-0.9,2.1-2.3,2.5-4.1l0,0c0.2-2.1,0.3-3.7,0.2-4.8l0,0v-0.5c0-0.8,0.1-1.6,0.3-2.4c0.2-0.8,0.3-1.6,0.3-2.4l0,0
		c0-1.8-0.1-3.1-0.2-4.1l0,0l-0.2-3.9c0-2.3-0.1-4-0.2-5.2l0,0c0-0.9-0.1-2.4-0.4-4.3l0,0l-0.7-3c-0.1-1-0.4-2-0.9-3
		c-0.5-1.1-0.8-1.8-1.1-2.3l0,0c-0.2-0.5-0.6-1-1.2-1.6l0,0l-1.4-2.1C344,230.8,343.7,230.7,343.2,230.7L343.2,230.7z M386.5,274.2
		l0.2,0.4l4.3-1.4c0.2,0,0.6-0.1,1-0.2c0.5-0.1,0.8-0.3,1.1-0.4l0,0c0.8-0.6,1.7-1,2.7-1.2l0,0c0.4-0.1,1-0.3,1.8-0.6s1.5-0.6,2-1
		c0.5-0.3,0.9-0.9,1.2-1.6l0,0l0.5-0.5c0.4-0.3,0.9-0.9,1.7-1.7c0.8-0.8,1.3-1.6,1.5-2.6l0,0c0.1-0.2,0.2-0.6,0.2-1.2l0,0
		c0-1.1-0.3-2.2-0.9-3.4l0,0c-0.6-1.2-1.8-2.3-3.6-3.2l0,0c-1.4-0.7-3.5-1.5-6.4-2.5l0,0c-0.8-0.1-1.3-0.6-1.4-1.4l0,0
		c-0.1-0.8-0.8-1.7-1.9-2.6l0,0c-2.1-1.8-3.1-2.6-3-2.5l0,0c-0.6-0.5-1.1-0.7-1.5-0.8c-0.4,0-0.8,0.2-1.3,0.6l0,0
		c-0.5,0.7-1,0.8-1.6,0.4l0,0c-0.4-0.3-0.8-0.2-1.4,0.2l0,0c-0.1,0.2-0.6,0.6-1.6,1.2l0,0l-2.3,1.6l-2.1,1.6
		c-0.4,0.3-0.9,0.8-1.6,1.2l0,0c-1.4,0.7-2.3,1.5-2.8,2.3l0,0l-1.1,1.1l-3,2.5c-0.1,0.1-0.2,0.3-0.2,0.5l0,0
		c-0.3,0.9-0.5,1.7-0.7,2.1l0,0c-0.2,0.6-0.2,1.3,0.2,2.1l0,0c0.4,0.7,0.4,1.4,0,2.1l0,0c0,0.1-0.2,0.5-0.5,1.2s-0.3,1.4-0.1,2.1
		l0,0v2.3v0.7c0,1.5,0.6,2.5,1.8,2.8l0,0l0.3,0.2c0.4,0.6,1,0.9,2,0.9l0,0c1.2,0.1,3,0.2,5.5,0.2l0,0c0.6,0,1.1-0.1,1.6-0.2
		s0.9-0.2,1.2-0.4l0,0c1.4-0.2,2.5-0.4,3-0.4l0,0C382.4,274.7,384.2,274.4,386.5,274.2L386.5,274.2z M383.9,264.1l-3,0.3l-0.5-0.2
		l0.2-0.7c0.2-0.1,0.5-0.3,0.7-0.6c0.2-0.3,0.5-0.5,0.9-0.6l0,0c0.6-0.3,1.6-1,3.2-2.3l0,0c0.5-0.5,1-0.7,1.6-0.7l0,0
		c0.5,0,0.9,0.2,1.4,0.5l0,0l3,2.3l0.5,0.7c-0.1,0.1-0.3,0.2-0.5,0.4c-0.2,0.1-0.4,0.2-0.6,0.2l0,0l-6.9,0.9L383.9,264.1
		L383.9,264.1z"/>
	<path id="title" d="M154.7,357.7c0,0,0.1,0.1,0.1,0.2l0,0c0,0.1,0,0.2-0.1,0.3s-0.1,0.2-0.2,0.3l0,0c-0.2,0.3-0.3,0.6-0.2,0.9l0,0
		v0.6c0,0.1,0,0.1,0,0.2c0,0,0.1,0.1,0.2,0.1l0,0c-0.2,0.2-0.3,0.3-0.5,0.4l0,0c-0.4,0.3-0.7,0.6-0.9,0.9l0,0
		c-0.2,0.2-0.5,0.3-0.9,0.5l0,0c-0.2,0-0.4,0.1-0.6,0.2l0,0c-0.3,0.1-0.5,0.1-0.6,0.1l0,0l0,0c0,0-0.2,0-0.4,0.1l0,0h-0.3
		c-0.4-0.1-0.7-0.1-0.9-0.2l0,0c-0.1-0.1-0.2-0.1-0.3-0.1s-0.1,0-0.2,0l0,0l-1.7-0.7l-0.9-0.5l-1.3-0.8c-0.7-0.5-1.1-0.7-1.3-0.9
		l0,0c-0.4-0.3-1-0.7-1.7-1.4l0,0c-0.6-0.5-1.3-1.2-2-2l0,0c-0.1-0.1-0.2-0.1-0.3-0.1l0,0c-0.3,0.2-0.5,0.5-0.5,0.6l0,0l-0.7,1
		c-0.2,0.3-0.2,0.5-0.3,0.5l0,0c-0.1,0.1-0.2,0.2-0.3,0.4c0,0.2-0.1,0.3-0.1,0.3l0,0c-0.1,0.1-0.1,0.2-0.2,0.3
		c-0.1,0.1-0.1,0.2-0.2,0.3l0,0c-0.3,0.5-0.5,0.8-0.5,0.9l0,0c-0.1,0.2-0.2,0.3-0.4,0.5l0,0l-0.8,0.8l-1,1.1c0,0-0.2,0.2-0.4,0.4
		c-0.2,0.2-0.4,0.3-0.6,0.4l0,0h-0.1c0,0-0.1,0-0.1,0.1l0,0c-0.2,0.2-0.4,0.4-0.6,0.5l0,0c-0.3,0.2-0.7,0.3-1.3,0.4l0,0
		c-0.1,0-0.2,0.1-0.3,0.1s-0.2,0.1-0.4,0.1l0,0c-0.2,0-0.4,0-0.5,0s-0.2,0-0.3,0l0,0c0,0-0.1,0-0.1-0.1l0,0
		c-0.2-0.2-0.3-0.3-0.6-0.3l0,0c-0.1,0-0.2-0.1-0.2-0.2s0-0.2,0-0.2l0,0c0,0-0.1-0.3-0.1-0.8l0,0c0-0.2-0.1-0.4-0.1-0.4l0,0
		c0-0.3,0.1-0.5,0.4-0.7l0,0l0.8-0.5l0.5-0.4l1.8-1.4l1.5-1.4l1.7-1.8c0.5-0.5,0.9-1.1,1.4-1.6l0,0l0.9-1.1c0.2-0.2,0.2-0.4,0.1-0.7
		l0,0l-0.8-2.3l-0.6-1.9c-0.5-1.5-0.8-2.4-0.9-2.9l0,0c0-0.3-0.1-0.6-0.2-0.8c-0.1-0.2-0.1-0.4-0.2-0.6l0,0c0-0.2-0.1-0.2-0.3-0.2
		l0,0c-0.3,0-0.8,0-1.4,0l0,0c-0.1,0-0.2,0-0.2,0c-0.1,0-0.1,0-0.2,0l0,0l-0.9-0.5c-0.2,0-0.4,0-0.6,0.1l0,0c-0.2,0-0.3,0-0.4,0l0,0
		c-0.1,0-0.2,0-0.2,0.1l0,0c-0.2,0.2-0.5,0.3-1,0.3l0,0h-0.1c-0.3,0-0.5,0.2-0.4,0.6l0,0c0.1,0.2,0.1,0.3,0.1,0.4l0,0v0.4l-0.2,1.4
		c0,0.1,0,0.2,0.2,0.2l0,0c0.3,0.2,0.5,0.3,0.8,0.5l0,0c0.1,0.1,0.3,0.2,0.4,0.3c0.2,0.1,0.3,0.2,0.4,0.3l0,0
		c0.6,0.4,1.1,0.9,1.5,1.5l0,0l0.4,0.3c0.4,0.4,0.6,0.8,0.6,1.1l0,0v0.1l0.1,0.1l0,0c0.1,0.3,0.2,0.7,0.1,1.1l0,0
		c0,0.1,0,0.2-0.1,0.2s-0.2,0-0.3,0l0,0v-0.1h-0.1c-0.1,0-0.2,0-0.3-0.1s-0.2-0.1-0.2-0.2l0,0c-0.1,0-0.1,0-0.2-0.1
		c-0.1,0-0.2-0.1-0.3-0.1l0,0l-0.5-0.5l-0.5-0.2l-1-0.5c-0.2-0.1-0.4-0.4-0.8-0.7l0,0c0,0-0.1-0.1-0.2-0.1l-0.1-0.1l0,0
		c0,0.1-0.1,0.2-0.1,0.4c0,0.1,0,0.3,0,0.5l0,0v1v0.3c0,0.2,0,0.3,0,0.4l0,0v0.1c0,0.3,0,0.6-0.1,0.9s-0.2,0.6-0.3,0.7l0,0v0.1l0,0
		c0,0.2,0,0.4,0,0.7l0,0c0,0.4,0,0.7-0.1,0.9l0,0c0.6,0.1,1,0.1,1.2,0.1l0,0c0.4,0,0.8-0.1,1.4-0.2l0,0h0.2c0.1,0,0.3,0,0.6,0l0,0
		c0.1,0,0.2,0,0.3,0l0,0c0,0-0.1,0.1-0.1,0.2l0,0l-0.1,0.9c-0.1,0.3-0.2,0.6-0.3,0.7l0,0l-0.8,0.9l-0.3,0.2c-0.2,0-0.3,0.1-0.4,0.1
		c-0.1,0.1-0.2,0.1-0.3,0.1l0,0l-0.4,0.1l-2.4,0.4h-0.4l-0.8,0.1h-0.1c0,0,0,0-0.1,0l0,0h-0.2c-0.3,0-0.6,0.1-0.9,0.2l0,0
		c-0.3,0.1-0.7,0.2-1.2,0.1l0,0h-0.1c-0.2,0-0.3,0-0.4,0s-0.2,0-0.3,0.1l0,0c-0.1,0-0.2,0.1-0.3,0.1s-0.2,0-0.2,0l0,0H122h-0.2h-0.1
		c-0.2,0-0.4,0.1-0.6,0.2l0,0c-0.2,0-0.2,0.1-0.3,0.1l0,0c-0.1,0-0.2,0-0.4-0.1l0,0c-0.1-0.1-0.3-0.2-0.6-0.2l0,0h-0.1
		c-0.2,0-0.3-0.1-0.4-0.2c-0.1-0.2-0.2-0.3-0.2-0.5l0,0c0-0.1,0-0.2-0.1-0.4c0-0.2,0-0.3-0.1-0.4l0,0c0-0.1-0.1-0.2-0.1-0.4
		c0-0.2,0-0.3,0-0.4l0,0l-0.1-0.3c-0.1-0.2-0.1-0.3-0.2-0.4c0-0.1,0-0.3,0-0.5l0,0c0.3-0.2,0.5-0.2,0.6-0.3l0,0h0.3
		c0.2,0,0.3,0,0.3,0.1l0,0c0.1,0.1,0.3,0.2,0.6,0.2l0,0c0.3,0,0.5,0,0.7,0s0.3,0,0.4,0l0,0c0.5,0,1.2-0.1,2-0.2l0,0
		c0.2,0,0.4-0.1,0.6-0.1s0.4-0.1,0.6-0.1l0,0c0.2,0,0.4-0.1,0.6-0.1s0.4,0,0.6-0.1l0,0l0.3-1.7l0.1-1.5c0.1-0.9,0.2-1.5,0.2-2l0,0
		l0.1-1.6c0-0.5,0.1-1.2,0.2-2.1l0,0c0.1-1.2,0.2-2.1,0.2-2.5l0,0c0-0.1,0-0.1,0-0.2l0,0l-0.2,0.1c-0.2,0.3-0.5,0.5-0.9,0.5l0,0
		c-0.1,0-0.3,0-0.5,0s-0.3,0.1-0.4,0.1l0,0c-0.1,0-0.2,0.1-0.3,0.1s-0.2,0-0.3,0l0,0c-0.4,0-0.8,0.1-1.3,0.4l0,0
		c-0.3,0.3-0.7,0.5-1,0.7l0,0c-0.1,0-0.2,0.1-0.3,0.1l0,0c-0.5,0-0.9-0.2-1.3-0.6l0,0c0,0,0,0-0.1-0.1l0,0c-0.3-0.6-0.4-1-0.4-1.3
		l0,0c0-0.2,0-0.3,0.1-0.3l0,0c0.1-0.3,0.1-0.4,0.1-0.5l0,0c0.1-0.2,0.1-0.3,0.1-0.4l0,0c0-0.1,0-0.2-0.1-0.4l0,0c0-0.1,0-0.2,0-0.2
		s0.1-0.1,0.2-0.1l0,0c0.1,0,0.2,0,0.3,0l0,0c0.1,0,0.2,0,0.5,0.1l0,0c0.1,0.1,0.2,0.1,0.4,0.1l0,0c0.2,0,0.4,0,0.7-0.1l0,0
		c0.5-0.1,0.7-0.1,0.8-0.1l0,0c0,0,0.1,0,0.3-0.1l0,0c0.2,0,0.4,0,0.5-0.1c0.2-0.1,0.4-0.1,0.5,0l0,0h0.1c0,0,0.2,0,0.5-0.1l0,0
		l1.4-0.2h0.1c0.2,0,0.3-0.1,0.4-0.1c0,0,0.1-0.2,0.1-0.4l0,0c0.1-0.8,0.3-1.4,0.4-1.9l0,0c0,0,0.1-0.1,0.2-0.2s0.1-0.1,0.2-0.2l0,0
		c0,0.1,0.1,0.1,0.2,0.2l0,0v0.1c0.1-0.1,0.2-0.2,0.2-0.2l0,0v0.1c0,0.1,0.1,0.1,0.2,0.2c0.1,0,0.2,0,0.2,0l0,0c0.1,0,0.1,0,0.1,0
		s0.1,0.1,0.1,0.2l0,0c0.1,0.2,0.2,0.3,0.3,0.5l0,0c0.3,0.3,0.5,0.8,0.5,1.3l0,0c0,0.2,0.1,0.3,0.4,0.3l0,0c0.5-0.1,0.7-0.1,0.7-0.1
		l0,0c0.1,0,0.2-0.1,0.4-0.1s0.3,0,0.5,0l0,0h0.1c0.7,0,1.1-0.1,1.4-0.2l0,0h0.2l0.5,0.1h0.1l0.5-0.1c0.3-0.1,0.5-0.1,0.5-0.1l0,0
		l-0.2-1l-0.2-1.3c-0.1-0.6-0.2-1-0.3-1.3l0,0c-0.1-0.4-0.2-0.7-0.3-0.9l0,0c0-0.1-0.1-0.2-0.2-0.1l0,0c-0.1,0.1-0.2,0.2-0.4,0.4
		c-0.2,0.1-0.3,0.2-0.4,0.3l0,0c-0.2,0.2-0.3,0.2-0.5,0.2l0,0c-0.1,0-0.3,0-0.4,0l0,0c-0.1,0-0.3,0.1-0.4,0.1c-0.2,0-0.2,0-0.3,0
		l0,0c-0.2,0-0.4,0-0.5,0.1l0,0c-0.3,0.2-0.7,0.3-1.2,0.3l0,0h-0.2c-0.3,0.1-0.7,0.3-1.1,0.4l0,0c-0.2,0.1-0.3,0.1-0.5,0.1l0,0h0.2
		c-0.2,0-0.5,0.1-0.8,0.3l0,0c-0.1,0-0.2,0.1-0.3,0.2c-0.2,0.1-0.3,0.2-0.5,0.2l0,0c-0.1,0-0.2,0.1-0.2,0.2l0,0
		c-0.1,0.1-0.2,0.2-0.2,0.2c-0.1,0-0.2,0-0.3,0l0,0l-1-0.4c-0.3-0.1-0.4-0.3-0.5-0.6l0,0l-0.2-0.5c-0.1-0.2-0.2-0.4-0.2-0.7l0,0
		c0-0.2,0-0.3,0-0.4l0,0c0.1-0.1,0.1-0.1,0-0.2l0,0c0-0.1,0-0.2,0-0.2c0-0.1,0-0.1,0-0.1l0,0v-0.2c0-0.2,0-0.3,0-0.3l0,0
		c0-0.1-0.1-0.2-0.1-0.3l0,0c-0.1-0.1-0.1-0.2-0.1-0.3l0,0c0-0.1,0.1-0.2,0.2-0.4l0,0c0.3,0.2,0.6,0.2,0.9,0.2l0,0l0.1-0.1
		c0.1-0.1,0.2-0.1,0.3-0.1l0,0c0.1,0,0.2,0,0.4,0.1l0,0h0.2c0.2,0,0.3,0,0.4,0l0,0l2.3-0.2l0.7-0.2c0.3-0.1,0.6-0.2,0.8-0.1l0,0
		c0.6,0.1,1,0.2,1.3,0.2l0,0c0.2,0,0.4,0,0.6-0.1l0,0c0.2,0,0.3-0.1,0.5-0.1s0.4-0.1,0.6-0.1l0,0c0.1,0,0.3-0.1,0.4,0
		c0.1,0,0.2,0,0.3,0l0,0c-0.1-0.7-0.2-1.1-0.2-1.3l0,0v-1.8c0-0.2-0.1-0.5-0.2-0.7c0-0.2-0.1-0.4-0.2-0.6l0,0c0-0.4-0.1-0.7-0.1-0.8
		l0,0c0-0.2,0.1-0.2,0.2-0.2l0,0c0.1,0,0.1,0,0.2-0.1l0,0c0.1-0.1,0.2-0.2,0.4-0.2l0,0c0.1,0,0.2,0.1,0.5,0.2l0,0h0.3
		c0.1,0,0.2,0,0.2,0.1l0,0c0.4,0.5,0.6,0.8,0.8,1.1l0,0c0,0.1,0,0.1,0.1,0.2c0,0.1,0.1,0.1,0.2,0.2l0,0c0.1,0.1,0.2,0.3,0.5,0.5l0,0
		c0.3,0.3,0.5,0.8,0.5,1.4l0,0v0.1c0,0,0,0.2,0.1,0.7l0,0l0.2,1c0,0.1,0.1,0.4,0.1,0.7c0,0.3,0.1,0.6,0.2,0.9l0,0
		c0.1,0.3,0.2,0.6,0.2,0.8c0.1,0.2,0.1,0.4,0.1,0.6l0,0c0,0.2,0.1,0.3,0.1,0.5s0,0.3,0,0.4l0,0c0.1,0.5,0.1,0.8,0.1,0.8l0,0
		c0.1,0.3,0.1,0.6,0.1,0.8c0,0.2,0,0.4,0,0.6l0,0c0,0.2,0.1,0.3,0.3,0.3l0,0c0.3,0,0.8,0,1.4-0.1l0,0h1.7h1c0.2,0,0.5,0,0.9,0
		s0.7,0.1,1,0.1l0,0c0.2,0,0.5,0.1,0.8,0.1s0.6,0,0.8,0l0,0c0.2,0,0.4,0.1,0.6,0.2c0.3,0.1,0.5,0.2,0.6,0.2l0,0h0.3h0.1
		c0.1,0,0.2,0.1,0.3,0.2l0,0c0,0.1,0,0.2,0.1,0.2c0,0.1,0,0.1,0.1,0.2l0,0c0.1,0.1,0.1,0.2,0.1,0.4l0,0v0.1c0,0.1,0,0.2,0,0.3l0,0
		c0,0.1-0.1,0.2-0.3,0.4l0,0c-0.1,0.1-0.5,0.3-1.1,0.6l0,0c-0.3,0.2-0.7,0.3-1.1,0.4l0,0h-0.1H145c-0.1,0-0.3,0-0.5,0l0,0
		c-0.1,0-0.2,0-0.5-0.1l0,0l-0.3-0.1c-0.2,0-0.4,0-0.5,0s-0.4,0-0.5,0l0,0c-0.2,0-0.5,0-0.7,0.1l0,0h-0.1c-0.2,0-0.4-0.1-0.7-0.2
		l0,0l-0.3-0.1c-0.2,0-0.5,0.1-1,0.2l0,0c-0.1,0-0.2,0-0.3,0s-0.2,0-0.3,0l0,0l-0.6-0.1c0,0,0,0-0.1,0.1v0.1l0,0
		c0,0.1,0,0.3,0.1,0.4s0,0.3,0,0.5l0,0c0,0.3,0.1,0.8,0.4,1.4l0,0l0.4,0.8c0.1,0.1,0.1,0.2,0.2,0.4c0,0.2,0.1,0.3,0.2,0.5l0,0
		c0.1,0.2,0.1,0.3,0.2,0.4c0.1,0.1,0.1,0.2,0.2,0.3l0,0l0.2,0.4l0.3-0.5l1-1.5l0.5-0.8c0.2-0.2,0.3-0.3,0.5-0.3l0,0
		c0,0,0.1,0,0.4,0.1l0,0h0.1l0,0c0.1,0,0.2,0,0.2,0.1c0,0,0,0.1,0,0.3l0,0c-0.1,0.2-0.1,0.4-0.2,0.5c-0.1,0.2-0.1,0.3-0.2,0.4l0,0
		l-0.2,0.6c0,0.1-0.1,0.3-0.2,0.5c-0.1,0.2-0.2,0.4-0.2,0.6l0,0c0,0.3-0.2,0.8-0.4,1.4l0,0c0,0.1,0,0.2,0,0.3l0,0
		c0,0.1,0,0.2,0.1,0.3l0,0c0.3,0.4,0.6,0.7,1,1.1s0.6,0.6,0.7,0.7l0,0c0.1,0.1,0.3,0.3,0.8,0.6l0,0c0.3,0.3,0.7,0.5,1.1,0.7
		c0.5,0.2,0.8,0.4,0.9,0.4l0,0c0.5,0.3,1,0.5,1.5,0.7s0.9,0.4,1.1,0.4l0,0c0.2,0.1,1.1,0.4,2.5,1l0,0c0.4,0.2,0.6,0.3,0.7,0.3l0,0
		c0,0,0.2,0,0.4-0.1l0,0c0.1,0,0.2-0.1,0.3-0.1l0,0l0.2-0.1c0.1-0.1,0.3-0.1,0.5-0.1l0,0h0.1l0,0l0.3-0.1c0,0.1,0.1,0.2,0.1,0.2
		s0.1,0,0.2,0l0,0c0.2,0,0.2,0,0.2,0.2l0,0c0,0.1,0,0.2,0,0.4l0,0C154.6,357.5,154.6,357.6,154.7,357.7L154.7,357.7z M140.5,338.2
		c-0.2-0.3-0.4-0.5-0.5-0.9c-0.1-0.3-0.2-0.5-0.2-0.6l0,0c-0.1-0.1-0.1-0.3-0.1-0.5l0,0c0-0.2,0-0.4,0.1-0.7l0,0v-0.2l0.6-0.2
		c0.1,0,0.2,0,0.2,0.1l0,0c0,0,0.1,0.1,0.2,0.1c0.1,0,0.2,0.1,0.3,0.1l0,0c0.1,0,0.2,0.1,0.3,0.2l0,0c0.1,0.1,0.2,0.3,0.3,0.5
		s0.2,0.4,0.3,0.5l0,0c0.1,0.2,0.1,0.3,0.1,0.5l0,0c0,0.2-0.1,0.4-0.3,0.6l0,0c-0.3,0.4-0.5,0.5-0.8,0.5l0,0c-0.1,0-0.2,0-0.4-0.1
		l0,0C140.6,338.2,140.6,338.2,140.5,338.2C140.6,338.2,140.5,338.2,140.5,338.2L140.5,338.2z M119.8,353.3c0-0.1,0-0.2,0-0.3
		s0-0.2,0-0.3l0,0c-0.1-0.2-0.1-0.4-0.1-0.6l0,0c0-0.4,0.1-0.7,0.4-1l0,0c0.2-0.2,0.4-0.4,0.8-0.7l0,0l0.6-0.5
		c0.3-0.3,0.6-0.4,0.7-0.5l0,0l0.9-0.6c0.2-0.1,0.4-0.3,0.6-0.5s0.4-0.3,0.7-0.5l0,0c0.2-0.1,0.4-0.2,0.5-0.2l0,0l0,0
		c0.1,0,0.1,0,0.2,0.1c0.1,0,0.1,0.1,0.2,0.1l0,0c0.1,0,0.2,0.1,0.3,0.1l0,0h0.4c0.1,0.2,0.1,0.2,0.1,0.3l0,0c0,0.1,0,0.2-0.1,0.3
		c0,0.1,0,0.1-0.1,0.2l0,0l-0.1,0.4c-0.1,0.3-0.2,0.5-0.3,0.6l0,0c-0.3,0.6-0.5,1-0.7,1.2l0,0c-0.1,0.2-0.3,0.4-0.5,0.8l0,0
		l-0.5,1.1c-0.2,0.3-0.5,0.6-0.9,0.8l0,0l-0.3,0.3c-0.2,0.2-0.5,0.4-1,0.4l0,0c-0.2,0-0.3,0-0.4-0.1l0,0c-0.1,0-0.2-0.1-0.3-0.1
		c-0.1-0.1-0.2-0.1-0.3-0.1l0,0c0,0-0.1-0.1-0.1-0.2l0,0v-0.1c0-0.1,0-0.2-0.1-0.2c-0.1-0.1-0.2-0.1-0.3-0.1l0,0
		C119.9,353.4,119.9,353.3,119.8,353.3L119.8,353.3z M179.8,332.6l-0.3-0.1h-0.1c-0.2,0-0.3,0.1-0.4,0.2l0,0h-0.1l-0.1,0.1
		c-0.1,0.1-0.2,0.3-0.2,0.5l0,0c0,0.2,0,0.3,0.1,0.4l0,0c0.1,0.1,0.2,0.2,0.2,0.3l0,0c0.1,0.2,0.1,0.3,0.1,0.5l0,0
		c0,0.5,0,0.9,0.1,1.2l0,0c0.1,0.3,0.2,0.5,0.3,0.7s0.1,0.4,0.2,0.5l0,0v0.1v0.5h0.1c0.1,0,0.1,0,0.1,0l0,0c0-0.1,0.2-0.1,0.3-0.1
		l0,0c0.1,0.1,0.1,0.1,0.2,0l0,0c0,0,0.1,0,0.2,0c0.1,0,0.2,0,0.3-0.1l0,0c0.2-0.1,0.4-0.2,0.7-0.2l0,0h0.2c0.3,0,0.5,0.1,0.6,0.2
		l0,0c0.1,0,0.1,0,0.2,0c0.1,0,0.1-0.1,0.1-0.1l0,0h0.1h0.1l0,0c0.1-0.1,0.2-0.3,0.3-0.6l0,0c0-0.1,0.1-0.2,0.1-0.3s0-0.1,0.1-0.2
		l0,0c0.1,0,0.1-0.1,0.1-0.1v-0.1l0,0v-1v-0.5c0-0.1,0-0.2-0.1-0.3c-0.1-0.1,0-0.2,0-0.3l0,0v-0.1c0-0.1-0.1-0.2-0.2-0.4l0,0
		c0,0-0.1-0.1-0.2-0.2c-0.1-0.1-0.2-0.1-0.3-0.2l0,0l-0.5-0.1l-0.4-0.2c-0.2,0-0.4,0-0.5-0.1l0,0c0,0-0.1,0-0.2,0l0,0
		c-0.3-0.1-0.5-0.2-0.6-0.3l0,0c-0.1,0-0.1-0.1-0.1-0.1l0,0c0,0-0.1-0.1-0.2-0.1l0,0C180,332.3,179.9,332.4,179.8,332.6L179.8,332.6
		z M168.6,336.8c0-0.1,0-0.2,0.1-0.2l0,0c0.1-0.1,0.1-0.1,0.2-0.2c0.1,0,0.1-0.1,0.2-0.2l0,0l0.2-0.6c0-0.2,0.1-0.4,0.2-0.7l0,0
		c0.1-0.1,0.1-0.2,0-0.3l0,0l-0.2-0.2c-0.2-0.2-0.3-0.3-0.4-0.3l0,0l-0.6-0.4c0,0-0.1,0-0.2-0.1c-0.1,0-0.1,0-0.2-0.1l0,0
		c-0.1,0-0.2,0-0.3-0.1l0,0h-0.2c-0.2,0-0.4,0.1-0.5,0.2l0,0c-0.1,0.1-0.2,0.1-0.3,0l0,0c-0.1-0.1-0.2-0.1-0.3,0l0,0l-0.1,0.1l0,0
		c-0.1-0.1-0.2-0.1-0.2,0l0,0l-0.3,0.1v0.1l0.1,0.5c0.2,0.4,0.2,0.6,0.2,0.6l0,0l0.3,1.3l0.4,1.5l0.2,0.7l0,0c0,0,0,0,0-0.1l0,0
		c0-0.1,0-0.2,0-0.4l0,0l-0.1-0.5h0.1l0.1,0.2v0.1v0.1l0,0c0,0.1,0,0.3,0.1,0.5l0,0c0,0,0,0,0.1,0l0,0c0,0,0.1,0,0.1-0.1l0,0
		c0,0,0,0,0-0.1l0,0V338c0-0.2,0-0.3,0.1-0.4l0,0l0.1-0.1l0.1-0.1l0,0c0,0.1,0.1,0.3,0.2,0.5l0,0l0,0v-0.1v-0.1l0,0
		c0.1-0.1,0.1-0.1,0.1-0.2s0-0.2,0.1-0.3l0,0v-0.1c0-0.1,0.1-0.2,0.2-0.5l0,0C168.5,336.9,168.6,336.9,168.6,336.8L168.6,336.8z
		 M182.5,357l0.1-0.1c0.1,0,0.2-0.1,0.3-0.2s0.2-0.1,0.4-0.2l0,0c0.3-0.2,0.6-0.3,0.9-0.4l0,0c0,0,0.2-0.1,0.6-0.4l0,0l1.3-0.6l0,0
		l0.3-0.2l0.3-0.2l0.1-0.1c0.1,0,0.1-0.1,0.2-0.1l0,0c0.1,0,0.3-0.1,0.5-0.2l0,0l0.4-0.2c0.1-0.1,0.2-0.2,0.4-0.2
		c0.2-0.1,0.3-0.1,0.3-0.2l0,0c0.1,0,0.1-0.1,0.2-0.2c0.1-0.1,0.2-0.2,0.2-0.2l0,0l0.4-0.4c0.2-0.2,0.2-0.4,0.3-0.4l0,0
		c0-0.1,0.1-0.2,0.1-0.3c0.1-0.1,0.1-0.2,0.2-0.3l0,0l0.1-0.1c0-0.1,0.1-0.3,0.2-0.4c0.1-0.1,0.1-0.3,0.2-0.4l0,0c0,0,0-0.1,0-0.2
		l0,0c0-0.1,0.1-0.3,0.3-0.8l0,0c0.1-0.1,0.1-0.2,0.1-0.3s0-0.2,0-0.2l0,0c0-0.1,0.1-0.2,0.2-0.3c0.1-0.1,0.1-0.3,0.2-0.4l0,0
		c0.2-0.4,0.2-0.6,0.3-0.8l0,0c0-0.1,0.1-0.2,0.1-0.4c0-0.2,0.1-0.4,0.1-0.6l0,0l0.3-0.6c0.1-0.1,0.1-0.2,0.2-0.3l0,0
		c0-0.1,0.1-0.2,0.1-0.3c0.1-0.1,0.1-0.3,0.1-0.4l0,0v-0.1v-0.4c0-0.3,0.1-0.6,0.3-0.8l0,0c0.1-0.1,0.1-0.2,0.1-0.3l0,0v-0.5v-0.2
		c0-0.2,0-0.4-0.1-0.5l0,0c-0.1-0.1-0.1-0.2-0.2-0.4l0,0c-0.1-0.3-0.2-0.7-0.5-1.1l0,0c-0.1-0.2-0.2-0.4-0.3-0.5
		c-0.1-0.2-0.2-0.4-0.4-0.6l0,0c-0.2-0.3-0.4-0.5-0.6-0.6l0,0c-0.4-0.3-0.6-0.5-0.7-0.5l0,0c-0.2-0.1-0.3-0.1-0.4-0.2
		c-0.1-0.1-0.2-0.2-0.3-0.2l0,0c-0.3-0.1-0.6-0.2-1-0.3c-0.4-0.1-0.7-0.1-0.8-0.1l0,0c-0.4-0.1-0.6-0.2-0.8-0.2l0,0
		c-0.2,0-0.4,0-0.7,0s-0.6,0-0.9,0l0,0c-0.6,0-1.1,0-1.4,0l0,0c-0.3,0-0.5,0-0.7,0s-0.4,0.1-0.5,0.1l0,0c-0.4,0-0.7,0-0.9,0l0,0
		c-0.4,0-0.7,0.1-0.8,0.2l0,0l-0.8,0.2c-0.1,0-0.2,0.1-0.4,0.1s-0.3,0.1-0.5,0.1l0,0c-0.5,0.2-0.9,0.4-1.2,0.5l0,0
		c-0.2,0.1-0.6,0.2-1,0.5l0,0c-0.2,0-0.4,0.1-0.8,0.3l0,0c-0.2,0.1-0.3,0.1-0.3,0.2l0,0c0,0,0,0-0.1,0l0,0c-0.1,0-0.1,0.1-0.2,0.1
		l0,0c-0.1,0-0.1,0.1-0.1,0.2l0,0c0,0.1,0.1,0.2,0.2,0.3l0,0c0,0,0.1,0.1,0.1,0.2l0,0c0,0,0.1,0.1,0.2,0.2l0,0
		c0.1,0,0.3,0.2,0.7,0.5l0,0v0.1h-0.1h-0.1l0,0c0.1,0,0.2,0.1,0.2,0.1c0.1,0,0.1,0.1,0.1,0.2l0,0h0.1h0.2c0.1,0,0.2,0.1,0.4,0.3l0,0
		c0,0.1,0.1,0.1,0.3,0l0,0c0.1,0,0.1,0,0.2,0l0,0l0.1,0.1l0.5,0.1c0.1-0.1,0.2-0.1,0.2-0.1l0,0c0.1,0,0.1,0,0.2,0s0.2,0.1,0.2,0.1
		l0,0c0.3-0.4,0.6-0.6,1.1-0.7l0,0c0,0,0,0-0.1-0.1l0,0c0.4-0.2,0.6-0.3,0.7-0.3l0,0c0.5-0.1,0.8-0.2,1-0.2l0,0l1.6-0.2
		c0.3-0.1,0.5-0.1,0.6-0.1l0,0c0.2,0,0.4,0,0.5,0c0.2,0,0.3,0,0.4,0l0,0c0.1,0,0.3,0,0.5-0.1c0.2,0,0.4,0,0.5,0l0,0
		c0.1,0,0.2,0,0.3-0.1l0,0c0.2,0,0.3-0.1,0.5-0.1l0,0h0.7c0.3,0,0.5,0.1,0.8,0.2l0,0c0.2,0.1,0.2,0.1,0.3,0.2l0,0
		c0.2,0.5,0.3,1,0.3,1.6l0,0c-0.1,0.7-0.1,1.3-0.1,1.9l0,0v0.5c0,0.5,0,0.8-0.1,1l0,0c-0.1,0.2-0.1,0.4-0.2,0.6
		c-0.1,0.3-0.1,0.5-0.2,0.8l0,0c0,0,0,0.2,0,0.3c0,0.2-0.1,0.3-0.1,0.5l0,0c-0.1,0.2-0.2,0.4-0.3,0.6s-0.2,0.3-0.2,0.5l0,0
		c-0.1,0.2-0.2,0.4-0.3,0.5l0,0c-0.1,0.2-0.4,0.5-0.8,0.6l0,0c-0.1,0.1-0.2,0.2-0.3,0.3l0,0c0,0.2-0.1,0.3-0.2,0.4l0,0l-0.2,0.2
		l-0.9,0.5l-0.8,0.5c0,0-0.1,0-0.2,0c-0.1,0-0.2,0.1-0.1,0.2l0,0l0,0c-0.1,0.1-0.3,0.2-0.6,0.4l0,0c-0.2,0.1-0.3,0.2-0.5,0.3
		s-0.4,0.2-0.6,0.3l0,0l-1,0.7c-0.3,0.2-0.6,0.4-0.9,0.6l0,0l-0.9,0.7v0.1c0,0.1-0.1,0.2-0.2,0.3l0,0c0,0-0.1,0.1-0.2,0.1
		c-0.1,0.1-0.1,0.1-0.2,0.2l0,0c-0.1,0.1-0.1,0.1-0.2,0.2c0,0.1-0.1,0.1-0.2,0.2l0,0c-0.1,0-0.1,0.1-0.2,0.2c0,0.1-0.1,0.2-0.1,0.2
		l0,0c0,0.1,0,0.2,0,0.2l0,0H178c0.1,0.1,0.1,0.2,0.1,0.2l0,0l-0.1,0.7c0,0.2,0,0.4,0.1,0.5l0,0c0,0.1,0.1,0.2,0.2,0.3
		c0.1,0.1,0.2,0.2,0.2,0.3l0,0l0.2-0.1c0.1,0.1,0.2,0.2,0.3,0.2l0,0c0.2,0.2,0.3,0.4,0.4,0.5l0,0c0.1-0.1,0.2-0.2,0.2-0.2
		c0.1-0.1,0.1-0.1,0.2-0.2l0,0l0.8-0.4c0.1-0.1,0.2-0.1,0.4-0.2c0.1-0.1,0.2-0.2,0.4-0.2l0,0l0.1-0.1c0.1-0.1,0.2-0.2,0.3-0.3
		c0.2-0.2,0.3-0.3,0.5-0.4l0,0h0.1c0,0,0.1,0,0.1-0.1l0,0l0.4-0.4C182.3,357.1,182.4,357,182.5,357L182.5,357z M161.8,341.3
		c0,0.1-0.1,0.1-0.2,0.2l0,0h-0.1c0,0.1-0.1,0.2-0.2,0.4c-0.1,0.2-0.2,0.3-0.2,0.4l0,0c0,0,0,0-0.1,0l0,0c0,0.1,0,0.1,0,0.1v0.1l0,0
		c0,0,0.1,0.1,0.3,0.2l0,0c0.2,0.1,0.2,0.2,0.1,0.4l0,0v0.2c0,0.1,0,0.3,0,0.6l0,0c0,0.6-0.1,1-0.1,1.2l0,0c0,0.3,0,0.5,0,0.7
		s0,0.3,0,0.4l0,0c0,0.1,0,0.2,0,0.3s0,0.2,0,0.3l0,0c0,0.1,0.1,0.2,0.1,0.2l0,0v0.2c0,0.2-0.1,0.2-0.1,0.3l0,0c0,0.1,0,0.1,0,0.2
		s0,0.2,0,0.2l0,0c0,0,0,0,0,0.1l0,0c0.1,0,0.1,0.1,0,0.2c0,0.1,0,0.2,0,0.2l0,0c0,0.2,0,0.4,0,0.5l0,0c0.1,0,0.1,0.1,0.1,0.2
		s0,0.1,0,0.2l0,0v0.1v0.1l0,0l0.1,0.2c0,0.2,0,0.3-0.1,0.4c0,0.1,0,0.2-0.1,0.3l0,0l-0.1,0.4v0.1c0,0,0.1,0.1,0.1,0.2
		s0,0.2,0.1,0.2l0,0v0.5v0.4v0.3v0.7v0.4v0.2v0.1c0,0.1,0,0.2,0.1,0.3c0.1,0.1,0.1,0.1,0.1,0.2l0,0c0,0.1,0,0.2,0,0.3
		c0,0.2,0,0.3,0.1,0.4l0,0l0,0l0,0l0,0v0.3l0.1,0.8c0.1,0,0.1,0.1,0.1,0.1l0,0c0,0,0,0-0.1,0l0,0c-0.1,0-0.1,0-0.2,0l0,0
		c-0.1-0.1-0.2-0.2-0.4-0.1l0,0c0,0-0.1,0.1-0.1,0.3l0,0c0,0,0,0,0,0.1s-0.1,0.2-0.2,0.2l0,0l0.2,0.1c0.1,0.1,0.2,0.2,0.4,0.2
		s0.3,0.1,0.3,0.1l0,0c0.2,0,0.3,0.1,0.3,0.3l0,0c0,0.1,0,0.2,0,0.4l0,0h0.1v0.2l0,0l0,0l0,0c0,0,0-0.1,0.1-0.2c0-0.1,0-0.2,0-0.2
		l0,0v0.4c0.1,0.2,0.2,0.2,0.3,0.1l0,0c0,0,0.1,0,0.1-0.1l0.1-0.1l0,0v-0.1l0,0l0,0l0.1-0.1l0.1,0.1c0,0,0.1,0,0.1,0.1l0,0v-0.1
		c0,0,0-0.1,0.1-0.1l0,0c0.1,0.2,0.1,0.3,0.1,0.3l0,0c0.1-0.1,0.1-0.2,0.1-0.2l0,0c0-0.1,0-0.2,0.1-0.2s0.1-0.1,0.2-0.1l0,0
		c0.7-0.2,1.3-0.2,1.8-0.3l0,0l1.8-0.4c0.3,0,0.6-0.1,0.8-0.2s0.4-0.1,0.6-0.2l0,0l1.4-0.3c0.1,0,0.2,0,0.3-0.1l0,0
		c0.1-0.1,0.2-0.1,0.2-0.1c0.1,0,0.1,0.1,0.1,0.2l0,0c0,0.1,0,0.1,0,0.1l0,0c0,0.2,0.1,0.3,0.1,0.4l0,0v-0.1c0,0,0-0.1,0.1-0.1l0,0
		c0-0.2-0.1-0.2-0.1-0.3l0,0l0,0l0,0l0,0l0.1,0.2c0.1,0.1,0.1,0.2,0.1,0.3s0.1,0.2,0.2,0.3c0.1,0.1,0.2,0.1,0.3,0.1l0,0l0,0
		c0.2,0.1,0.4,0,0.5-0.1l0,0l0.3-0.3c0.1,0.1,0.1,0.2,0.2,0.2c0,0,0.2,0,0.4,0.1l0,0l0.1-0.5v-0.3c0-0.3,0-0.5,0-0.6l0,0
		c0.1-0.2,0.1-0.4,0.1-0.7c0-0.3,0-0.4,0-0.5l0,0c0-0.2,0-0.5,0-0.7l0,0v-0.3c0-0.3,0-0.6,0-0.7l0,0v-0.5l0.2-1.1c0-0.1,0-0.2,0-0.4
		c0-0.2,0-0.4,0-0.5l0,0v-0.6v-0.1c0,0,0-0.1,0-0.2s0-0.1,0-0.1l0,0v-0.6l0.1-0.4c0-0.2,0-0.5,0-0.8l0,0v-0.9l0.1-0.7
		c0,0,0-0.4,0.1-1l0,0c0-0.2,0-0.3,0-0.6l0,0v-0.6l-0.1-0.8c0-0.4-0.1-0.7-0.2-1l0,0c0-0.1,0-0.1,0-0.2v-0.1l0,0
		c0-0.1,0-0.1,0.1-0.2c0-0.1,0.1-0.1,0.1-0.2l0,0V341c-0.1-0.3-0.3-0.5-0.5-0.5l0,0c-0.2-0.1-0.2-0.1-0.3-0.1l0,0
		c-0.3-0.2-0.6-0.2-0.7-0.3l0,0l-0.5-0.1l-1.2-0.2c-0.6-0.1-1.1-0.1-1.6-0.1l0,0h-0.4c-0.4,0-0.7,0-0.9,0l0,0c0,0-0.5,0.1-1.6,0.3
		l0,0l-1.4,0.3c-0.2,0.1-0.5,0.2-0.8,0.3l0,0l-0.5,0.2l-0.1,0.1c-0.1,0-0.1,0-0.1,0s0-0.1,0-0.2l0,0l0,0l0,0l0,0
		c-0.1,0.1-0.2,0.2-0.2,0.2l0,0l-0.1-0.1l-0.1,0.3c0,0-0.1,0-0.1-0.1c0,0-0.1,0-0.1-0.1l0,0l0,0h-0.2L161.8,341.3z M169.6,343.1h0.6
		c0,0.2,0.1,0.4,0.1,0.6s0,0.5,0,0.8l0,0v2.1c0,0.3,0,0.7,0,1.2l0,0v0.5h-0.5h-1.4l-1.3,0.2c-0.2,0-0.5,0.1-0.9,0.1l0,0
		c-0.6,0.1-1.2,0.3-2,0.5l0,0h-0.1c0,0-0.1,0-0.1-0.1l0,0v-0.3l0.1-0.5c0.1-0.5,0.1-1,0.1-1.5l0,0c0-0.1,0-0.2,0-0.3s0-0.3,0-0.5
		l0,0c0-0.2,0-0.4,0-0.7c0-0.3,0-0.5-0.1-0.7l0,0v-0.1c0-0.1,0.1-0.2,0.2-0.3c0.1-0.1,0.2-0.1,0.4-0.1l0,0h0.2
		c0.2,0,0.3-0.1,0.4-0.2l0,0c0.1,0,0.2,0,0.3-0.1s0.2-0.1,0.3-0.1l0,0c0,0,0.1-0.1,0.3-0.2l0,0c0.1-0.1,0.2-0.1,0.2-0.1l0,0
		c0.6-0.2,1.1-0.2,1.5-0.3l0,0l0.5-0.1c0.5-0.1,1-0.1,1.5-0.1l0,0c0.1,0,0.3,0,0.6-0.1l0,0c0.1,0,0.2,0,0.2,0.1l0,0
		c0,0.1-0.1,0.1-0.2,0.1l0,0L169.6,343.1z M176.5,347.9C176.5,347.9,176.4,347.9,176.5,347.9c-0.1,0-0.1,0-0.2,0l0,0
		c-0.1,0-0.2,0-0.1,0.1l0,0c0,0.1,0,0.1,0.1,0.1l0,0c0,0,0.1,0.1,0.1,0.2l0,0c0,0,0,0.1,0.1,0.2l0,0c0.3,0.2,0.5,0.4,0.6,0.7l0,0
		c0.1,0.1,0.1,0.1,0.2,0.1l0,0c0.1,0,0.2,0.1,0.2,0.1c0.1,0,0.2,0,0.3,0.1l0,0c0.2,0.1,0.3,0.1,0.4,0.1l0,0c0.2,0,0.3,0,0.4,0l0,0
		c0.3-0.1,0.6-0.2,0.9-0.3l0,0l1.2-0.2c0.7-0.1,1.1-0.2,1.3-0.3l0,0c0.1,0,0.2-0.1,0.2-0.2l0,0c0.1-0.1,0.2-0.2,0.3-0.2l0,0
		c0.2,0,0.3,0,0.3-0.1l0,0c0,0,0.1-0.1,0.1-0.2s0.1-0.1,0.2,0l0,0l0,0c0.1,0,0.2-0.1,0.2-0.2c0.1-0.1,0.1-0.1,0.2-0.2l0,0l-0.3-0.3
		c0,0-0.1-0.1-0.2-0.2c-0.1-0.1-0.2-0.1-0.3-0.2l0,0l-1.3-0.1l-1.1,0.1c-0.2,0-0.5,0.1-1,0.2l0,0l-0.7,0.2l-0.5,0.1
		c-0.1,0-0.2,0.1-0.3,0.1s-0.2,0-0.4,0l0,0c-0.3,0-0.6,0-0.8,0.1l0,0C176.5,347.7,176.4,347.8,176.5,347.9L176.5,347.9z M170.3,350
		c0,0.2,0.1,0.4,0.1,0.5l0,0c0,0.1,0.1,0.2,0,0.3c0,0.1,0,0.2,0,0.2l0,0c0.1,0.5,0.1,0.8,0.1,1.1l0,0v0.8c0,0.3,0,0.5,0,0.6l0,0
		c0,0.1,0,0.2-0.2,0.2l0,0l-1.3,0.1c-0.9,0.2-1.5,0.3-2,0.4l0,0c-0.2,0-0.4,0.1-0.6,0.2c-0.2,0-0.4,0.1-0.6,0.2l0,0
		c-0.3,0.1-0.8,0.2-1.5,0.4l0,0l-0.4,0.1c-0.1,0-0.1,0-0.1-0.1l0,0c0-0.1,0-0.3,0-0.5s0-0.5,0-0.8l0,0v-0.2c0-0.2,0-0.4,0.1-0.5
		c0-0.2,0-0.3,0.1-0.4l0,0c0-0.3,0-0.6,0-0.8l0,0v-0.1c0,0,0,0,0.1,0l0,0c0.1,0,0.2-0.1,0.4-0.2c0.1-0.1,0.2-0.2,0.3-0.2l0,0
		c0.2-0.2,0.4-0.3,0.6-0.3l0,0c0.5,0,1-0.2,1.8-0.3l0,0c0.2,0,0.5-0.1,0.8-0.2l0,0c0.1,0,0.2,0,0.4,0l0,0l0,0
		c0.1-0.1,0.2-0.1,0.4-0.2c0.2,0,0.3-0.1,0.4-0.1l0,0c0.1,0,0.2-0.1,0.3-0.1s0.2-0.1,0.3-0.1l0,0c0-0.1,0.1-0.1,0.1-0.1l0,0
		c0-0.1,0.1-0.1,0.2-0.2c0.1-0.1,0.1-0.1,0.2-0.2l0,0c0,0,0.1-0.1,0.2,0c0,0,0.1,0.1,0.1,0.2l0,0L170.3,350L170.3,350z M177.2,358.2
		c0-0.1,0-0.3-0.1-0.5l0,0c0,0,0,0.1,0,0.2l0,0C177.1,358,177.2,358.1,177.2,358.2L177.2,358.2z M233.9,358.2h-0.2
		c-0.1,0-0.1,0-0.2-0.1c0,0,0-0.1,0-0.2l0,0c-0.1-0.1-0.2-0.1-0.2-0.1l0,0v-0.4c0,0,0,0,0.1,0l0,0c0.1,0,0.1-0.1,0.2-0.2l0,0
		c0.1,0,0.1-0.1,0.1-0.1c0-0.1,0-0.1-0.1-0.1l0,0l-0.1-0.1v-0.1l0,0v-0.2h-0.1l0.4-0.5c0,0,0.1,0,0,0c0,0,0,0-0.1,0l0,0
		c-0.1-0.2-0.1-0.4,0-0.4l0,0c0.5-0.4,0.7-0.6,0.6-0.5l0,0l0.5-0.4h-0.1c-0.1,0-0.4,0.1-0.8,0.3c-0.4,0.2-0.8,0.3-1.1,0.3l0,0
		c-0.5,0-0.9,0-1.1-0.1l0,0h-1.3c-0.5,0-1,0-1.5,0.1c-0.6,0-0.9,0.1-1.2,0.1l0,0c-0.6,0.1-1,0.1-1.3,0.1l0,0c-0.6,0.1-1.3,0.1-2,0.1
		l0,0l-3.5,0.1H219c-0.1,0-0.2-0.1-0.2-0.2l0,0c0-0.1,0-0.2,0-0.4c0-0.1,0-0.2,0-0.4l0,0c0,0,0-0.2,0.1-0.4l0,0l0.1-0.8h1.1h0.9
		c0.6-0.1,1.1-0.1,1.5-0.2l0,0c0.2,0,0.6,0,1-0.1l0,0l0.3-0.1c0.2,0,0.3-0.1,0.5-0.2l0,0l0.3-0.2c0.1,0,0.2-0.1,0.3-0.1
		c0.1-0.1,0.2-0.1,0.3-0.2l0,0c0-0.1,0.2-0.1,0.4-0.1l0,0c-0.1-0.1-0.1-0.2,0-0.3l0,0c0,0,0-0.1,0.1-0.1c0-0.1,0.1-0.1,0.2-0.1l0,0
		c0.1,0,0.1,0,0.2,0h0.1l0,0c0-0.1,0.1-0.1,0.1-0.1l0,0l0.7-0.1c0.1,0,0.3-0.1,0.4-0.1c0.2,0,0.3-0.1,0.5-0.1l0,0
		c0.1,0,0.2,0,0.2-0.1s0-0.1,0-0.2l0,0c0,0,0-0.1,0-0.2l0,0v-0.1c0-0.1,0-0.1-0.1-0.1l0,0l-0.4-0.3l0.2-0.1l-0.3-0.3l0.1-0.1
		c0.1-0.1,0.2-0.1,0.2-0.2l0,0c0.1,0,0.1,0,0.1-0.1l0,0c-0.1,0-0.1,0-0.1,0l0,0h-0.1l0,0c0,0-0.1-0.1-0.1-0.2
		c-0.1-0.1-0.2-0.1-0.3-0.1l0,0l0,0l0,0l0,0l-0.2-0.1l-0.5-0.2c-0.2-0.1-0.3-0.1-0.4-0.2l0,0l-0.3-0.1c0,0,0,0,0-0.1s0-0.1-0.2-0.1
		l0,0c-0.1-0.2-0.2-0.2-0.4-0.2l0,0c-0.1,0-0.2,0.1-0.4,0.2l0,0c0,0.1-0.1,0.2-0.2,0.2l0,0h-0.3c-0.3,0-0.6,0-1.1,0.1l0,0h-0.7
		c-0.8,0-1.4,0.1-1.8,0.1l0,0c-0.4,0-0.8,0.1-1.1,0c-0.3,0-0.6,0-0.8,0l0,0v-0.1l0.1-0.3c0-0.2,0-0.5,0-0.9l0,0v-0.6
		c0.1-0.3,0.1-0.5,0.1-0.6l0,0c0-0.1,0-0.2,0.1-0.2c0.1-0.1,0.1-0.1,0.2-0.1l0,0l0.7,0.1l0.3-0.1h0.8h0.8c0.1,0,0.3,0,0.4,0
		c0.1,0,0.2,0,0.3,0l0,0c0.3,0,0.7-0.1,1.2-0.2l0,0c0.1,0,0.3,0,0.5,0s0.4,0,0.7-0.1l0,0c0.3,0,0.5-0.1,0.8-0.2
		c0.2-0.1,0.4-0.1,0.6-0.2l0,0l0.4-0.2c0,0,0.1-0.1,0.3-0.1c0.1,0,0.2-0.1,0.3-0.2l0,0l0,0l0,0l0,0c0.4-0.2,0.6-0.3,0.7-0.4l0,0
		c0.1-0.1,0.2-0.2,0.4-0.2s0.3-0.1,0.4-0.1l0,0c0.2,0,0.4,0,0.6-0.1l0,0c0.3-0.1,0.5-0.2,0.6-0.4l0,0c0.2-0.1,0.2-0.2,0.2-0.3l0,0
		v-0.1c0.1-0.1,0.2-0.3,0.3-0.5l0,0c0-0.1,0.1-0.1,0.1-0.2c0.1-0.1,0.1-0.2,0-0.3l0,0l0.1-0.1l0,0c-0.2,0-0.2,0-0.2-0.1l0,0l0.1-0.3
		c0,0,0.1,0,0.1-0.1v-0.1l0,0c0,0,0-0.1-0.1-0.2l0,0v-0.2v-0.1c0-0.1,0-0.2-0.1-0.3c-0.1-0.1-0.2-0.1-0.3-0.2l0,0
		c-0.2,0-0.5-0.1-0.9-0.1l0,0c-0.2,0-0.6-0.1-1.1-0.1l0,0l-1.5,0.1c-0.9,0.1-1.5,0.2-1.9,0.2l0,0c-0.4,0-0.9,0.1-1.7,0.2l0,0
		l-2.1,0.2l-1.2,0.1l-1.1,0.1c0-0.1,0-0.2,0.1-0.4l0,0v-0.2v-0.1c0-0.1,0-0.2,0.1-0.5l0,0v-0.1V340l0,0c0-0.2,0-0.3,0-0.4l0,0v-0.4
		c0-0.3-0.1-0.8-0.1-1.4l0,0c0-0.3,0-0.5,0.1-0.8c0-0.3,0-0.5,0-0.8l0,0c0-0.2,0-0.6-0.1-1l0,0c0-0.3,0-0.9,0-1.6l0,0
		c0-0.2,0-0.5,0-0.8s0-0.6,0-0.8l0,0c0-0.3-0.1-0.6-0.2-0.9l0,0c0-0.1-0.1-0.2-0.2-0.2l0,0l-0.2-0.1c-0.1-0.1-0.2-0.2-0.3-0.2l0,0
		c-0.1,0-0.3-0.1-0.4-0.2l0,0c-0.1-0.1-0.2-0.1-0.4-0.1l0,0c-0.2,0-0.3,0.1-0.5,0.3l0,0c0,0.1-0.1,0.1-0.2,0.2l0,0
		c-0.3,0.1-0.5,0.2-0.7,0.2l0,0c-0.2,0-0.2,0.1-0.3,0.2l0,0c0,0,0,0.1-0.1,0.1l0,0c0,0.1-0.1,0.1-0.2,0.1l0,0l0.2,0.4l0,0l-0.3-0.1
		c0,0.1,0.1,0.1,0.1,0.2l0,0l-0.5,0.2c0,0.1,0,0.1,0.1,0.2c0,0.1,0,0.2,0,0.3l0,0l-0.7-0.1c-0.1,0.1-0.2,0.2-0.4,0.2l0,0
		c-0.1,0-0.1,0-0.1,0l-0.1,0.1l0,0v0.2c0,0.2,0,0.2,0.1,0.3l0,0c0,0,0,0,0,0.1v0.1l0,0l-0.3,0.2l0.1,0.4c0,0,0.1,0.1,0.2,0.2
		c0.1,0.1,0.2,0.2,0.3,0.2l0,0c0.2,0.1,0.2,0.2,0.3,0.4l0,0c0.1,0.2,0.2,0.6,0.2,1l0,0c0,0.1,0,0.2-0.1,0.4c0,0.2-0.1,0.3-0.1,0.4
		l0,0l-0.1,1.4v1c0,0.2,0,0.4,0,0.7l0,0l-0.1,1.2l-0.3,1.2c0,0.1-0.1,0.2-0.2,0.2l0,0c-0.2,0-0.3,0.1-0.6,0.1
		c-0.2,0.1-0.5,0.1-0.8,0.1l0,0c-0.2,0-0.4,0-0.6,0.1c-0.3,0-0.5,0-0.6,0l0,0l-0.9,0.2l-1.7,0.2c-0.3,0-0.9,0.1-1.7,0.2l0,0
		c0,0-0.1,0-0.2,0c-0.1,0-0.1,0-0.2,0l0,0l-1.3,0.1h-0.6c-0.1,0-0.2,0-0.2,0s-0.1-0.1-0.1-0.2l0,0l0.1-0.3v-0.5v-0.8v-0.3V341h0.2
		c0-0.1-0.1-0.2-0.1-0.3l0,0c0-0.1,0-0.2,0-0.3s0-0.2,0-0.2l0,0c0-0.1-0.1-0.2-0.2-0.3l0,0h0.1l-0.1-0.4v-0.4l-0.5-1.4
		c0,0,0-0.1-0.1-0.1l0,0c-0.1-0.1-0.4-0.3-0.7-0.4l0,0l-0.2-0.1c-0.3,0-0.5-0.1-0.7-0.3l0,0c-0.3-0.2-0.5-0.3-0.7-0.2l0,0
		c-0.1,0-0.2,0-0.4,0l0,0c-0.3-0.1-0.5-0.1-0.6-0.2l0,0h-0.1c-0.1,0-0.2,0-0.3,0.1c-0.1,0-0.2,0.1-0.2,0.1l0,0
		c-0.1,0.1-0.1,0.1-0.1,0.2l0,0c0.1,0.3,0.1,0.6,0.1,0.8l0,0c0,0.1,0,0.2,0,0.4l0,0c-0.1,0.3-0.1,0.6-0.1,0.8l0,0c0,0.6,0,1.4,0,2.5
		l0,0c0,0.4,0,0.8,0,1l0,0l0.1,0.4c0,0.4-0.1,0.8-0.3,1.1l0,0c0,0,0,0.1,0,0.2l0,0c0,0.3,0.1,0.5,0.4,0.8l0,0
		c0.3,0.3,0.4,0.5,0.4,0.8l0,0c0,0.4,0.1,0.7,0.3,0.9l0,0c0.1,0.2,0.2,0.3,0.2,0.4l0,0c0.1,0.1,0.2,0.1,0.3,0.2
		c0.1,0,0.1,0.1,0.2,0.2l0,0c0,0,0.1,0.1,0.3,0.2c0.1,0.1,0.2,0.2,0.2,0.3l0,0c0,0,0,0,0.1,0.1l0,0c0.1,0.1,0.2,0.1,0.4,0.1l0,0h0.4
		l-0.1,0.2c0.2,0.1,0.3,0.1,0.4,0.1l0,0c0.1,0,0.3,0,0.4-0.1l0,0c0,0,0.1-0.1,0.2-0.2c0.1-0.1,0.3-0.1,0.5-0.1l0,0l0,0l0,0l0,0
		c0.1-0.1,0.3-0.2,0.5-0.2l0,0l0.4-0.1c0.5,0,0.9,0,1.4,0l0,0h0.6c0.3,0,0.5,0,0.6,0l0,0c0.1,0,0.3,0,0.6,0s0.5-0.1,0.7-0.2l0,0l0,0
		c0.1,0.1,0.2,0.1,0.4,0.1l0,0c0.2,0,0.4,0,0.5,0l0,0l0.9-0.1c0.1,0,0.3,0,0.4,0c0.1,0,0.3,0,0.5,0l0,0c0.2,0,0.5,0,1-0.1l0,0h1.3
		c0.1,0,0.1,0,0.1,0.1l0,0v0.1c0,0.3,0,0.7-0.1,1.2l0,0v0.3c0,0.1-0.1,0.2-0.2,0.3l0,0l0.1,0.1l0,0c0.1,0.1,0.1,0.1,0,0.2
		c0,0.1-0.1,0.1-0.1,0.1l0,0c-0.4,0-1,0.1-1.8,0.2l0,0c-1.1,0.1-1.9,0.1-2.5,0.2l0,0l-3.4,0.4h-0.2l-1.3,0.2c-0.2,0-0.3-0.1-0.3-0.2
		l0,0h-0.1c-0.1-0.1-0.2-0.2-0.4-0.2s-0.3,0-0.4,0l0,0c-0.3,0.1-0.5,0.2-0.5,0.2l0,0c-0.2,0-0.2,0.1-0.2,0.3l0,0
		c0,0.1,0,0.2,0.1,0.2l0,0v0.1v0.1l0,0c0,0,0,0-0.1,0c0,0-0.1,0-0.1,0.1l0,0h-0.2v0.2c0,0,0,0,0,0.1c0,0,0,0,0,0.1l0,0l-0.2-0.1
		c-0.1,0.1-0.2,0.2-0.3,0.3c-0.1,0.1-0.2,0.1-0.3,0.2l0,0c0,0,0,0.1,0.1,0.2c0,0.1,0.1,0.1,0.1,0.2l0,0l0,0l0,0l0,0
		c0.3,0.1,0.4,0.3,0.4,0.5l0,0l-0.2,0.3l-0.1,0.2c-0.1,0.1-0.2,0.2-0.1,0.4l0,0h0.1h0.1l0,0c0.3,0.3,0.5,0.5,0.5,0.8l0,0
		c0,0.2,0.1,0.3,0.2,0.4l0,0c0.1,0,0.2,0,0.3,0.1l0,0h0.2c0,0,0.1,0,0.1-0.1c0.1,0,0.1,0,0.2,0l0,0c0.1,0.1,0.2,0.1,0.3,0l0,0
		c0,0,0.1-0.1,0.2-0.1c0.1,0,0.2-0.1,0.2-0.1l0,0l0.6-0.1c0.3,0,0.5,0,0.7,0s0.3-0.1,0.5-0.1l0,0l0.9-0.1h0.3c0.1,0,0.3,0,0.5-0.1
		c0.2,0,0.4,0,0.5,0l0,0h0.2l1-0.1l1.5,0.1h0.7c0.1,0,0.2,0,0.3-0.1s0.2,0,0.4,0l0,0h0.1l0,0h0.4l0.1,0.1c0,0,0,0,0-0.1l0,0
		c0.1-0.1,0.1-0.1,0.2-0.1l0,0l0.6,0.1c0.1,0.1,0.2,0.1,0.2,0.2l0,0l0.2,2.1c0,0.1,0,0.2-0.2,0.2l0,0h-0.7l-2,0.2l-3,0.2l-1.9,0.2
		l-2.3,0.2c-0.2,0-0.5,0-0.8,0l0,0c-0.1,0-0.1,0-0.2-0.1c0,0-0.1-0.1-0.1-0.2l0,0v-0.3c0-0.2-0.1-0.2-0.2-0.3l0,0l0,0l0,0l0,0
		c0-0.1-0.1-0.1-0.2-0.1l0,0c0,0-0.1,0-0.2,0c-0.1,0-0.2,0-0.2,0l0,0c-0.1,0-0.3-0.1-0.4-0.1c-0.1,0-0.3-0.1-0.4-0.1l0,0
		c-0.2,0-0.4,0-0.5,0.1l0,0c0,0-0.1,0-0.2,0.1l0,0c0,0-0.1,0.1-0.2,0.2l0,0c-0.1,0.1-0.3,0.3-0.5,0.6l0,0c0,0,0,0,0,0.1l0,0
		c0,0.2,0,0.4,0.1,0.4l0,0c0.1,0.1,0.3,0.3,0.6,0.6l0,0l0.2,0.2c-0.2,0.1-0.3,0.3-0.4,0.4l0,0c0,0,0,0.1,0,0.2s0,0.1,0.1,0.1l0,0
		c0.1,0,0.2,0.1,0.2,0.1s0,0.1,0,0.2l0,0c-0.1,0.1-0.1,0.2-0.1,0.4l0,0c0,0,0,0.1,0.1,0.1c0,0.1,0,0.1,0,0.1l0,0
		c0,0,0.1,0.1,0.1,0.2c0,0,0.1,0.1,0.1,0.2l0,0v0.1c0,0.1,0.1,0.2,0.2,0.3l0,0c0.5,0.3,1,0.4,1.5,0.4l0,0h0.1c0.2,0,0.4,0.1,0.5,0
		l0,0l1.6-0.1l1.1-0.1c0.3,0,0.5-0.1,0.7,0c0.2,0,0.4,0,0.5,0l0,0c0.2,0,0.3,0,0.4-0.1l0,0c0,0,0.1,0,0.2,0l0,0h0.5
		c0.2,0,0.4,0,0.5,0l0,0h0.3c0.3,0,0.5,0.1,0.6,0.1l0,0c0.1,0,0.3,0,0.6-0.1l0,0c0.1,0,0.3,0,0.4,0c0.1,0,0.2,0,0.3,0l0,0
		c0,0,0.1,0,0.2,0h0.1l0,0h0.2c0.2,0,0.4,0,0.5,0l0,0c0.1-0.1,0.2-0.1,0.3-0.1s0.2,0.1,0.3,0.1l0,0c0.2,0.2,0.4,0.2,0.5,0.2l0,0h0.1
		c0.1,0,0.2,0.1,0.3,0.1l0,0c0.8,0.1,1.4,0.1,1.8,0.1l0,0h0.1l1.1,0.1l0.2-0.1c0.1-0.1,0.1-0.1,0.2,0l0,0c0,0,0,0,0.1,0.1l0,0l0,0
		c0.1,0,0.2,0,0.3,0s0.1,0,0.2,0l0,0c0.1,0,0.2,0,0.4,0l0,0h0.1c0,0.1,0,0.1,0.1,0.1l0,0c0.1,0,0.2,0,0.3-0.1c0.1,0,0.2,0,0.3,0l0,0
		c0,0,0.1,0.1,0.2,0.1l0,0c0.1,0,0.2,0,0.3-0.1l0,0c0.1,0.1,0.1,0.1,0.2,0.1l0,0c0.2,0,0.5,0,1,0l0,0l1.6,0.1c0.4,0,0.7,0,1,0l0,0
		c0.2,0,0.4,0,0.6,0s0.5,0,0.6,0l0,0c0.2,0,0.5,0,0.9-0.1l0,0c0.3,0,0.7,0,1.2-0.1l0,0l0.8-0.1l0.6-0.1h0.2v-0.1h0.1l1-0.1l0.5-0.2
		c0.4-0.1,0.6-0.2,0.6-0.2l0,0l0.4-0.2c0.2,0,0.2-0.1,0.2-0.3l0,0l0.6-0.1h0.1c0-0.1,0.1-0.2,0.2-0.2c0.1,0,0.2-0.1,0.2-0.1l0,0
		c0.1,0,0.3-0.1,0.6-0.1l0,0l0.6-0.3l0.4-0.1L233.9,358.2z M214.6,332.4L214.6,332.4c-0.1,0-0.2,0-0.2-0.1l0,0l0,0v-0.1l0,0
		C214.5,332.3,214.6,332.3,214.6,332.4L214.6,332.4z M266.7,342.5c0,0.1-0.1,0.1-0.2,0.1l0,0h-1h-1h-1.6h-1.1h-1
		c-0.1,0-0.2,0-0.2-0.1c0,0,0-0.1,0-0.2l0,0c0-0.2,0-0.4,0-0.7l0,0c0-0.2,0-0.5-0.1-0.9l0,0v-1v-0.3c0-0.1,0-0.3,0-0.6l0,0
		c0,0,0-0.1,0.1-0.1l0,0c0.1-0.1,0.3-0.2,0.5-0.3c0.2-0.1,0.4-0.2,0.6-0.2l0,0h0.1l1-0.5l1.6-0.7c0.2-0.1,0.8-0.3,1.7-0.6l0,0
		c0.5-0.2,0.9-0.4,1.2-0.5l0,0c0.1-0.1,0.4-0.2,0.9-0.5l0,0c0.2-0.1,0.4-0.3,0.7-0.5l0,0c0.2-0.1,0.4-0.3,0.5-0.4l0,0
		c0.3-0.2,0.4-0.3,0.5-0.4l0,0c0,0,0.2-0.2,0.3-0.5l0,0c0.2-0.3,0.2-0.5,0.1-0.7l0,0l-0.2-0.2c0-0.1-0.1-0.1-0.2-0.1l0,0
		c0,0-0.1,0-0.2,0l0,0c0,0-0.1,0-0.2,0s-0.2,0-0.3,0l0,0c-0.1,0-0.2,0.1-0.3,0.1s-0.1,0.1-0.2,0.1l0,0c-0.2,0.1-0.5,0.3-0.9,0.5l0,0
		c-0.4,0.2-0.6,0.3-0.7,0.6l0,0c-0.1,0.1-0.1,0.1-0.2,0.1l0,0c-0.2,0.1-0.4,0.1-0.5,0.1l0,0h-0.1c-0.1,0-0.3,0-0.4,0.1l0,0
		c-0.2,0.1-0.4,0.2-0.5,0.2l0,0c-0.2,0-0.3,0.1-0.5,0.3l0,0l-0.2,0.1c-0.2,0.1-0.4,0.2-0.7,0.3l0,0c-0.3,0.2-0.5,0.2-0.6,0.3l0,0
		c-0.1,0.1-0.3,0.2-0.5,0.3c-0.2,0.1-0.4,0.2-0.6,0.3l0,0c-0.1,0-0.3,0.2-0.8,0.5l0,0c-0.1,0-0.2,0.1-0.3,0.2
		c-0.1,0.1-0.2,0.1-0.3,0.2l0,0c-0.2,0.1-0.4,0.2-0.7,0.4l0,0c-0.1,0-0.2,0.1-0.5,0.2c-0.2,0.1-0.4,0.2-0.5,0.3l0,0l-0.4,0.2
		c-0.2,0.1-0.3,0.2-0.3,0.4l0,0v0.1v0.1l0,0l-0.3,0.4l-0.3,0.5l-0.2,0.4c0,0,0,0.1,0,0.2l0,0c0,0.1,0.1,0.2,0.3,0.2l0,0
		c0,0,0.1,0,0.2,0c0,0,0.1,0,0.2,0l0,0c0.1,0,0.3,0,0.4,0l0,0h0.1c0,0,0,0,0,0.1l0,0l0.1,0.5c0,0.2-0.1,0.4-0.2,0.8l0,0l-0.4,1.6
		l-0.1,0.1c-0.2,0-0.4,0.1-0.6,0.1l0,0c-0.2,0.1-0.6,0.1-1.2,0.2l0,0l-1.4,0.3l-1.4,0.1h-0.6c-0.1,0-0.2,0-0.2-0.1l0,0
		c0-0.1,0-0.2-0.1-0.2l0,0l-0.3-0.2l-0.1-0.1l-0.7-0.2c0,0-0.1,0-0.2,0l0,0c0,0-0.1,0.1-0.3,0.2l0,0c-0.1,0.1-0.2,0.2-0.4,0.3
		c-0.2,0.1-0.3,0.2-0.4,0.2l0,0c-0.2,0.2-0.4,0.2-0.4,0.2l0,0c0,0-0.1,0.1-0.4,0.4l0,0c-0.3,0.2-0.4,0.4-0.4,0.6l0,0v0.1
		c0,0.1,0,0.3,0.1,0.4l0,0c0,0,0.1,0.1,0.2,0.1c0.1,0.1,0.1,0.2,0,0.3l0,0v0.1l0,0c0,0.3,0.1,0.4,0.2,0.5l0,0
		c-0.2,0.1-0.2,0.2-0.1,0.3l0,0c0,0.1,0,0.2,0,0.3l0,0c-0.1,0.2-0.1,0.3,0,0.4l0,0c0.2,0.1,0.4,0.3,0.6,0.4l0,0
		c0.1,0.1,0.2,0.1,0.3,0.1l0,0c0.1,0,0.2,0,0.4,0l0,0c0,0,0.1,0,0.2,0c0,0,0.1,0,0.2,0l0,0l0.8-0.4c0.3-0.1,0.5-0.2,0.8-0.3l0,0h0.5
		c0.3,0,0.6,0,0.9-0.1s0.5-0.1,0.7-0.1l0,0c0.3-0.1,0.7-0.1,1.1,0l0,0l1,0.2c0.1,0,0.2,0.1,0.2,0.1s0,0.1,0,0.2l0,0v0.1l-0.2,1.7
		c0,0.5,0,0.9,0,1.1l0,0c0,0.1,0.1,0.2,0.2,0.4c0.1,0.2,0.1,0.3,0.1,0.4l0,0v0.2v0.1c0,0.1,0,0.2,0.1,0.3s0.1,0.1,0.2,0.1l0,0
		c0.1,0,0.2,0,0.2,0.1l0,0c0,0,0.1,0,0.1,0.1c0,0,0.1,0.1,0.2,0.1l0,0c0.1,0,0.1,0,0.2,0.1c0.1,0,0.1,0,0.2,0.1l0,0
		c0.2,0.1,0.3,0.2,0.5,0.4l0,0c0.1,0.1,0.2,0.1,0.3,0l0,0l0.4-0.4c0.1-0.1,0.2-0.2,0.3-0.3c0-0.2,0-0.2,0.1-0.3l0,0
		c0,0,0-0.2,0.1-0.3c0-0.2,0-0.3,0-0.5l0,0v-0.2c0-0.2,0-0.3,0-0.4l0,0l0.1-0.5c0-0.4,0.1-0.6,0.1-0.8l0,0c0-0.5,0-0.9,0-1.1l0,0
		c0-0.1,0.1-0.2,0.2-0.2l0,0c0.6,0,1,0,1.3,0.1l0,0c0.1,0,0.3,0,0.5,0.1c0.2,0,0.4,0.1,0.5,0.1l0,0c0.6,0,1,0,1.3,0.1l0,0h1.3
		c0.4,0,0.9,0,1.6-0.1l0,0c0.2,0,0.5,0,0.9-0.1l0,0l1.5-0.2c0.5-0.1,0.7-0.2,0.9-0.3l0,0c0.2-0.1,0.6-0.2,1.2-0.5l0,0
		c0.2-0.1,0.4-0.2,0.6-0.2l0,0c0.3-0.1,0.5-0.2,0.6-0.4l0,0c0.3-0.3,0.4-0.4,0.5-0.4l0,0c0.1-0.1,0.2-0.1,0.3-0.2
		c0.1-0.1,0.2-0.2,0.3-0.3l0,0c0,0,0.1-0.1,0.3-0.3l0,0c0.3-0.3,0.5-0.5,0.6-0.8l0,0c0.1-0.2,0.2-0.3,0.4-0.4l0,0
		c0.1-0.1,0.1-0.2,0.1-0.2l0,0c0-0.1,0-0.1,0-0.2v-0.1l0,0c0.3-0.3,0.4-0.5,0.4-0.5l0,0c0.1-0.1,0.1-0.1,0.1-0.2s0-0.1-0.1-0.1l0,0
		c-0.2,0-0.4-0.1-0.4-0.1l0,0l-0.8,0.1l-1.4,0.1c-0.6,0-1,0-1.3,0l0,0c-0.2,0-0.4,0-0.6,0.1c-0.2,0-0.5,0-0.8,0l0,0
		c-0.5,0-1,0.1-1.3,0c-0.4,0-0.7,0-0.9,0l0,0c-0.1,0-0.2,0-0.3,0.1c-0.1,0-0.2,0-0.3,0l0,0c-0.4,0-0.6,0-0.8,0l0,0
		C266.8,342.6,266.7,342.6,266.7,342.5L266.7,342.5z M242,343.7L242,343.7h0.2l0,0c0.2-0.2,0.5-0.3,0.9-0.5l0,0
		c0.2-0.1,0.4-0.2,0.5-0.3l0,0c0,0,0.1-0.1,0.2-0.2l0,0c0.3-0.1,0.5-0.2,0.5-0.2l0,0c0.1-0.1,0.3-0.1,0.4-0.2c0.1,0,0.2-0.1,0.4-0.1
		l0,0c0.2-0.1,0.3-0.2,0.3-0.3l0,0c0-0.1,0.1-0.2,0.3-0.4l0,0c0.1,0,0.1,0,0.2-0.1c0.1,0,0.2,0,0.2,0l0,0c0.1,0,0.1,0,0.2-0.1l0,0
		c0,0,0-0.1,0.1-0.2l0,0l0.4-0.4l0.2-0.2c0-0.1,0.1-0.2,0.1-0.2l0,0c0-0.2-0.1-0.2-0.2-0.3l0,0l-0.9-0.4c-0.3-0.1-0.6-0.2-0.9-0.3
		c-0.3,0-0.7-0.1-1.2-0.1l0,0c-0.2,0-0.6,0-1.1-0.1l0,0c-0.1,0-0.2,0-0.2-0.1l0,0c0-0.1-0.2-0.2-0.3-0.2c-0.2-0.1-0.3-0.1-0.3-0.2
		l0,0l-0.3-0.1c0,0-0.1-0.1-0.2-0.1c-0.1,0-0.2,0-0.3,0l0,0l-0.4,0.2c-0.2,0-0.4,0.1-0.5,0.2l0,0l-0.5,0.4c-0.1,0.1-0.2,0.2-0.3,0.3
		l0,0l-0.5,0.6c0,0.1-0.1,0.2-0.1,0.2l0,0c0,0.1,0,0.2,0.1,0.3c0,0.1,0.1,0.2,0.2,0.2l0,0l0.7,0.5c0.2,0.1,0.2,0.3,0.1,0.4l0,0
		c0,0,0,0.1,0,0.2l0,0c0,0.1,0,0.1,0,0.2s0,0.2,0,0.3l0,0l0,0c0,0,0,0.2,0.1,0.3c0.1,0.2,0.1,0.3,0.2,0.4l0,0
		c0.1,0.1,0.2,0.2,0.5,0.2l0,0c0.1,0,0.2,0,0.4,0.1c0.2,0,0.3,0.1,0.5,0.2l0,0L242,343.7z M239.7,350.8l0.4,0.3
		c0.1,0.1,0.2,0.2,0.2,0.2l0,0c0,0.1,0.1,0.1,0.2,0.1l0,0l0.8-0.3c0,0,0.1-0.1,0.2-0.1c0.1-0.1,0.2-0.1,0.3-0.1l0,0
		c0.1,0,0.2,0,0.3-0.1s0.1-0.1,0.1-0.2l0,0l0.2-0.1l0.4-0.2l0.4-0.4l0.9-0.5c0.2-0.1,0.3-0.2,0.3-0.3l0,0c0.1-0.1,0.1-0.2,0.2-0.3
		l0,0c0,0,0.1-0.1,0.2-0.2c0.1-0.1,0.2-0.2,0.3-0.2l0,0l0,0l0,0l0,0c0.1,0,0.3-0.1,0.5-0.3l0,0c0.1,0,0.2-0.2,0.3-0.4l0,0l-0.4-0.5
		l0,0h-0.2c-0.2-0.1-0.4-0.2-0.6-0.2l0,0c-0.5,0-0.8,0-1.1,0l0,0c-0.2,0-0.4,0.1-0.6,0.1s-0.4,0.1-0.6,0.1l0,0h-0.1
		c-0.2,0-0.3-0.1-0.4-0.2l0,0c-0.1-0.1-0.2-0.2-0.3-0.3c-0.1-0.1-0.2-0.1-0.2-0.2l0,0c0,0-0.1,0-0.2,0c-0.1,0-0.2,0-0.2,0.1l0,0
		c-0.1,0.1-0.2,0.1-0.3,0.1l0,0h-0.3c-0.2,0-0.3,0.1-0.3,0.2l0,0c-0.1,0.1-0.2,0.1-0.3,0.2l0,0c-0.2,0.1-0.3,0.2-0.4,0.4l0,0v0.1
		c-0.1,0.2-0.3,0.6-0.5,1.2l0,0v0.1c0,0.1,0,0.2,0.1,0.3c0.1,0.1,0.2,0.2,0.3,0.2l0,0c0.2,0,0.3,0.2,0.4,0.4l0,0
		c0.1,0.1,0.1,0.2,0.1,0.3l0,0c0,0.1,0,0.2-0.1,0.3l0,0C239.9,350.5,239.9,350.6,239.7,350.8L239.7,350.8z M255.5,359.2L255.5,359.2
		c-0.1,0.1-0.1,0.1-0.1,0.1l0,0h-0.1c-0.1,0-0.2,0.1-0.3,0.3l0,0v0.1c0,0,0,0.1,0.1,0.1l0,0l0.6,0.1c0.1,0,0.2,0,0.3,0
		s0.2,0,0.3,0.1l0,0c0.2,0.1,0.4,0.1,0.6,0.1l0,0c0.1,0,0.2,0,0.2,0l0,0c0,0,0.1,0,0.2,0s0.2,0,0.2-0.1l0,0h0.1l1.1,0.1l1.1,0.1
		c0.3,0,0.5,0,0.6,0l0,0c0.1,0,0.2-0.1,0.3-0.1s0.2,0,0.3-0.1l0,0h0.1c0.1,0,0.1,0,0.2-0.1l0,0c0.2-0.1,0.5-0.3,0.9-0.5l0,0
		c0.1,0,0.2-0.1,0.3-0.1c0.1-0.1,0.2-0.1,0.3-0.2l0,0c0.1,0,0.3-0.2,0.5-0.4l0,0l0.1-0.1c0.1,0,0.1,0,0.1,0l0,0l0.6-0.4
		c0.2-0.1,0.4-0.2,0.5-0.3l0,0c0.2-0.3,0.2-0.5,0.3-0.6l0,0c0.1-0.2,0.1-0.4,0.2-0.7l0,0l0,0c0.1-0.2,0.2-0.6,0.2-1.1l0,0
		c0.1-0.2,0.1-0.4,0-0.5l0,0v-0.2v-0.3l-0.1-0.5l-0.1-0.5c0,0,0-0.1-0.1-0.1l0,0l-0.2-0.3c-0.1-0.1-0.2-0.2-0.2-0.2l0,0
		c-0.4-0.1-0.6-0.2-0.6-0.2l0,0c-0.1,0-0.3-0.1-0.5-0.1c-0.2-0.1-0.4-0.1-0.5-0.1l0,0h-0.4c-0.5,0-0.8-0.1-1.1-0.1l0,0
		c-0.2,0-0.4,0-0.6,0s-0.3,0-0.5,0.1l0,0l-1.2,0.3l-1.5,0.3c-0.5,0.1-0.9,0.2-1.2,0.3l0,0c-0.2,0-0.4,0-0.5,0l0,0l-0.3-0.1h-0.1
		c-0.1,0-0.2,0.1-0.4,0.2l0,0c-0.1,0-0.2,0.1-0.2,0.1s-0.1,0.1-0.1,0.2l0,0l-0.1,0.1l-0.2,0.4c0,0,0,0.1-0.1,0.2
		c0,0.1-0.1,0.2-0.2,0.2l0,0l0,0l0,0l0,0v0.4c0,0.2,0.2,0.3,0.4,0.4l0,0l-0.1,0.2c0,0.1-0.1,0.3-0.2,0.5l0,0l-0.4,1.1v0.2
		c0,0.1,0,0.2,0,0.3s0,0.2,0,0.3l0,0v0.6l0,0c0,0.1,0.1,0.2,0.2,0.4c0.1,0.1,0.3,0.1,0.4,0.1l0,0v-0.1c0.1-0.1,0.2-0.2,0.4-0.1l0,0
		L255.5,359.2z M241,358.7c0.3-0.2,0.5-0.4,0.5-0.4l0,0c0.2-0.2,0.3-0.2,0.5-0.3l0,0c0.2,0,0.3-0.1,0.5-0.2l0,0c0,0,0.1-0.1,0.3-0.4
		l0,0l0.5-0.5l0.4-0.5l0.9-0.9c0.1-0.1,0.1-0.2,0.2-0.2c0-0.1,0.1-0.2,0.1-0.2l0,0c0.1-0.1,0.2-0.2,0.3-0.4c0.1-0.2,0.3-0.3,0.4-0.4
		l0,0c0.1-0.1,0.1-0.2,0.1-0.3l0,0c0,0,0-0.1,0.1-0.1c0-0.1,0-0.2-0.1-0.3l0,0c0-0.1-0.1-0.2,0-0.3l0,0l0.2-0.8c0-0.1,0-0.1,0-0.1
		l0,0h-0.1l0,0c-0.1,0-0.1,0-0.2,0c-0.1,0-0.1,0.1-0.2,0.1l0,0l-0.2,0.3l-0.4,0.3c-0.2,0.1-0.3,0.1-0.5,0.2c-0.2,0-0.3,0.1-0.5,0.2
		l0,0l-1.1,0.5c-0.3,0.2-0.6,0.3-0.7,0.3l0,0c-0.1,0-0.2,0-0.2,0s0-0.1,0-0.2l0,0l-0.1-0.3c-0.1-0.2-0.2-0.2-0.4-0.3l0,0
		c-0.2,0-0.4,0.1-0.5,0.2l0,0c-0.1,0-0.2,0.1-0.3,0.1c-0.1,0.1-0.2,0.1-0.2,0.2l0,0c-0.1,0.1-0.2,0.2-0.2,0.2
		c-0.1,0-0.2,0.1-0.2,0.1l0,0c-0.1,0-0.1,0.1-0.1,0.2l0,0v0.1c0,0.1-0.1,0.1-0.1,0.2l0,0c0,0.1-0.1,0.1-0.1,0.2s-0.1,0.1-0.2,0.2
		l0,0l-0.2,0.3c-0.1,0.1-0.2,0.2-0.2,0.4c0,0.2,0,0.3,0,0.5l0,0c0,0,0.1,0.1,0.2,0.2c0.1,0.1,0.1,0.1,0.2,0.1l0,0
		c0.2,0,0.3,0.1,0.4,0.2c0.1,0.1,0.2,0.2,0.3,0.4l0,0c0.1,0.1,0.1,0.2,0.2,0.3c0.1,0.1,0.1,0.2,0.2,0.3l0,0c0,0.1,0,0.2,0,0.3l0,0
		c0,0.1,0,0.2,0.1,0.2l0,0c0,0,0.1,0.1,0.3,0.1l0,0C240.8,358.4,240.9,358.5,241,358.7L241,358.7z M255.8,358.8l0.3-0.4
		c0,0,0-0.1,0-0.2l0,0c0.1-0.7,0.1-1.2,0.2-1.6l0,0c0-0.1,0.1-0.1,0.2-0.2l0,0c0.3,0,0.7-0.2,1-0.6l0,0c0,0,0.1-0.1,0.3-0.1
		c0.1,0,0.2,0,0.3,0l0,0h0.1c0.1,0,0.1,0,0.2,0l0,0c0.1,0,0.3-0.1,0.5-0.2s0.4-0.1,0.5-0.2l0,0c0.1,0,0.2-0.1,0.4-0.1
		c0.1,0,0.2,0,0.2,0l0,0c0.1,0,0.2,0,0.3,0s0.2,0,0.3,0l0,0c0.2,0,0.3,0.1,0.3,0.2l0,0c0.1,0.4,0.2,0.9,0.3,1.4l0,0
		c0,0.1,0,0.2,0.1,0.3l0,0c0.1,0.3,0.1,0.5,0.2,0.5l0,0c0,0.1,0.1,0.2,0.1,0.3c0.1,0.1,0.1,0.2,0.1,0.3l0,0h-0.2
		c-0.1,0-0.3-0.1-0.5-0.1s-0.4-0.1-0.5-0.1l0,0h-0.7c-0.2,0-0.5,0-0.9,0.1l0,0c-0.3,0-0.6,0.1-0.8,0.1c-0.2,0-0.4,0.1-0.6,0.1l0,0
		l-0.7,0.1l-0.6,0.2h-0.4L255.8,358.8L255.8,358.8z M315.7,357.7c0,0,0,0.1,0,0.2l0,0c0,0.1,0,0.2-0.1,0.3s-0.1,0.2-0.2,0.3l0,0
		c-0.2,0.3-0.3,0.6-0.2,0.9l0,0v0.6c0,0.1,0,0.1,0,0.2c0,0,0.1,0.1,0.2,0.1l0,0c-0.2,0.2-0.3,0.3-0.5,0.4l0,0
		c-0.4,0.3-0.7,0.6-0.9,0.9l0,0c-0.2,0.2-0.5,0.3-0.8,0.5l0,0c-0.2,0-0.4,0.1-0.6,0.2l0,0c-0.3,0.1-0.5,0.1-0.6,0.1l0,0l0,0
		c0,0-0.2,0-0.4,0.1l0,0h-0.3c-0.4-0.1-0.7-0.1-0.9-0.2l0,0c-0.1-0.1-0.2-0.1-0.3-0.1s-0.1,0-0.2,0l0,0l-1.7-0.7l-0.9-0.5l-1.3-0.8
		c-0.7-0.5-1.1-0.7-1.3-0.9l0,0c-0.4-0.3-1-0.7-1.7-1.4l0,0c-0.6-0.5-1.3-1.2-2-2l0,0c-0.1-0.1-0.2-0.1-0.3-0.1l0,0
		c-0.3,0.2-0.5,0.5-0.5,0.6l0,0l-0.7,1c-0.2,0.3-0.2,0.5-0.3,0.5l0,0c-0.1,0.1-0.2,0.2-0.3,0.4c0,0.2-0.1,0.3-0.1,0.3l0,0
		c0,0.1-0.1,0.2-0.2,0.3c-0.1,0.1-0.1,0.2-0.2,0.3l0,0c-0.3,0.5-0.5,0.8-0.5,0.9l0,0c-0.1,0.2-0.2,0.3-0.3,0.5l0,0l-0.8,0.8l-1,1.1
		c0,0-0.2,0.2-0.4,0.4c-0.2,0.2-0.4,0.3-0.6,0.4l0,0h-0.1c0,0-0.1,0-0.1,0.1l0,0c-0.2,0.2-0.4,0.4-0.6,0.5l0,0
		c-0.3,0.2-0.7,0.3-1.3,0.4l0,0c-0.1,0-0.2,0.1-0.4,0.1c-0.1,0-0.2,0.1-0.4,0.1l0,0c-0.2,0-0.3,0-0.5,0c-0.1,0-0.2,0-0.4,0l0,0
		c0,0-0.1,0-0.1-0.1l0,0c-0.2-0.2-0.3-0.3-0.6-0.3l0,0c-0.1,0-0.2-0.1-0.2-0.2s0-0.2,0-0.2l0,0c0,0-0.1-0.3-0.1-0.8l0,0
		c-0.1-0.2-0.1-0.4-0.1-0.4l0,0c0-0.3,0.1-0.5,0.4-0.7l0,0l0.8-0.5l0.5-0.4l1.8-1.4l1.5-1.4l1.7-1.8c0.5-0.5,0.9-1.1,1.4-1.6l0,0
		l0.9-1.1c0.2-0.2,0.2-0.4,0.1-0.7l0,0l-0.8-2.3l-0.6-1.9c-0.5-1.5-0.8-2.4-0.8-2.9l0,0c-0.1-0.3-0.1-0.6-0.2-0.8
		c-0.1-0.2-0.1-0.4-0.2-0.6l0,0c0-0.2-0.1-0.2-0.3-0.2l0,0c-0.3,0-0.8,0-1.4,0l0,0c-0.1,0-0.1,0-0.2,0s-0.1,0-0.2,0l0,0l-1.1-0.1
		c-0.2,0-0.4,0-0.6,0.1l0,0c-0.2,0-0.3,0-0.4,0l0,0c-0.1,0-0.2,0-0.2,0.1l0,0c-0.2,0.2-0.5,0.3-1,0.3l0,0h-0.1
		c-0.3,0-0.5,0.2-0.4,0.6l0,0c0,0.2,0.1,0.3,0.1,0.4l0,0v0.4l-0.2,1.4c0,0.1,0,0.2,0.2,0.2l0,0c0.3,0.2,0.5,0.3,0.8,0.5l0,0
		c0.1,0.1,0.3,0.2,0.4,0.3c0.1,0.1,0.3,0.2,0.4,0.3l0,0c0.6,0.4,1.1,0.9,1.5,1.5l0,0l0.4,0.3c0.4,0.4,0.6,0.8,0.6,1.1l0,0
		c0,0,0,0.1,0.1,0.1v0.1l0,0c0.1,0.3,0.2,0.7,0.1,1.1l0,0c0,0.1,0,0.2-0.1,0.2s-0.2,0-0.2,0l0,0l-0.1-0.1h-0.1c-0.1,0-0.2,0-0.3-0.1
		s-0.2-0.1-0.2-0.2l0,0c-0.1,0-0.1,0-0.2-0.1c-0.1,0-0.2-0.1-0.2-0.1l0,0L293,352l-0.5-0.2l-1-0.5c-0.2-0.1-0.5-0.4-0.8-0.7l0,0
		l-0.1-0.1c-0.1,0-0.1-0.1-0.2-0.1l0,0c0,0.1-0.1,0.2-0.1,0.4c0,0.1,0,0.3,0,0.5l0,0v1v0.3c0,0.2,0,0.3,0,0.4l0,0v0.1
		c0,0.3,0,0.6-0.1,0.9s-0.2,0.6-0.3,0.7l0,0v0.1l0,0c0,0.2,0,0.4,0,0.7l0,0c0,0.4,0,0.7-0.1,0.9l0,0c0.6,0.1,1,0.1,1.2,0.1l0,0
		c0.4,0,0.8-0.1,1.4-0.2l0,0h0.1c0.1,0,0.3,0,0.6,0l0,0c0.1,0,0.2,0,0.2,0l0,0c0,0,0,0.1,0,0.2l0,0l-0.3,0.8
		c-0.1,0.3-0.2,0.6-0.3,0.7l0,0l-0.8,0.9l-0.3,0.2c-0.2,0-0.3,0.1-0.4,0.1c-0.1,0.1-0.2,0.1-0.4,0.1l0,0l-0.4,0.1l-2.4,0.4h-0.4
		l-0.8,0.1h-0.1c0,0,0,0-0.1,0l0,0h-0.2c-0.3,0-0.6,0.1-0.9,0.2l0,0c-0.3,0.1-0.7,0.2-1.2,0.1l0,0h-0.1c-0.2,0-0.3,0-0.4,0
		s-0.2,0-0.3,0.1l0,0c-0.1,0-0.1,0.1-0.2,0.1s-0.2,0-0.3,0l0,0h-0.5h-0.2h-0.1c-0.2,0-0.4,0.1-0.6,0.2l0,0c-0.2,0-0.2,0.1-0.3,0.1
		l0,0c-0.1,0-0.2,0-0.4-0.1l0,0c-0.1-0.1-0.3-0.2-0.6-0.2l0,0h-0.1c-0.2,0-0.3-0.1-0.4-0.2c-0.1-0.2-0.2-0.3-0.3-0.5l0,0
		c0-0.1,0-0.2,0-0.4c0-0.2-0.1-0.3-0.1-0.4l0,0c0-0.1-0.1-0.2-0.1-0.4c0-0.2,0-0.3,0-0.4l0,0l-0.1-0.3c-0.1-0.2-0.1-0.3-0.1-0.4
		s0-0.3,0-0.5l0,0c0.3-0.2,0.5-0.2,0.6-0.3l0,0h0.1c0.2,0,0.3,0,0.3,0.1l0,0c0.1,0.1,0.3,0.2,0.6,0.2l0,0c0.3,0,0.5,0,0.7,0
		s0.3,0,0.4,0l0,0c0.5,0,1.2-0.1,2.1-0.2l0,0c0.2,0,0.4-0.1,0.6-0.1s0.5-0.1,0.6-0.1l0,0c0.2,0,0.4-0.1,0.6-0.1s0.4,0,0.6-0.1l0,0
		l0.3-1.7l0.1-1.5c0.1-0.9,0.2-1.5,0.2-2l0,0l0.1-1.6c0-0.5,0.1-1.2,0.2-2.1l0,0c0.1-1.2,0.2-2.1,0.2-2.5l0,0c0-0.1,0-0.1,0-0.2l0,0
		l-0.2,0.1c-0.2,0.3-0.5,0.5-0.9,0.5l0,0c-0.1,0-0.3,0-0.5,0s-0.3,0.1-0.4,0.1l0,0c-0.1,0-0.2,0.1-0.3,0.1s-0.2,0-0.3,0l0,0
		c-0.4,0-0.8,0.1-1.2,0.4l0,0c-0.3,0.3-0.7,0.5-1,0.7l0,0c-0.1,0-0.2,0.1-0.3,0.1l0,0c-0.5,0-0.9-0.2-1.3-0.6l0,0c0,0,0,0-0.1-0.1
		l0,0c-0.3-0.6-0.4-1-0.4-1.3l0,0c0-0.2,0-0.3,0-0.3l0,0c0.1-0.3,0.1-0.4,0.2-0.5l0,0c0.1-0.2,0.1-0.3,0.1-0.4l0,0
		c0-0.1,0-0.2-0.1-0.4l0,0c0-0.1,0-0.2,0-0.2s0.1-0.1,0.2-0.1l0,0c0.1,0,0.2,0,0.3,0l0,0c0.1,0,0.2,0,0.4,0.1l0,0
		c0.1,0.1,0.2,0.1,0.4,0.1l0,0c0.2,0,0.4,0,0.7-0.1l0,0c0.5-0.1,0.7-0.1,0.8-0.1l0,0c0,0,0.1,0,0.3-0.1l0,0c0.2,0,0.3,0,0.5-0.1
		s0.4-0.1,0.5,0l0,0h0.1c0,0,0.2,0,0.5-0.1l0,0l1.4-0.2h0.1c0.2,0,0.3-0.1,0.4-0.1c0,0,0.1-0.2,0.1-0.4l0,0c0.1-0.8,0.3-1.4,0.4-1.9
		l0,0c0,0,0.1-0.1,0.2-0.2s0.2-0.1,0.2-0.2l0,0c0,0.1,0.1,0.1,0.2,0.2l0,0v0.1c0.1-0.1,0.2-0.2,0.2-0.2l0,0v0.1
		c0.1,0.1,0.1,0.1,0.2,0.2c0.1,0,0.2,0,0.2,0l0,0c0.1,0,0.1,0,0.2,0c0,0,0.1,0.1,0.1,0.2l0,0c0,0.2,0.1,0.3,0.2,0.5l0,0
		c0.3,0.3,0.5,0.8,0.5,1.3l0,0c0,0.2,0.1,0.3,0.4,0.3l0,0c0.5-0.1,0.7-0.1,0.7-0.1l0,0c0.1,0,0.2-0.1,0.4-0.1c0.2,0,0.3,0,0.5,0l0,0
		h0.1c0.7,0,1.2-0.1,1.5-0.2l0,0h0.1l0.5,0.1h0.1l0.5-0.1c0.3-0.1,0.5-0.1,0.5-0.1l0,0l-0.2-1l-0.2-1.3c-0.1-0.6-0.2-1-0.3-1.3l0,0
		c-0.1-0.4-0.2-0.7-0.3-0.9l0,0c0-0.1-0.1-0.2-0.2-0.1l0,0c-0.1,0.1-0.2,0.2-0.4,0.4c-0.2,0.1-0.3,0.2-0.4,0.3l0,0
		c-0.2,0.2-0.3,0.2-0.5,0.2l0,0c-0.1,0-0.3,0-0.5,0l0,0c-0.1,0-0.3,0.1-0.4,0.1c-0.2,0-0.2,0-0.3,0l0,0c-0.2,0-0.4,0-0.5,0.1l0,0
		c-0.3,0.2-0.7,0.3-1.2,0.3l0,0h-0.2c-0.3,0.1-0.7,0.3-1.1,0.4l0,0c-0.2,0.1-0.3,0.1-0.5,0.1l0,0H288c-0.2,0-0.5,0.1-0.8,0.3l0,0
		c0,0-0.1,0.1-0.3,0.2c-0.2,0.1-0.3,0.2-0.5,0.2l0,0c-0.1,0-0.1,0.1-0.2,0.2l0,0c-0.1,0.1-0.2,0.2-0.2,0.2c-0.1,0-0.1,0-0.2,0l0,0
		l-1-0.4c-0.3-0.1-0.4-0.3-0.5-0.6l0,0l-0.2-0.5c-0.1-0.2-0.2-0.4-0.2-0.7l0,0c0-0.2,0-0.3,0-0.4l0,0c0.1-0.1,0.1-0.1,0-0.2l0,0
		c0-0.1,0-0.2,0-0.2c0-0.1,0-0.1,0-0.1l0,0v-0.2c0-0.2,0-0.3,0-0.3l0,0c0-0.1-0.1-0.2-0.1-0.3l0,0c-0.1-0.1-0.1-0.2-0.1-0.3l0,0
		c0-0.1,0.1-0.2,0.3-0.4l0,0c0.3,0.2,0.6,0.2,0.9,0.2l0,0l0.1-0.1c0.1-0.1,0.2-0.1,0.3-0.1l0,0c0.1,0,0.2,0,0.4,0.1l0,0h0.2
		c0.2,0,0.3,0,0.5,0l0,0l2.3-0.2l0.6-0.2c0.3-0.1,0.6-0.2,0.8-0.1l0,0c0.6,0.1,1,0.2,1.3,0.2l0,0c0.2,0,0.4,0,0.6-0.1l0,0
		c0.2,0,0.3-0.1,0.5-0.1s0.4-0.1,0.6-0.1l0,0c0.1,0,0.3-0.1,0.4,0c0.1,0,0.2,0,0.3,0l0,0c-0.1-0.7-0.2-1.1-0.2-1.3l0,0l-0.1-1.4
		c0-0.2-0.1-0.5-0.2-0.7c0-0.2-0.1-0.4-0.1-0.6l0,0c-0.1-0.4-0.1-0.7-0.1-0.8l0,0c0-0.2,0.1-0.2,0.2-0.2l0,0c0.1,0,0.1,0,0.2-0.1
		l0,0c0.1-0.1,0.2-0.2,0.4-0.2l0,0c0.1,0,0.3,0.1,0.5,0.2l0,0h0.2c0.1,0,0.2,0,0.2,0.1l0,0c0.4,0.5,0.6,0.8,0.8,1.1l0,0
		c0,0.1,0.1,0.1,0.1,0.2s0.1,0.1,0.1,0.2l0,0c0.1,0.1,0.2,0.3,0.5,0.5l0,0c0.3,0.3,0.5,0.8,0.5,1.4l0,0v0.1c0,0,0,0.2,0.1,0.7l0,0
		l0.2,1c0,0.1,0.1,0.4,0.1,0.7c0,0.3,0.1,0.6,0.2,0.9l0,0c0.1,0.3,0.2,0.6,0.3,0.8c0,0.2,0.1,0.4,0.1,0.6l0,0
		c0.1,0.2,0.1,0.3,0.1,0.5s0,0.3,0,0.4l0,0c0.1,0.5,0.1,0.8,0.1,0.8l0,0c0,0.3,0.1,0.6,0.1,0.8c0,0.2,0,0.4,0,0.6l0,0
		c0.1,0.2,0.2,0.3,0.3,0.3l0,0c0.3,0,0.8,0,1.4-0.1l0,0h1.7h1c0.2,0,0.5,0,0.9,0s0.7,0.1,1,0.1l0,0c0.2,0,0.5,0.1,0.8,0.1
		s0.6,0,0.8,0l0,0c0.2,0,0.4,0.1,0.6,0.2c0.3,0.1,0.5,0.2,0.6,0.2l0,0h0.2h0.1c0.1,0,0.2,0.1,0.3,0.2l0,0c0,0.1,0,0.2,0.1,0.2
		c0,0.1,0.1,0.1,0.1,0.2l0,0c0,0.1,0.1,0.2,0.1,0.4l0,0v0.1c0,0.1,0,0.2,0,0.3l0,0c0,0.1-0.1,0.2-0.3,0.4l0,0
		c-0.1,0.1-0.5,0.3-1.1,0.6l0,0c-0.3,0.2-0.7,0.3-1.1,0.4l0,0h0.8H306c-0.1,0-0.3,0-0.5,0l0,0c-0.1,0-0.3,0-0.5-0.1l0,0l-0.3-0.1
		c-0.2,0-0.4,0-0.6,0s-0.4,0-0.5,0l0,0c-0.2,0-0.5,0-0.7,0.1l0,0h-0.1c-0.2,0-0.4-0.1-0.7-0.2l0,0l-0.3-0.1c-0.2,0-0.6,0.1-1,0.2
		l0,0c-0.1,0-0.2,0-0.4,0c-0.1,0-0.2,0-0.3,0l0,0l-0.6-0.1c0,0,0,0-0.1,0.1v0.1l0,0c0,0.1,0,0.3,0.1,0.4c0,0.2,0,0.3,0,0.5l0,0
		c0,0.3,0.1,0.8,0.4,1.4l0,0l0.5,0.8c0,0.1,0.1,0.2,0.1,0.4c0,0.2,0.1,0.3,0.2,0.5l0,0c0.1,0.2,0.1,0.3,0.2,0.4s0.1,0.2,0.2,0.3l0,0
		l0.2,0.4l0.3-0.5l1-1.5l0.5-0.8c0.2-0.2,0.3-0.3,0.5-0.3l0,0c0,0,0.1,0,0.4,0.1l0,0h0.1l0,0c0.1,0,0.2,0,0.3,0.1c0,0,0,0.1-0.1,0.3
		l0,0c-0.1,0.2-0.1,0.4-0.2,0.5c-0.1,0.2-0.1,0.3-0.2,0.4l0,0l-0.2,0.6c0,0.1-0.1,0.3-0.2,0.5s-0.2,0.4-0.2,0.6l0,0
		c0,0.3-0.2,0.8-0.4,1.4l0,0c0,0.1,0,0.2,0,0.3l0,0c0,0.1,0,0.2,0.1,0.3l0,0c0.3,0.4,0.6,0.7,1,1.1s0.6,0.6,0.7,0.7l0,0
		c0.1,0.1,0.3,0.3,0.8,0.6l0,0c0.3,0.3,0.6,0.5,1.1,0.7s0.8,0.4,0.9,0.4l0,0c0.5,0.3,1,0.5,1.5,0.7s0.9,0.4,1.1,0.4l0,0
		c0.2,0.1,1.1,0.4,2.5,1l0,0c0.4,0.2,0.6,0.3,0.7,0.3l0,0c0,0,0.2,0,0.4-0.1l0,0c0.1,0,0.2-0.1,0.3-0.1l0,0l0.2-0.1
		c0.1-0.1,0.3-0.1,0.5-0.1l0,0h0.1l0,0l0.3-0.1c0,0.1,0.1,0.2,0.1,0.2s0.1,0,0.2,0l0,0c0.2,0,0.2,0,0.1,0.2l0,0c0,0.1,0,0.2,0,0.4
		l0,0C315.6,357.5,315.6,357.6,315.7,357.7L315.7,357.7z M301.5,338.2c-0.2-0.3-0.4-0.5-0.5-0.9c-0.1-0.3-0.2-0.5-0.2-0.6l0,0
		c0-0.1-0.1-0.3-0.1-0.5l0,0c0-0.2,0-0.4,0.1-0.7l0,0v-0.2l0.6-0.2c0.1,0,0.2,0,0.2,0.1l0,0c0.1,0,0.1,0.1,0.2,0.1s0.2,0.1,0.3,0.1
		l0,0c0.1,0,0.2,0.1,0.2,0.2l0,0c0.1,0.1,0.2,0.3,0.3,0.5c0.2,0.2,0.3,0.4,0.3,0.5l0,0c0.1,0.2,0.1,0.3,0.1,0.5l0,0
		c0,0.2-0.1,0.4-0.2,0.6l0,0c-0.3,0.4-0.6,0.5-0.8,0.5l0,0C302,338.4,301.8,338.3,301.5,338.2L301.5,338.2
		C301.6,338.2,301.6,338.2,301.5,338.2L301.5,338.2L301.5,338.2z M280.8,353.3c0-0.1,0-0.2,0-0.3s0-0.2,0-0.3l0,0
		c-0.1-0.2-0.1-0.4-0.1-0.6l0,0c0-0.4,0.1-0.7,0.4-1l0,0c0.2-0.2,0.5-0.4,0.8-0.7l0,0l0.6-0.5c0.3-0.3,0.5-0.4,0.7-0.5l0,0l0.9-0.6
		c0.2-0.1,0.4-0.3,0.6-0.5s0.4-0.3,0.7-0.5l0,0c0.2-0.1,0.4-0.2,0.5-0.2l0,0l0,0c0.1,0,0.1,0,0.2,0.1c0.1,0,0.1,0.1,0.2,0.1l0,0
		c0.1,0,0.2,0.1,0.3,0.1l0,0h0.3c0.1,0.2,0.1,0.2,0.1,0.3l0,0c0,0.1,0,0.2,0,0.3s-0.1,0.1-0.1,0.2l0,0l-0.1,0.4
		c-0.1,0.3-0.2,0.5-0.3,0.6l0,0c-0.3,0.6-0.5,1-0.7,1.2l0,0c-0.1,0.2-0.3,0.4-0.5,0.8l0,0l-0.5,1.1c-0.2,0.3-0.5,0.6-0.9,0.8l0,0
		l-0.3,0.3c-0.2,0.2-0.6,0.4-1,0.4l0,0c-0.2,0-0.3,0-0.4-0.1l0,0c-0.1,0-0.2-0.1-0.4-0.1c-0.1-0.1-0.2-0.1-0.3-0.1l0,0
		c0,0-0.1-0.1-0.1-0.2l0,0v-0.1c0-0.1,0-0.2-0.1-0.2c-0.1-0.1-0.2-0.1-0.3-0.1l0,0C280.9,353.4,280.8,353.3,280.8,353.3L280.8,353.3
		z M342.4,339.2v-0.1V339c0-0.1,0-0.1,0-0.1l0,0c0-0.1-0.1-0.1-0.1-0.1l0,0c-0.1,0-0.2,0-0.4,0.1c-0.2,0.1-0.3,0.1-0.4,0.1l0,0
		c-0.8-0.2-1.6-0.3-2.3-0.3l0,0c-0.2,0-0.5,0-0.9,0l0,0c-0.1,0-0.1,0-0.1-0.1l0,0l-0.1-1.2c0-0.7,0-1.2,0.1-1.6l0,0v-0.3l0.2-1.2
		c0.1-0.6,0.2-0.9,0.2-1l0,0c0-0.5,0-0.9-0.1-1.1l0,0c0-0.1-0.1-0.4-0.1-0.7l0,0l-0.1-0.2c-0.1,0-0.2-0.2-0.3-0.3
		c-0.1-0.2-0.2-0.2-0.2-0.3l0,0c-0.1-0.1-0.2-0.2-0.3-0.2l0,0c-0.1,0-0.2-0.1-0.5-0.2l0,0c-0.2-0.2-0.4-0.2-0.5-0.2l0,0
		c-0.2,0-0.3,0-0.5,0l0,0c-0.1,0-0.1,0-0.1,0.1l0,0c0,0.2,0.1,0.3,0.1,0.4l0,0c0,0.2,0,0.3,0,0.4l0,0c0.1,0.3,0.1,0.4,0.1,0.5l0,0
		c0,0.2,0,0.4,0,0.6s-0.1,0.3-0.1,0.5l0,0c0,0.1,0,0.5-0.1,1.3l0,0c-0.1,0.4-0.2,0.9-0.2,1.6l0,0c-0.1,0.4-0.1,0.7-0.1,0.9l0,0
		c0,0.2,0,0.3-0.1,0.5c0,0.2,0,0.5,0,0.7l0,0c0,0.2-0.1,0.4,0,0.5c0,0.2,0,0.4,0,0.5l0,0c0,0.2,0,0.3-0.1,0.3l0,0l-1.6,0.3l-0.2-0.1
		c0-0.1-0.2-0.1-0.3-0.1l0,0c-0.3,0-0.5,0.1-0.6,0.1l0,0c-0.1,0-0.2,0-0.3,0.1l0,0c-0.1,0.1-0.2,0.2-0.3,0.2s-0.2,0.1-0.3,0.1
		s-0.2,0-0.3,0l0,0c0-0.1-0.1-0.1-0.2-0.2c-0.1,0-0.2-0.1-0.2-0.2l0,0c-0.1-0.1-0.2-0.1-0.4-0.2c-0.2,0-0.3-0.1-0.4,0l0,0l-0.8,0.5
		c-0.1,0-0.1,0.1-0.2,0.2l0,0c0,0.1-0.1,0.2-0.1,0.2c0,0.1,0,0.2-0.1,0.2l0,0c0,0.1,0,0.2,0,0.3l0,0c0.2,0.3,0.4,0.4,0.5,0.5l0,0
		c0.1,0.1,0.2,0.2,0.1,0.5l0,0c0,0.1,0,0.2-0.1,0.3l0,0c0,0.1,0,0.2,0.1,0.2l0,0l0.3,0.2c0.1,0.2,0.3,0.4,0.4,0.8l0,0v0.1
		c0,0,0,0,0,0.1l0,0c0,0-0.1,0-0.1-0.1l0,0l-0.1-0.1v0.1l0.2,0.2l0,0l0,0l0,0c0.1,0,0.2,0.1,0.3,0.2l0,0l0.8-0.1
		c0.1,0,0.2,0,0.3-0.1c0.1,0,0.1,0,0.2,0l0,0h0.5c0.2,0,0.3,0,0.4-0.1l0,0c0,0,0.2,0,0.4,0l0,0l0.8-0.2c0.2-0.1,0.4-0.1,0.5-0.2
		c0.2-0.1,0.4-0.1,0.6-0.2l0,0v0.4v0.2v0.4v0.2c0,0.2,0.1,0.6,0.2,1l0,0l0.1,0.6c0.1,0.1,0,0.2-0.2,0.2l0,0c-0.1,0-0.3,0.1-0.4,0.1
		c-0.2,0-0.3,0.1-0.4,0.1l0,0c-0.7,0.1-1.2,0.1-1.6,0.1l0,0c-0.2,0-0.5,0-0.9,0.1l0,0c-0.1,0-0.1,0.1-0.2,0.2l0,0
		c0,0.2-0.1,0.3-0.2,0.3s-0.2,0.1-0.4,0l0,0v0.3c0,0.2,0,0.3-0.1,0.6c0,0.3-0.1,0.5-0.1,0.6l0,0c-0.1,1.2-0.2,2.1-0.2,2.6l0,0v0.1
		c0,0.1,0,0.2,0.1,0.3c0,0.1,0,0.2,0.1,0.3l0,0c0,0,0,0.1,0.1,0.1c0,0,0.1,0.1,0.1,0.2l0,0c0.1,0.2,0.1,0.3,0.2,0.5
		c0,0.2,0.1,0.3,0.1,0.4l0,0l0.1,0.1v-0.1l0,0l0,0l0.1-0.2c0.1,0,0.2,0,0.2,0.1l0,0c0.1,0.1,0.2,0.1,0.3,0l0,0
		c0.1-0.1,0.2-0.2,0.4-0.2c0.2,0,0.3-0.1,0.4-0.1l0,0v0.1c0,0.2,0.2,0.4,0.5,0.5l0,0c0.1,0.1,0.2,0,0.3-0.1l0,0
		c0.1-0.2,0.3-0.2,0.5-0.2l0,0c0.2,0,0.3,0,0.5,0s0.3,0.1,0.5,0.1l0,0c0.6,0,1.1,0.1,1.5,0.1l0,0c0.4,0,0.8-0.1,1.3-0.4l0,0
		c0.3-0.2,0.6-0.5,0.9-0.8l0,0l0.1-0.2v-0.1c0-0.1,0-0.1,0-0.2l0.1-0.1l0,0v-0.1l0,0c0,0,0-0.1,0-0.2s0-0.2,0-0.3l0,0
		c0-0.1,0.1-0.2,0.3-0.3l0,0c0.2,0,0.4,0,0.5,0l0,0l0.2-0.1c0.3-0.5,0.5-1,0.6-1.5l0,0l0.1-1c0-0.2,0-0.3,0.1-0.4l0,0
		c0.1-0.1,0.1-0.3,0-0.4l0,0c-0.4-0.4-0.9-0.6-1.4-0.6l0,0c-0.3,0-0.5-0.1-0.7-0.3l0,0h-0.1v0.1h-0.1c-0.1,0-0.1,0.1-0.1,0l0,0
		l-1.2-0.2l-0.6-0.1l0.1-0.2c0.1-0.1,0.2-0.2,0.2-0.2c0.1,0,0.2,0,0.3,0l0,0c0.1,0,0.1,0.1,0.2,0.1s0.1-0.1,0.1-0.1l0,0
		c0.1-0.3,0.2-0.5,0.2-0.6l0,0l0.1-0.8c0-0.2,0.1-0.4,0.1-0.6c0.1-0.2,0.1-0.4,0.2-0.7l0,0c0-0.1,0.1-0.2,0.2-0.2s0.2,0,0.2,0l0,0h1
		c0.2,0,0.3,0,0.3-0.1l0,0c0.2,0,0.3-0.1,0.5-0.1s0.3-0.1,0.5-0.1l0,0c0.2,0,0.3-0.1,0.5-0.2c0.1-0.1,0.2-0.2,0.2-0.2l0,0
		c0.1-0.2,0.2-0.2,0.3-0.2l0,0c0.2,0,0.3-0.1,0.4-0.3l0,0c0,0,0,0,0.1-0.1l0,0l0.1-0.2v-0.1v-0.1l0,0c0.1,0,0.1-0.1,0.2-0.1
		c0,0,0.1-0.1,0.2-0.1l0,0c0-0.1,0.1-0.2,0.2-0.5l0,0L342.4,339.2z M343.8,332.4v0.4c0,0.2,0,0.4-0.1,0.7c0,0.3-0.1,0.6-0.1,0.8l0,0
		c-0.1,1.4-0.2,2.5-0.2,3.2l0,0v1.5c0,0.6,0,1.1,0,1.4l0,0c0,0.7,0,1.2-0.1,1.5l0,0v1.6c0,0.5,0.1,0.9,0.2,1.2l0,0
		c0.2,0.4,0.3,0.6,0.4,0.8c0.1,0.2,0.3,0.3,0.5,0.5l0,0l0.2,0.2l-0.6,0.3l-0.1,0.1c0,0,0,0.1,0,0.2l0,0c0,0.1,0.1,0.2,0.3,0.3l0,0
		c0,0,0.1,0.1,0.3,0.2l0,0l0.4,0.5c0.1,0,0.2-0.1,0.2-0.1l0,0l0.4-0.3c0.1-0.1,0.3-0.2,0.5-0.2s0.3,0,0.4,0l0,0
		c0.6-0.1,1.1-0.1,1.4-0.2l0,0c0.1,0,0.2,0,0.4-0.1l0,0c0,0.1,0,0.2,0,0.4l0,0c0,0.3-0.1,0.6-0.2,1l0,0c0,0.3-0.2,0.6-0.3,0.9
		c-0.2,0.3-0.3,0.6-0.4,0.8l0,0c-0.2,0.5-0.4,0.8-0.7,1l0,0h-0.1c-0.1,0-0.1,0-0.2-0.1l0,0l-0.5-0.5c-0.1-0.1-0.2-0.3-0.4-0.5
		c-0.1-0.2-0.2-0.3-0.3-0.5l0,0c-0.2-0.3-0.4-0.4-0.5-0.4l0,0c-0.1,0-0.2-0.1-0.4-0.2c-0.1-0.1-0.2-0.1-0.2-0.2l0,0
		c0,0-0.2-0.2-0.5-0.4l0,0c0,0-0.1,0-0.2,0l0,0c-0.1,0-0.2,0.1-0.4,0.2l0,0c-0.1,0-0.1,0.1-0.2,0.2c0,0.1,0,0.2,0,0.2l0,0l-0.2,0.1
		c0,0.1,0,0.2,0.1,0.2l0,0c0,0,0.1,0.1,0.1,0.2c0.1,0.1,0.1,0.1,0,0.2l0,0l0.1,0.1c0.2,0.2,0.2,0.3,0.3,0.4l0,0
		c0.5,0.8,0.8,1.3,0.8,1.3l0,0c0.2,0.3,0.5,0.8,1,1.5l0,0c0.1,0.1,0.1,0.2-0.1,0.3l0,0c-0.2,0.2-0.3,0.3-0.5,0.3
		c-0.1,0.1-0.3,0.1-0.5,0l0,0c-0.3-0.1-0.6-0.1-0.6-0.1l0,0c-0.4,0-0.8-0.1-1.1-0.3l0,0c0,0-0.1-0.1-0.4-0.2l0,0l-0.3,0.1l-0.5,0.5
		c0.2,0.2,0.4,0.5,0.5,0.8l0,0c0.1,0.2,0.2,0.4,0.5,0.4l0,0c0.3,0.1,0.6,0.2,0.9,0.3c0.2,0.1,0.5,0.1,0.8,0l0,0c0,0,0.2-0.1,0.4-0.1
		c0.2,0,0.4-0.1,0.5-0.2l0,0c0.3-0.3,0.6-0.5,0.9-0.6l0,0c0.2-0.1,0.2-0.1,0.3,0.1l0,0c0.2,0.5,0.5,1,0.9,1.5l0,0
		c0,0,0.1,0.1,0.1,0.2s0.1,0.1,0.1,0.2l0,0c0.1,0.3,0.3,0.6,0.5,0.9s0.4,0.5,0.5,0.7l0,0c0,0,0.3,0.4,0.9,1l0,0
		c0.3,0.3,0.7,0.7,1.2,1l0,0c0.4,0.3,0.7,0.5,1.1,0.5l0,0c0.1,0,0.1,0,0.2,0c0,0,0.1,0,0.1,0.1l0,0c0.1,0.1,0.2,0.1,0.3,0.1l0,0
		l0.6,0.1c0.1,0,0.2,0,0.2-0.1l0,0c0-0.1,0.1-0.2,0.2-0.2s0.2,0,0.3,0l0,0c0.2,0,0.3,0.1,0.3,0.3l0,0c0,0.1,0,0.1,0.1,0.1l0,0
		l0.5,0.2c0.1-0.1,0.3-0.2,0.5-0.3l0,0c0.2-0.1,0.4-0.2,0.5-0.4l0,0c0.1-0.2,0.3-0.4,0.6-0.5l0,0c0.1,0,0.2-0.1,0.2-0.2s0-0.2,0-0.3
		l0,0c-0.1-0.1-0.1-0.2,0-0.2l0,0l0.3-0.5l0.3-0.4c0.3-0.3,0.4-0.6,0.5-0.8l0,0c-0.2-0.1-0.5-0.2-0.7-0.2l0,0h-0.4
		c-0.1,0-0.2,0-0.3,0l0,0c-0.6-0.2-1.3-0.6-2.1-1.3l0,0l-1.6-1.5c-0.2-0.2-0.6-0.5-1.1-0.9l0,0l-2.1-1.8c-0.1,0-0.1-0.1,0-0.2l0,0
		l0.5-0.9l0.6-1.2c0.1-0.2,0.2-0.3,0.3-0.5c0.1-0.2,0.2-0.4,0.3-0.6l0,0l0.4-0.9c0.2-0.4,0.3-0.7,0.3-1l0,0c0-0.1,0-0.2,0-0.3l0,0
		c0-0.2-0.1-0.3-0.2-0.3l0,0c-0.3-0.2-0.5-0.2-0.9-0.2l0,0c-0.4,0.2-0.8,0.3-1.2,0.4l0,0c-0.8,0.1-1.6,0.2-2.3,0.4l0,0h-0.8V346
		l0.5-0.4l0,0c-0.2,0.1-0.3,0-0.3-0.2l0,0v-0.2c0-0.2,0-0.3,0.1-0.4l0,0c0.1-0.1,0.1-0.2,0.1-0.3s0-0.2,0.1-0.3l0,0v-0.1
		c0.1,0,0.2-0.1,0.2-0.3l0,0l0.1-0.3c0.1-0.3,0.2-0.8,0.2-1.5l0,0c0-0.2,0.1-0.2,0.2-0.3l0,0c0.1,0,0.2,0,0.4-0.1
		c0.2,0,0.3-0.1,0.5-0.1l0,0h0.2c0.4,0,0.7-0.1,1.1-0.2l0,0c0.2,0,0.3-0.1,0.4-0.2c0.1,0,0.2-0.1,0.3-0.1l0,0c0,0,0.2-0.1,0.6-0.3
		l0,0c0-0.2,0-0.2,0-0.2l0,0l0.9-0.6c0.2-0.1,0.4-0.2,0.5-0.4l0,0v-0.1c-0.3-0.1-0.4-0.2-0.5-0.3l0,0c0,0-0.1,0-0.2,0l0,0h-0.3
		c-0.1,0-0.2,0-0.4,0.1l0,0H350c0,0-0.1,0-0.2,0l0,0l-1.4,0.4c-0.3,0-0.8,0.1-1.5,0.2l0,0c-0.2,0-0.4,0.1-0.6,0.2l0,0v-1.1v-1
		l0.1-0.8c0,0,0,0,0-0.1l0,0l0.1-0.6l0.1-1.1c0-0.2,0-0.4,0-0.5s-0.1-0.2-0.1-0.4l0,0c-0.1-0.5-0.2-0.8-0.5-1.1l0,0
		c0,0-0.1-0.1-0.4-0.4l0,0c-0.3-0.5-0.6-0.7-1-0.7l0,0h-0.3C344.1,332.2,344,332.3,343.8,332.4L343.8,332.4z M329.3,336.2
		c0-0.1,0-0.1,0-0.2s0-0.1,0.1-0.2l0,0c0.1-0.2,0.2-0.3,0.3-0.5l0,0c0.1-0.1,0.2-0.2,0.2-0.4c0-0.2,0.1-0.3,0.1-0.4l0,0
		c0.1-0.2,0-0.3-0.2-0.4l0,0c-0.2,0-0.5-0.1-1-0.2l0,0c0-0.1,0-0.1,0.1-0.2l0,0c0.2-0.1,0.1-0.2-0.1-0.2l0,0l-0.5-0.1
		c-0.8-0.1-1.4-0.1-1.8-0.1l0,0c-0.5,0-1,0.1-1.5,0.2s-0.9,0.2-1.1,0.3l0,0h-0.3c-0.2,0-0.4-0.1-0.6-0.3l0,0c-0.2-0.1-0.3-0.1-0.4,0
		l0,0l-0.2-0.2c-0.1-0.1-0.2-0.2-0.4-0.1l0,0l-0.2,0.1c-0.3,0.1-0.5,0.3-0.6,0.5l0,0l-0.2,0.3c-0.2,0.1-0.2,0.3-0.1,0.5l0,0
		c0.1,0.1,0.1,0.2,0,0.4l0,0c-0.6,0.9-1,1.6-1.4,2l0,0c-0.2,0.2-0.3,0.3-0.3,0.5l0,0c0,0.2,0.2,0.4,0.5,0.4l0,0l0,0
		c0.1,0.1,0.2,0.1,0.3,0.2c0.1,0.1,0.1,0.1,0.1,0.2l0,0v0.4c0,0.2,0.1,0.4,0.3,0.6l0,0c0.3,0.4,0.5,0.7,0.5,0.9l0,0
		c0.1,0.1,0.2,0.1,0.2,0.1l0,0c0.2-0.1,0.4-0.1,0.5,0.1l0,0l0,0c0,0,0,0,0.1,0l0,0c0,0,0.1,0.1,0.2,0.1l0,0c0.1,0,0.2,0,0.3-0.1l0,0
		c0.1-0.1,0.4-0.2,0.7-0.3c0.3-0.1,0.6-0.2,0.7-0.2l0,0l0.1-0.1c0,0,0.1,0,0.1,0.1l0,0c0.1,0.1,0.2,0.1,0.3,0l0,0l0.8-0.5
		c0,0.1,0,0.1,0,0.2s0.1,0.2,0,0.3l0,0c0,0.3,0,0.8-0.1,1.5l0,0c0,0.3-0.1,0.7-0.2,1.5l0,0c-0.1,0.5-0.2,1-0.2,1.4l0,0
		c-0.1,0.4-0.1,0.7-0.1,0.9l0,0l-0.1,1.3v1.1c0,0.2,0,0.4,0.1,0.7c0,0.3,0,0.6,0,1l0,0v1.5l-0.1,2.5c0,0.5,0,1.1-0.1,1.9l0,0
		c0,0.2-0.1,0.6-0.1,1.2l0,0c0,0.3,0.1,0.5,0.2,0.7l0,0c0,0.1,0.1,0.1,0.1,0.2c0.1,0.1,0.1,0.1,0.2,0.2l0,0l0.2,0.3
		c0.4,0.4,0.7,0.6,1,0.8l0,0c0.2-0.2,0.4-0.3,0.5-0.4c0.1,0,0.2,0,0.4,0.1l0,0c0.1,0,0.2,0.1,0.3,0c0,0,0.1-0.1,0.1-0.2l0,0
		c0-0.4,0.1-0.7,0.1-1l0,0c0-0.3,0-0.7,0-1.4l0,0c0.1-0.8,0.2-1.4,0.2-1.9l0,0v-0.2c0-0.3,0-0.5,0-0.6l0,0v-0.9v-1l-0.1-1.5
		l-0.1-0.7c0-0.2,0-0.6,0-1.1l0,0l-0.1-1.5c0-0.2,0-0.3,0-0.5s0-0.3,0-0.5l0,0c0.1-0.3,0.1-0.4,0.1-0.5l0,0c0-0.4,0.1-0.9,0.1-1.6
		l0,0v-2c0-0.4,0-0.7,0-1l0,0c0-0.2,0-0.3,0.1-0.5c0-0.2,0-0.5,0-0.8l0,0c0.1-0.6,0.2-0.9,0.5-1.1l0,0l0.1-0.2
		c0.2-0.5,0.4-0.8,0.7-1l0,0L329.3,336.2z M337.7,350.4h0.2l0,0c-0.1,0-0.2,0.1-0.3,0.1s-0.2,0-0.4,0l0,0h-2.3h-0.6H334
		c-0.2,0-0.4-0.1-0.5-0.2l0,0c0,0-0.1,0-0.2,0l0,0c-0.2,0-0.2-0.1-0.2-0.2l0,0c0-0.1,0.1-0.4,0.1-0.7c0-0.3,0.1-0.6,0-0.9l0,0v-0.1
		c0-0.1,0-0.2,0.1-0.2c0-0.1,0.1-0.1,0.2-0.1l0,0c0,0,0.1-0.1,0.2-0.2l0,0c0-0.2,0.1-0.3,0.3-0.3l0,0c0.5-0.1,1-0.2,1.5-0.2l0,0
		c0.5-0.1,0.8-0.1,1-0.1l0,0c0.2,0,0.6,0,1.2,0l0,0h0.1v0.1l0,0c0,0.1,0,0.2,0.1,0.4c0,0.2,0.1,0.3,0.1,0.4l0,0v0.3
		c0,0.4,0.1,0.6,0.1,0.8l0,0v0.2c0,0.1,0,0.2-0.1,0.3s-0.1,0.2-0.1,0.3l0,0C337.9,350.1,337.8,350.2,337.7,350.4L337.7,350.4
		L337.7,350.4L337.7,350.4L337.7,350.4z M392.9,337l0.4,0.1v0.1h-0.1c0,0-0.1,0-0.2,0.1c-0.1,0-0.1,0.1-0.2,0l0,0
		c0,0.1-0.1,0.2-0.1,0.3l0,0c0,0.2-0.1,0.2-0.1,0.3c0,0-0.2,0-0.3,0l0,0c-0.1,0-0.2,0-0.3,0c-0.1,0-0.2,0.1-0.3,0.1l0,0
		c0,0-0.1,0-0.2,0.1l0,0c0,0,0,0.1-0.1,0.1v0.1l0,0c0,0,0,0.1-0.1,0.3l0,0c-0.2,0.3-0.4,0.5-0.8,0.6l0,0c-0.2,0.1-0.3,0.2-0.4,0.4
		l0,0c0,0.1-0.1,0.1-0.2,0.2l0,0c-0.1,0.1-0.1,0.2-0.1,0.3l0,0c0,0.1,0,0.2,0,0.2c0,0.1-0.1,0.1-0.2,0.1l0,0h-0.8h-0.4h-1.3
		c-0.5,0-0.7,0-0.9,0l0,0l-0.9-0.1c-0.4,0.1-0.7,0.2-1,0.1l0,0h-0.1h-0.4h-1.5c-0.2,0-0.5,0-0.8,0l0,0c-0.2,0-0.6,0-1,0l0,0h-0.2
		c-0.1,0-0.1,0-0.1,0s0,0.1,0,0.3l0,0c0,0.1,0.1,0.4,0.2,0.9l0,0v1.2c0,0.1,0,0.3-0.1,0.6l0,0v0.1l0.1,0.5h0.4
		c0.3,0,0.8-0.1,1.5-0.1l0,0c0.6,0,1.4,0,2.5,0.1l0,0c0.9,0.1,1.7,0.2,2.5,0.4l0,0c0.1,0,0.4,0.1,0.8,0.3l0,0c0,0,0.1,0.1,0.2,0.1
		c0.1,0.1,0.2,0.2,0.2,0.3l0,0c0,0.1,0,0.2-0.1,0.2l0,0c-0.1,0.1-0.3,0.2-0.6,0.2l0,0c-0.4,0.1-0.6,0.3-0.7,0.5l0,0
		c0,0.1,0,0.1,0,0.2l0,0c0,0.3,0,0.4-0.1,0.5l0,0l-0.5,0.2c-0.1,0.1-0.1,0.1-0.2,0.1s-0.2,0.1-0.3,0.1l0,0c-0.1,0-0.2,0.1-0.2,0.3
		l0,0c-0.1,0.1-0.2,0.2-0.2,0.2c-0.1,0.1-0.2,0.1-0.2,0.2l0,0c-0.1,0-0.1,0.1-0.2,0.2c0,0.1-0.1,0.1-0.2,0.2l0,0
		c-0.2,0.1-0.4,0.2-0.5,0.2c-0.2,0-0.3,0-0.3,0l0,0c-0.4,0.1-0.8,0.1-1.2,0.1l0,0c-0.3,0-0.7,0-1-0.1l0,0c-0.4,0-1,0.1-1.7,0.3l0,0
		c0,0-0.1,0-0.1,0.1l0,0c-0.1,0.5-0.1,1-0.1,1.5l0,0v0.7c-0.1,0.8-0.2,1.4-0.4,1.7l0,0c0,0.1-0.1,0.3-0.1,0.5l0,0
		c0.1,0,0.2-0.1,0.3-0.1l0,0h0.7c0.2,0,0.4,0,0.5,0l0,0c0.2,0,0.4,0,0.8-0.1l0,0h0.9h0.4h0.6c0.1,0,0.2,0,0.3-0.1
		c0.1,0,0.2,0,0.3-0.1l0,0h0.2l0.6-0.1c0.3-0.1,0.5-0.2,0.6-0.2l0,0c0.1,0,0.4-0.1,0.8-0.1l0,0c0.3,0,0.5,0,0.8-0.1l0,0
		c0.1,0,0.2,0,0.3-0.1c0.1,0,0.2,0,0.4,0l0,0l0.1,0.1c0.1,0,0.3-0.1,0.5-0.2l0,0c0.2-0.1,0.2-0.1,0.3-0.1l0,0c0,0,0.2,0,0.3,0.1l0,0
		l0.1-0.1c0.2,0,0.3-0.1,0.3-0.1l0,0h0.6c0.3,0,0.5-0.1,0.7-0.2s0.4-0.2,0.5-0.3l0,0c0.1,0,0.1-0.1,0.2-0.1c0,0,0.1-0.1,0.2-0.1l0,0
		c0.1-0.1,0.1-0.1,0.1,0l0,0c0,0,0.1,0.1,0,0.1c0,0.1,0,0.1,0,0.1l0,0c0,0.1-0.1,0.2-0.1,0.3c-0.1,0.1-0.2,0.2-0.2,0.3l0,0
		c0,0.1-0.1,0.2-0.1,0.3s-0.1,0.2-0.1,0.3l0,0l0,0c0,0.1,0,0.1,0.1,0.2c0,0.1,0.1,0.2,0.1,0.2l0,0c0,0.1,0,0.1,0,0.2s0,0.1,0,0.2
		l0,0c0,0.2,0,0.4,0.1,0.5l0,0c0,0,0,0,0,0.1c0,0,0,0.1,0.1,0.1l0,0v0.2c0.1,0.1,0.1,0.2,0.2,0.3c0,0.1,0.1,0.2,0.1,0.2l0,0
		c0.1,0.2,0.1,0.3,0.2,0.4l0,0c0.2,0.2,0.3,0.4,0.3,0.8l0,0l0,0c0,0,0,0,0.1,0l0,0c0.1,0.1,0.1,0.2,0.1,0.4c0,0.2,0,0.3,0,0.3l0,0
		c0,0,0,0,0,0.1c0,0,0,0,0,0.1l0,0c0,0.1,0,0.1,0,0.2s0,0.1,0.1,0.2l0,0c0,0.2,0,0.3-0.1,0.4c0,0.1-0.1,0.1-0.2,0.2l0,0l-0.2,0.2
		l-0.1,0.1c0,0-0.1,0.1-0.1,0.2l0,0l-0.2,0.1c-0.3,0.2-0.5,0.2-0.6,0.2l0,0c-0.1,0-0.3,0-0.5,0l0,0c0,0,0,0-0.1-0.1l-0.1-0.1l0,0
		h-0.1c-0.1,0-0.1,0-0.2,0l0,0l-0.8,0.1c-0.2,0-0.4,0.1-0.6,0.1l0,0c-0.1,0-0.1,0-0.2,0.1l0,0h-0.1c0-0.3-0.1-0.4-0.2-0.4l0,0
		c-0.1,0-0.3,0.1-0.4,0.1l0,0c-0.1,0-0.2-0.1-0.3,0c-0.1,0-0.1,0-0.1,0l0,0l-0.9-0.1c-0.3,0-0.8-0.1-1.4-0.1l0,0l-2.5-0.1h-0.4h-0.5
		c-0.2,0-0.4,0-0.5,0c-0.2,0-0.4,0-0.5,0l0,0c-0.3,0-0.5,0-0.7,0s-0.4,0-0.5,0l0,0c-0.7-0.1-1.2-0.1-1.7-0.1l0,0c-0.2,0-0.3,0-0.5,0
		s-0.3,0-0.4,0l0,0l-1.4-0.2h-1.4c-0.2,0-0.6,0-1.2,0l0,0l-2,0.1c-0.1,0-0.3,0.1-0.5,0.1s-0.5,0.1-0.6,0.1l0,0l-1.1,0.1
		c-0.6,0-1.2,0-1.5,0.1l0,0l-1.4,0.1c-0.5,0.1-0.8,0.2-1,0.2l0,0c-0.1,0-0.3-0.1-0.6-0.4l0,0l-0.1-0.1c-0.2-0.1-0.3-0.4-0.4-0.8l0,0
		c0,0,0-0.1,0-0.2l0,0c-0.1-0.1-0.2-0.2-0.2-0.2l0,0c-0.1-0.1-0.1-0.3,0-0.5l0,0l0.2-0.4c0-0.1,0-0.2-0.1-0.2l0,0
		c-0.1-0.2-0.1-0.3-0.1-0.4l0,0v-0.2c0,0,0-0.1,0-0.2s0-0.2,0-0.2l0,0c0-0.1,0.1-0.2,0.2-0.5s0.2-0.5,0.3-0.6l0,0c0,0,0.1,0,0.1-0.1
		l0,0l0.5-0.1c0.1-0.1,0.2-0.1,0.5,0l0,0h0.4c0,0.1,0,0.2,0,0.2l0,0c0,0.2,0,0.3,0.1,0.3l0,0c0.2,0,0.4-0.1,0.7-0.1l0,0
		c0.5,0,1,0,1.3,0l0,0c0.3,0,0.8-0.1,1.5-0.2l0,0c0.1,0,0.3,0,0.5,0l0,0c0.1,0,0.3,0,0.4,0s0.3,0,0.4,0l0,0l1.3-0.1
		c0.1,0,0.3,0,0.7,0s0.7-0.1,1.1-0.2l0,0l1.8-0.1h0.5c0-0.1-0.1-0.2-0.1-0.4c0-0.2,0-0.3,0-0.4l0,0c-0.1-0.3-0.2-0.6-0.2-1l0,0
		c0-0.2,0-0.5,0.1-0.9l0,0c0-0.4,0.1-0.7,0.1-0.9l0,0c0-0.2,0-0.3,0-0.5l0,0c0,0-0.1-0.1-0.2-0.1l0,0c-0.1,0-0.1,0-0.1,0.1l0,0h-0.4
		c-0.2,0-0.3,0-0.5,0s-0.3,0-0.5,0l0,0c-0.5,0.1-0.8,0.2-0.9,0.2l0,0l-0.9,0.1h-0.2c-0.3,0-0.5,0-0.6,0l0,0c-0.5,0-1,0.1-1.6,0.2
		l0,0c-0.8,0.1-1.3,0.2-1.7,0.4l0,0c0,0-0.1,0-0.2,0l0,0c-0.2,0-0.3,0-0.5-0.1s-0.3-0.2-0.4-0.3l0,0c0-0.1-0.1-0.1-0.2,0l0,0h-0.1
		c-0.1,0-0.2-0.1-0.2-0.3l0,0c0,0,0-0.1,0-0.2s-0.1-0.2-0.1-0.3l0,0l-0.1-0.4c0-0.1,0-0.1-0.1-0.2l-0.1-0.1l0,0
		c-0.3-0.2-0.5-0.4-0.8-0.6l0,0c-0.1,0-0.1-0.2-0.1-0.3l0,0c0-0.1,0-0.2-0.1-0.2l0,0c0-0.2,0-0.3,0.1-0.4l0,0
		c0.1-0.1,0.1-0.2,0.1-0.3l0,0c0-0.1,0-0.2,0.1-0.3c0-0.1,0-0.2,0-0.3l0,0c0-0.1,0.1-0.3,0.2-0.4c0.1-0.2,0.2-0.3,0.2-0.3l0,0
		c0-0.2,0-0.3,0.1-0.4l0,0c0-0.1,0.1-0.1,0.1-0.1h0.1l0,0c0,0,0.2-0.1,0.6-0.3l0,0l0,0l0,0l0,0c0-0.1,0.1-0.1,0.1-0.1s0.1,0,0.1,0.1
		l0,0c0,0,0.2,0.2,0.4,0.4l0,0l0.3,0.4c0.2,0.2,0.3,0.3,0.5,0.3l0,0c0.7,0,1.2-0.1,1.6-0.2l0,0c0.7-0.1,1.2-0.2,1.7-0.2l0,0
		c0.3,0,0.6,0,0.9-0.1c0.4,0,0.8-0.1,1.4-0.2l0,0c0.5-0.1,1.2-0.2,2-0.3l0,0c0.1,0,0.2-0.1,0.2-0.2l0,0c0-0.5,0-0.8,0.1-1l0,0
		c0-0.1,0-0.3,0-0.5s0-0.3,0-0.4l0,0c0-0.2,0-0.5,0-0.9l0,0v-0.8c0-0.1,0-0.2,0-0.2h-0.1l0,0c-0.2,0-0.4,0-0.6,0.1
		c-0.2,0-0.4,0-0.6,0.1l0,0c-0.2,0-0.3,0-0.5,0s-0.3,0-0.4,0l0,0l-1.2,0.1c-0.2,0-0.5,0.1-0.7,0.1c-0.3,0-0.5,0.1-0.7,0.1l0,0
		l-2.7,0.3c-0.2,0-0.5,0.1-0.8,0.2l0,0l-0.1,0.1c0,0.1-0.1,0.1-0.1,0l0,0c-0.2-0.1-0.4-0.2-0.5-0.3l0,0l-0.1-0.1
		c0,0-0.1-0.1-0.2-0.2l0,0c-0.1,0.1-0.2,0.1-0.2,0.1l0,0c-0.1,0-0.2-0.1-0.4-0.3l0,0c-0.2-0.2-0.4-0.4-0.7-0.7l0,0l-0.1-0.1
		c0,0,0-0.1-0.1-0.2c0-0.1,0-0.2-0.1-0.3l0,0c-0.1-0.3-0.3-0.4-0.5-0.5l0,0c-0.2-0.1-0.4-0.4-0.4-0.7l0,0c0-0.2,0-0.3,0-0.4l0,0
		c0-0.2,0-0.4,0-0.5l0,0l0.3-0.6c0.1,0,0.1-0.1,0.2-0.2l0,0c0-0.2,0.1-0.2,0.1-0.3c0,0,0.1-0.1,0.2-0.1l0,0c0.1,0,0.2,0,0.2,0
		c0.1,0,0.1,0,0.2,0l0,0c0.1,0,0.2,0.1,0.4,0.2l0,0c0.1,0.1,0.2,0.1,0.3,0.2s0.2,0.2,0.2,0.3l0,0c0,0,0.1,0.1,0.3,0.1l0,0l1-0.1
		c0.2,0,0.5-0.1,0.9-0.2s0.8-0.1,1.1-0.2l0,0l1.3-0.2c0.2,0,0.6-0.1,1.2-0.2l0,0c0.3,0,0.6-0.1,1-0.2l0,0l2.5-0.2
		c0.3,0,0.4-0.1,0.4-0.1l0,0l0.1-0.1c-0.2-0.6-0.4-1.1-0.6-1.5l0,0c0-0.2-0.1-0.4-0.2-0.8s-0.2-0.7-0.2-1l0,0c0-0.4-0.1-0.6-0.2-0.8
		l0,0c0-0.1-0.1-0.2-0.1-0.3c-0.1,0-0.2-0.1-0.4-0.1l0,0c0,0-0.1,0-0.2-0.1c-0.1,0-0.1-0.1-0.1-0.2l0,0c0-0.1-0.1-0.3-0.1-0.5l0,0
		c0,0,0-0.1,0.1-0.2l0,0c0.2-0.1,0.3-0.2,0.5-0.3c0.2-0.1,0.3-0.2,0.5-0.3l0,0h0.2l0.5-0.2c0.3-0.2,0.7-0.3,1-0.4l0,0h0.1
		c0.1,0,0.3,0,0.5,0.1l0,0h0.1c0.3-0.1,0.5-0.1,0.8,0c0.2,0.1,0.5,0.2,0.9,0.4l0,0c0.1,0,0.2,0.1,0.4,0.1c0.2,0.1,0.3,0.2,0.4,0.4
		l0,0l0.1,0.2l0.3,0.9v0.1c0,0.4,0,0.9-0.1,1.5l0,0l-0.1,0.8c0,0.3-0.1,0.6-0.2,0.7l0,0c-0.1,0.2-0.2,0.3-0.5,0.5l0,0
		c-0.1,0.1-0.2,0.1-0.3,0.2l0,0c0-0.2,0-0.3-0.1-0.4l0,0l-0.1-0.1l0,0c-0.4,0-0.7,0.2-0.7,0.5l0,0h-0.1l-0.3,0.1v0.1h0.3
		c0.3,0,1,0,1.9-0.1l0,0l2.6-0.1c0.4,0,0.9,0,1.6-0.1l0,0c1,0,1.8-0.1,2.3-0.1l0,0c0.2,0,0.5,0,0.7,0s0.5,0,0.7,0l0,0
		c0.2,0,0.4,0,0.8,0l0,0c0.5,0.1,0.9,0.1,1.1,0.2l0,0c0.2,0.1,0.3,0.1,0.5,0.2c0.2,0,0.3,0.1,0.5,0.1l0,0l0.8,0.2
		c0.2,0,0.3,0.1,0.4,0.2l0,0c0.1,0,0.2,0.1,0.3,0.2c0.1,0.1,0.2,0.1,0.2,0.2l0,0c0.1,0,0.2,0.1,0.3,0.1l0,0
		c-0.1,0.1-0.2,0.1-0.2,0.2C392.8,336.8,392.8,336.9,392.9,337L392.9,337z"/>
</g>
</svg>
