<?xml version="1.0" encoding="utf-8"?>
<!-- Generator: Adobe Illustrator 23.0.3, SVG Export Plug-In . SVG Version: 6.00 Build 0)  -->
<svg version="1.1" id="logo" xmlns="http://www.w3.org/2000/svg" xmlns:xlink="http://www.w3.org/1999/xlink" x="0px" y="0px"
	 viewBox="0 0 512 512" style="enable-background:new 0 0 512 512;" xml:space="preserve">
<g id="content" transform="translate(101.25,56.25)">
	<path id="outline" d="M333.3,449.8H-23.8c-39.4,0-71.4-32-71.4-71.4V21.2c0-39.4,32-71.4,71.4-71.4h357.1c39.4,0,71.4,32,71.4,71.4
		v357.1C404.8,417.7,372.7,449.8,333.3,449.8z M-23.8-29.8c-28.1,0-51,22.9-51,51v357.1c0,28.1,22.9,51,51,51h357.1
		c28.1,0,51-22.9,51-51V21.2c0-28.1-22.9-51-51-51H-23.8z"/>
	<path id="text" d="M12.4,90.2L12.4,90.2C15.3,76,22.8,70,35.2,72.1l0,0c12.5,2.8,24.3,3.9,35.2,3.2l0,0c13-4.7,22.4-4.3,28,1.4l0,0
		c7.1,5.7,8.5,12.8,4.3,21.3l0,0c-3.8,7.6-5.6,16.6-5.3,27l0,0c3.8,13.5-2.7,21.9-19.5,25.2l0,0h-25c-11.6-0.9-17,4.4-16.3,16l0,0
		l-0.4,7.8c-0.2,5.9,3.3,9.2,10.7,9.9l0,0c11.8-0.7,23.7-1.1,35.5-1.1l0,0c12.8,3.3,16.1,12,9.9,25.9l0,0c0.2,7.1-0.1,15-1.1,23.8
		l0,0c-4.3,19.7-14.6,39-30.9,57.9l0,0C40.9,310.8,21.1,323.2,1,327.7l0,0c-8,0.5-13.6-3.3-16.7-11.4l0,0c-0.7-9.2,6.6-16.9,22-23.1
		l0,0c46.4-26.3,66.8-53.5,61.1-81.7l0,0c0-1.4-1.8-3.2-5.3-5.3l0,0c-16.8-1.7-30.8,1-41.9,8.1l0,0c-8,4.5-15,3.3-21-3.5l0,0
		c-2.6-4.8-1.8-9.5,2.5-14.2l0,0c9-7.6,12.3-20.7,9.9-39.4l0,0c-0.5-10.6,0-18.5,1.4-23.5l0,0c4.5-8,11-10.3,19.5-6.7l0,0l15.6,1.4
		c9,0.7,16.1,0,21.3-2.1l0,0c4.5-1.9,6.2-8,5-18.4l0,0C76,97.7,72,93.8,62.3,96.2l0,0c-12.3,0-22.3,1.4-29.9,4.3l0,0
		C23,103.6,16.2,100.1,12.4,90.2z M156.3,75.3L156.3,75.3c27.7,0.2,56.2-0.1,85.6-1.1l0,0c10.2,2.6,12.9,8.5,8.2,17.7l0,0
		c-2.6,3.6-6.6,5.8-12.1,6.8l0,0c-18.7-1.4-38.4-1.9-58.9-1.4l0,0c-8.5,0-13.2,3.3-13.9,9.9l0,0c-0.5,3.3,1.9,5,7.1,5l0,0l57.2,0.7
		c5.7,0.9,9.9,2.5,12.8,4.6l0,0c4.3,5.7,3,10.6-3.9,14.6l0,0c-2.1,0.7-6.8,1.1-13.9,1.1l0,0c-15.9-0.9-31.8-0.9-48,0l0,0
		c-1.2,0.5-2.7,0.6-4.6,0.4l0,0c-5.7,0.9-8.5,3.3-8.5,7.1l0,0c0,4,2.8,6,8.5,6l0,0l60.4,0.7c11.1,0.7,15.3,5.8,12.4,15.2l0,0
		c-2.1,3.3-7,4.9-14.5,4.6l0,0c-13.5-0.9-32.6-0.8-57.2,0.4l0,0c-5.9,0.7-8.9,3.5-8.9,8.2l0,0c0,5,2.8,7.5,8.5,7.5l0,0l98.7-1.8
		c11.1,1.2,15.7,5.7,13.9,13.5l0,0c-3.6,7.6-8.4,12.4-14.6,14.6l0,0c-7.6,1.6-14.2,1.5-19.9-0.4l0,0c-5.7-0.9-8.2-0.8-7.5,0.4l0,0
		c2.6,8,2,14.7-1.7,19.9l0,0c-2.1,3.6-5.6,5.3-10.3,5.3l0,0c-4.5,0.5-9,1.4-13.5,2.8l0,0c-5.9,1.9-5.2,5.7,2.1,11.4l0,0
		c33.6,23.9,64.5,39.3,92.7,46.1l0,0c7.8,2.8,12,5.1,12.4,6.8l0,0c0.9,3.5-0.8,6.7-5.3,9.6l0,0c-10.9,5.5-20.4,9.5-28.4,12.1l0,0
		c-6.6,2.4-13.7,0-21.3-7.1l0,0c-23.9-16.8-49.2-37.3-76-61.4l0,0c-5.5-5-11.8-6.8-19.2-5.3l0,0c-3.1,0.7-6.2,0.9-9.2,0.7l0,0
		c-5-1.9-5.6-5.6-1.8-11l0,0c18.9-8.3,36.6-17.9,52.9-28.8l0,0c6.2-3.8,6.2-5.7,0-5.7l0,0c-18,0-36.1,0.5-54.3,1.4l0,0
		c-5.5,0.2-7.5,1.9-6,4.9l0,0c1.9,6.2,0.6,14.7-3.9,25.6l0,0c-3.5,17-6.6,34.1-9.2,51.1l0,0c0.5,1.2,4.2,0.8,11.3-1.1l0,0l28.8-7.8
		c11.1-4.3,18.5-3.8,22,1.4l0,0c0,6.6-4.7,11.8-14.2,15.6l0,0c-27.7,14.9-50.7,24.2-68.9,27.7l0,0c-4.7,0.2-8.5-1.3-11.3-4.6l0,0
		c-5-8.3-2.8-19.4,6.4-33.4l0,0c9.5-20.8,13.2-44,11.3-69.6l0,0c-0.2-5.7-3.6-7.8-9.9-6.4l0,0c-4.3,1.7-8.4,2-12.4,1.1l0,0
		c-6.2-3.8-7.9-8.9-5.3-15.3l0,0c7.1-11.1,17.2-15.6,30.2-13.5l0,0c6.4,0.7,9.6-1.7,9.6-7.1l0,0l0.4-75.3
		C138.4,86.8,143.5,78.6,156.3,75.3z"/>
</g>
</svg>
