<?xml version="1.0" encoding="utf-8"?>
<!-- Generator: Adobe Illustrator 23.0.3, SVG Export Plug-In . SVG Version: 6.00 Build 0)  -->
<svg version="1.1" id="logo" xmlns="http://www.w3.org/2000/svg" xmlns:xlink="http://www.w3.org/1999/xlink" x="0px" y="0px"
	 viewBox="0 0 512 512" style="enable-background:new 0 0 512 512;" xml:space="preserve">
<style type="text/css">
	.st0{fill-rule:evenodd;clip-rule:evenodd;}
</style>
<g id="content" transform="translate(103.75,44.687232971191406)">
	<path id="outline" class="st0" d="M252.5,36.5l0.1,0.1c0.7,0.9,1.2,1.8,1.7,2.7c0,0.1,0.1,0.1,0.1,0.2l0,0c0.1,0.3,0.3,0.6,0.4,0.8
		c3.1,4.9,6,7.7,8.6,9.5c3,2,5.9,2.5,8.8,2.9c3.9,0.6,7,1.6,10,3.1c2.8,1.5,5.4,3.3,8.1,5.7c2.5-1.6,5.5-2.5,8.7-2.5
		c4.4,0,8.5,1.8,11.4,4.7c2.9,2.9,4.7,6.9,4.7,11.4c0,3.3-1,6.4-2.7,9c1.9,2.3,3.7,4.5,5.5,6.9c2,2.6,3.8,5.2,5.7,7.8
		c1.1-0.3,2.3-0.5,3.5-0.5c3.4,0,6.4,1.4,8.6,3.6c2.2,2.2,3.6,5.3,3.6,8.6c0,3.3-1.3,6.4-3.5,8.6c7.2,13.7,12.9,28.4,16.8,43.8
		c3.9,15.6,6,31.9,6,48.7s-2.1,33.1-6,48.7c-3.9,15.4-9.5,30.1-16.8,43.8c2.2,2.2,3.5,5.2,3.5,8.6c0,3.4-1.4,6.4-3.6,8.6
		c-2.2,2.2-5.3,3.6-8.6,3.6c-1.2,0-2.4-0.2-3.5-0.5c-1.8,2.6-3.7,5.2-5.7,7.8c-1.8,2.3-3.6,4.6-5.5,6.9c1.7,2.6,2.7,5.7,2.7,9
		c0,4.4-1.8,8.5-4.7,11.4c-2.9,2.9-6.9,4.7-11.4,4.7c-3.2,0-6.2-0.9-8.7-2.5c-2.8,2.3-5.3,4.2-8.1,5.7c-2.9,1.5-6.1,2.5-10,3.1
		c-2.9,0.4-5.8,0.9-8.8,2.9c-2.6,1.7-5.5,4.6-8.6,9.5c-0.1,0.3-0.3,0.6-0.4,0.8l0,0c0,0.1-0.1,0.1-0.1,0.2c-0.5,0.9-1.1,1.8-1.7,2.7
		c0,0-0.1,0.1-0.1,0.1c-2.8,3.6-6.8,6.5-11.3,8.2c-5.4,2.1-11.6,2.6-17.4,0.8c-3.9-1.2-7.2-2.8-10.1-4.6c-2.8-1.8-5.3-3.7-7.4-5.6
		c-3.8-3.3-7.4-5.6-10.9-7c-5.2-2.2-9.9-2.4-14.2-1.1c-4.4,1.4-8.4,4.3-11.9,8.5c-3.7,4.3-6.9,9.8-9.5,16c-1,2.3-2.1,4.1-3.4,5.2
		c-1.2,1.1-2.6,1.7-4.1,1.8c-1.5,0-3-0.5-4.3-1.7c-1.2-1.1-2.3-2.7-3.3-5c-2.6-6.3-5.9-11.9-9.6-16.2c-3.5-4.1-7.5-7.1-11.9-8.4
		c-4.3-1.3-9-1.1-14.1,1c-3.5,1.4-7.1,3.8-10.9,7c-2.2,1.9-4.6,3.8-7.4,5.6c-2.9,1.8-6.2,3.4-10.1,4.6c-5.7,1.7-11.9,1.3-17.4-0.8
		c-4.5-1.7-8.5-4.6-11.3-8.2c0,0-0.1-0.1-0.1-0.1c-0.7-0.9-1.2-1.8-1.7-2.7h0c0-0.1-0.1-0.1-0.1-0.2c-0.1-0.3-0.3-0.6-0.4-0.8
		c-3.1-4.9-6-7.7-8.6-9.5c-3-2-5.9-2.5-8.8-2.9c-3.9-0.6-7-1.6-10-3.1c-2.8-1.5-5.4-3.3-8.1-5.7c-2.5,1.6-5.5,2.5-8.7,2.5
		c-4.4,0-8.5-1.8-11.4-4.7c-2.9-2.9-4.7-6.9-4.7-11.4c0-3.3,1-6.4,2.7-9c-1.9-2.3-3.7-4.5-5.5-6.9c-2-2.6-3.8-5.2-5.7-7.8
		c-1.1,0.3-2.3,0.5-3.5,0.5c-3.4,0-6.4-1.4-8.6-3.6s-3.6-5.3-3.6-8.6c0-3.3,1.3-6.4,3.5-8.6c-7.2-13.7-12.9-28.4-16.8-43.8
		c-3.9-15.6-6-31.9-6-48.7s2.1-33.1,6-48.7c3.9-15.4,9.5-30.1,16.8-43.8c-2.2-2.2-3.5-5.2-3.5-8.6c0-3.4,1.4-6.4,3.6-8.6
		c2.2-2.2,5.3-3.6,8.6-3.6c1.2,0,2.4,0.2,3.5,0.5c1.8-2.6,3.7-5.2,5.7-7.8c1.8-2.3,3.6-4.6,5.5-6.9c-1.7-2.6-2.7-5.7-2.7-9
		c0-4.4,1.8-8.5,4.7-11.4c2.9-2.9,6.9-4.7,11.4-4.7c3.2,0,6.2,0.9,8.7,2.5c2.8-2.3,5.3-4.2,8.1-5.7c2.9-1.5,6.1-2.5,10-3.1
		c2.9-0.4,5.8-0.9,8.8-2.9c2.6-1.7,5.5-4.6,8.6-9.5c0.1-0.3,0.3-0.6,0.4-0.8l0.1-0.2c0.5-0.9,1.1-1.8,1.7-2.7c0,0,0.1-0.1,0.1-0.1
		c2.8-3.6,6.8-6.5,11.3-8.2c5.4-2.1,11.6-2.6,17.4-0.8c3.9,1.2,7.2,2.8,10.1,4.6c2.8,1.8,5.3,3.7,7.4,5.6c3.8,3.3,7.5,5.6,10.9,7
		c5.2,2.2,9.9,2.4,14.1,1c4.4-1.4,8.3-4.3,11.9-8.4c3.7-4.3,6.9-9.9,9.6-16.2c1-2.3,2.1-3.9,3.3-5c1.3-1.2,2.7-1.7,4.3-1.7
		c1.5,0,2.9,0.6,4.1,1.8c1.2,1.1,2.4,2.9,3.4,5.2c2.6,6.2,5.8,11.7,9.5,16c3.5,4.1,7.5,7.1,11.9,8.5c4.3,1.3,9,1.1,14.2-1.1
		c3.4-1.4,7-3.7,10.9-7c2.2-1.9,4.6-3.8,7.4-5.6c2.9-1.8,6.2-3.4,10.1-4.6c5.7-1.7,11.9-1.3,17.4,0.8
		C245.7,30,249.7,32.8,252.5,36.5L252.5,36.5z M259.7,55.4c-1.1-0.7-2.1-1.5-3.2-2.5c-0.3,1.6-0.7,3.2-1.3,4.7
		c-2.2,5.8-6.8,11.1-13,14.4l-0.2,0.1c-3.6,1.9-7.5,2.3-10.9,1.6c-3.6-0.8-6.8-3-8.6-6.3l-0.1-0.1l0,0c-1.7-3.3-1.8-7.1-0.5-10.5
		c1.3-3.3,3.8-6.2,7.3-8.1c0.1,0,0.2-0.1,0.2-0.1c1.6-0.8,3.6-0.2,4.5,1.4c0.9,1.6,0.3,3.6-1.3,4.5c-0.1,0-0.1,0.1-0.2,0.1
		c-2,1.1-3.5,2.8-4.2,4.6c-0.6,1.6-0.6,3.4,0.2,4.9l0,0c0.8,1.5,2.3,2.5,4.1,2.9c2,0.4,4.2,0.2,6.3-0.9l0.2-0.1
		c4.8-2.6,8.3-6.6,10-10.9c1.5-3.9,1.6-8,0-11.7c-0.6-0.9-1.2-1.9-1.8-3c-2-2.6-4.9-4.6-8.3-5.9c-4.1-1.6-8.8-2-13-0.7
		c-3.2,1-6,2.4-8.5,3.9c-2.5,1.6-4.7,3.3-6.6,5c-4.3,3.7-8.6,6.4-12.6,8.1c-6.8,2.8-13,3.1-18.8,1.3c-5.7-1.8-10.7-5.4-15.1-10.5
		c-4.1-4.8-7.7-10.9-10.6-17.8c-0.5-1.1-0.9-1.9-1.4-2.5c-0.4,0.5-0.8,1.2-1.2,2.2c-2.9,7-6.5,13.2-10.7,18
		c-4.3,5.1-9.4,8.7-15,10.5c-5.7,1.8-12,1.6-18.7-1.2c-4.1-1.7-8.4-4.4-12.7-8.2c-2-1.7-4.1-3.4-6.6-5c-2.5-1.5-5.2-2.9-8.5-3.9
		c-4.2-1.3-8.9-0.9-13,0.7c-3.3,1.3-6.3,3.3-8.3,5.9c-0.6,1.1-1.2,2.1-1.8,3c-1.6,3.7-1.5,7.9,0,11.7c1.7,4.3,5.1,8.3,10,10.9
		l0.2,0.1c2.1,1.1,4.4,1.4,6.3,0.9c1.8-0.4,3.3-1.4,4.1-2.9l0,0l0,0c0.8-1.5,0.8-3.3,0.2-4.9c-0.7-1.8-2.2-3.5-4.2-4.6v0l-0.1-0.1
		c-1.6-0.9-2.3-2.9-1.4-4.6c0.9-1.6,2.9-2.3,4.6-1.4l0.1,0.1v0c3.5,1.9,6,4.8,7.3,8.1C84,60.3,84,64,82.2,67.3l-0.1,0.1l0,0
		c-1.8,3.3-4.9,5.5-8.6,6.3c-3.5,0.8-7.4,0.3-10.9-1.6L62.4,72c-6.3-3.4-10.8-8.6-13-14.4c-0.6-1.6-1-3.1-1.3-4.7
		c-1.1,1-2.2,1.8-3.2,2.5c-4.2,2.8-7.9,3.5-11.6,4c-3.1,0.4-5.5,1.2-7.8,2.4c-2.1,1.1-4.2,2.6-6.4,4.4c1.6,2.5,2.6,5.5,2.6,8.7
		c0,4.4-1.8,8.5-4.7,11.4C14,89.2,10,91,5.6,91c-3.1,0-6-0.9-8.5-2.4c-1.7,2.1-3.4,4.1-5,6.3c-1.8,2.4-3.6,4.8-5.3,7.4
		c1.9,2.1,3,4.9,3,8c0,3.4-1.4,6.4-3.6,8.6c-2.2,2.2-5.3,3.6-8.6,3.6c-1,0-1.9-0.1-2.8-0.3c-6.9,13.2-12.4,27.3-16.1,42.1
		c-3.8,15-5.8,30.8-5.8,47.1s2,32,5.8,47.1c3.7,14.8,9.2,28.9,16.1,42.1c0.9-0.2,1.9-0.3,2.8-0.3c3.4,0,6.4,1.4,8.6,3.6
		s3.6,5.3,3.6,8.6c0,3.1-1.1,5.9-3,8c1.7,2.5,3.5,5,5.3,7.4c1.6,2.1,3.3,4.2,5,6.3c2.5-1.5,5.4-2.4,8.5-2.4c4.4,0,8.5,1.8,11.4,4.7
		c2.9,2.9,4.7,6.9,4.7,11.4c0,3.2-0.9,6.2-2.6,8.7c2.2,1.9,4.3,3.3,6.4,4.4c2.3,1.2,4.7,2,7.8,2.4c3.6,0.5,7.4,1.2,11.6,4
		c1.1,0.7,2.1,1.5,3.2,2.5c0.3-1.6,0.7-3.2,1.3-4.7c2.2-5.8,6.8-11.1,13-14.4l0.2-0.1c3.6-1.9,7.5-2.3,10.9-1.6
		c3.6,0.8,6.8,3,8.6,6.3l0,0l0.1,0.1c1.7,3.3,1.8,7.1,0.5,10.5c-1.3,3.3-3.8,6.2-7.3,8.1v0l-0.1,0.1c-1.6,0.9-3.7,0.3-4.6-1.4
		c-0.9-1.6-0.3-3.7,1.4-4.6l0.1-0.1v0c2-1.1,3.5-2.8,4.2-4.6c0.6-1.6,0.6-3.4-0.2-4.9l0,0l0,0c-0.8-1.5-2.3-2.5-4.1-2.9
		c-2-0.4-4.2-0.2-6.3,0.9l-0.2,0.1c-4.8,2.6-8.3,6.6-10,10.9c-1.5,3.9-1.6,8,0,11.7c0.6,0.9,1.2,1.9,1.8,3c2,2.6,4.9,4.6,8.3,5.9
		c4.1,1.6,8.8,2,13,0.7c3.2-1,6-2.4,8.5-3.9c2.5-1.6,4.7-3.3,6.6-5c4.4-3.8,8.7-6.5,12.7-8.2c6.7-2.8,13-3,18.7-1.2
		c5.6,1.8,10.6,5.4,15,10.5c4.2,4.9,7.8,11.1,10.7,18c0.4,1,0.8,1.7,1.2,2.2c0.4-0.5,0.9-1.4,1.4-2.5c2.9-6.9,6.4-13,10.6-17.8
		c4.4-5.1,9.4-8.8,15.1-10.5c5.8-1.8,12-1.5,18.8,1.3c4.1,1.7,8.3,4.4,12.6,8.1c2,1.7,4.1,3.4,6.6,5c2.5,1.5,5.2,2.9,8.5,3.9
		c4.2,1.3,8.9,0.9,13-0.7c3.3-1.3,6.3-3.3,8.3-5.9c0.6-1.1,1.2-2.1,1.8-3c1.6-3.7,1.5-7.9,0-11.7c-1.7-4.3-5.1-8.3-10-10.9l-0.2-0.1
		c-2.1-1.1-4.4-1.4-6.3-0.9c-1.8,0.4-3.3,1.4-4.1,2.9l0,0c-0.8,1.5-0.8,3.3-0.2,4.9c0.7,1.8,2.2,3.5,4.2,4.6c0.1,0,0.1,0.1,0.2,0.1
		c1.6,0.9,2.2,2.9,1.3,4.5c-0.9,1.6-2.8,2.2-4.5,1.4c-0.1,0-0.2-0.1-0.2-0.1c-3.5-1.9-6-4.8-7.3-8.1c-1.3-3.4-1.3-7.2,0.5-10.5l0,0
		l0.1-0.1c1.8-3.3,4.9-5.5,8.6-6.3c3.5-0.8,7.4-0.3,10.9,1.6l0.2,0.1c6.3,3.4,10.8,8.6,13,14.4c0.6,1.6,1,3.1,1.3,4.7
		c1.1-1,2.2-1.8,3.2-2.5c4.2-2.8,7.9-3.5,11.6-4c3.1-0.4,5.5-1.2,7.8-2.4c2.1-1.1,4.2-2.6,6.4-4.4c-1.6-2.5-2.6-5.5-2.6-8.7
		c0-4.4,1.8-8.5,4.7-11.4c2.9-2.9,6.9-4.7,11.4-4.7c3.1,0,6,0.9,8.5,2.4c1.7-2.1,3.4-4.1,5-6.3c1.8-2.4,3.6-4.8,5.3-7.4
		c-1.9-2.1-3-4.9-3-8c0-3.4,1.4-6.4,3.6-8.6s5.3-3.6,8.6-3.6c1,0,1.9,0.1,2.8,0.3c6.9-13.2,12.4-27.3,16.1-42.1
		c3.8-15,5.8-30.8,5.8-47.1s-2-32-5.8-47.1c-3.7-14.8-9.2-28.9-16.1-42.1c-0.9,0.2-1.9,0.3-2.8,0.3c-3.4,0-6.4-1.4-8.6-3.6
		c-2.2-2.2-3.6-5.3-3.6-8.6c0-3.1,1.1-5.9,3-8c-1.7-2.5-3.5-5-5.3-7.4c-1.6-2.1-3.3-4.2-5-6.3c-2.5,1.5-5.4,2.4-8.5,2.4
		c-4.4,0-8.5-1.8-11.4-4.7c-2.9-2.9-4.7-6.9-4.7-11.4c0-3.2,0.9-6.2,2.6-8.7c-2.2-1.9-4.3-3.3-6.4-4.4c-2.3-1.2-4.7-2-7.8-2.4
		C267.6,58.8,263.9,58.1,259.7,55.4L259.7,55.4z M186.9,5.9c0,1.9-1.5,3.4-3.4,3.4s-3.4-1.5-3.4-3.4c0-2.3-0.8-4.4-2.1-5.9
		c-1.2-1.3-2.8-2.2-4.5-2.2c-1.7,0-3.3,0.8-4.5,2.2c-1.3,1.5-2.1,3.6-2.1,5.9c0,5.5,1.9,10.5,5,14c1.4,1.6,3.1,3,4.9,3.9
		c2.6,0.9,5,1.4,7.4,1.6c3.7-0.2,7.5-1.9,10.7-4.6c3.3-2.8,5.8-6.7,6.6-11c0-0.2,0,0,0.1-0.3c0.1-0.3,0.2-0.8,0.3-1.7
		c0.9-6.2,1.2-25.5-31.9-31.9c0.1,0.5,0.1,1,0.1,1.5c0,4.5-2.1,8.6-5.4,11.5c-3.2,2.8-7.6,4.6-12.4,4.6s-9.2-1.7-12.4-4.6
		c-3.3-2.9-5.4-7-5.4-11.5c0-0.5,0-1,0.1-1.5c-33.5,6.3-33.2,25.7-32.2,31.9c0.1,1,0.3,1.5,0.3,1.7c0.1,0.3,0,0.2,0.1,0.3
		c0.8,4.3,3.3,8.1,6.6,11c3.1,2.7,6.9,4.4,10.7,4.6c2.3-0.2,4.8-0.7,7.4-1.6c1.8-0.9,3.5-2.3,4.9-3.9c3.1-3.6,5-8.5,5-14
		c0-2.3-0.8-4.4-2.1-5.9c-1.2-1.3-2.8-2.2-4.5-2.2c-1.7,0-3.3,0.8-4.5,2.2c-1.3,1.5-2.1,3.6-2.1,5.9c0,1.9-1.5,3.4-3.4,3.4
		c-1.9,0-3.4-1.5-3.4-3.4c0-4,1.4-7.6,3.7-10.3c2.4-2.8,5.8-4.5,9.6-4.5c3.8,0,7.1,1.7,9.6,4.5c2.3,2.7,3.7,6.3,3.7,10.3
		c0,7.2-2.5,13.7-6.6,18.4c-4.2,4.9-10.1,7.9-16.6,7.9c-0.3,0-0.6,0-0.8,0c-0.5,0-1,0.1-1.5,0.1c-3.6,0.1-7-0.3-10.3-1.1
		c-7.1-1.7-13-5.4-18.6-8.9C80.4,16.4,71.8,11,59,18.9c-5.4,3.4-8.5,8.2-11.5,12.8c-6,9.2-11.5,17.7-30.8,16.6
		c-1.9-0.1-3.3-1.7-3.2-3.6c0.1-1.9,1.7-3.3,3.6-3.2c15.4,0.9,19.9-6,24.8-13.5c3.4-5.2,6.9-10.7,13.6-14.8
		c16.3-10.2,26.7-3.7,38,3.4c2.3,1.4,4.7,2.9,7.1,4.3c-2.1-2.9-3.5-6.2-4.2-9.8c-0.1-0.3,0-0.1,0-0.1c-0.1-0.4-0.3-1.3-0.4-2.2
		c-1.2-8.1-1.8-33.7,41.6-40.3c0.1,0,0.1,0,0.2,0c0.7-0.9,1.5-1.8,2.4-2.6c3.2-2.8,7.6-4.6,12.4-4.6s9.2,1.7,12.4,4.6
		c0.9,0.8,1.7,1.7,2.4,2.7c43.3,6.6,42.7,32.1,41.4,40.2c-0.1,0.9-0.3,1.7-0.4,2.2c0,0.1,0-0.1,0,0.1c-0.7,3.5-2.2,6.9-4.2,9.8
		c2.4-1.3,4.8-2.8,7.1-4.3c11.3-7.1,21.7-13.6,38-3.4c6.7,4.2,10.2,9.6,13.6,14.8c4.9,7.5,9.3,14.4,24.8,13.5
		c1.9-0.1,3.5,1.3,3.6,3.2c0.1,1.9-1.3,3.5-3.2,3.6c-19.3,1.1-24.8-7.3-30.8-16.6c-3-4.6-6.1-9.4-11.5-12.8
		c-12.8-8-21.4-2.5-30.9,3.4c-5.6,3.5-11.4,7.2-18.6,8.9c-3.2,0.8-6.6,1.2-10.3,1.1c-0.5,0-1-0.1-1.5-0.1c-0.3,0-0.6,0-0.8,0
		c-6.5,0-12.4-3-16.6-7.9c-4.1-4.8-6.6-11.3-6.6-18.4c0-4,1.4-7.6,3.7-10.3c2.4-2.8,5.8-4.5,9.6-4.5s7.1,1.7,9.6,4.5
		C185.6-1.8,187,1.9,186.9,5.9L186.9,5.9z M160.3-29c-2-1.8-4.8-2.9-7.9-2.9c-3.1,0-5.9,1.1-7.9,2.9c-1.9,1.7-3,3.9-3,6.4
		s1.2,4.8,3,6.4c2,1.8,4.8,2.9,7.9,2.9c3.1,0,5.9-1.1,7.9-2.9c1.9-1.7,3-3.9,3-6.4S162.2-27.4,160.3-29z M305.5,68.4
		c-1.7-1.7-4-2.7-6.6-2.7c-2.6,0-4.9,1-6.6,2.7c-1.7,1.7-2.7,4-2.7,6.6s1,4.9,2.7,6.6c1.7,1.7,4,2.7,6.6,2.7c2.6,0,4.9-1,6.6-2.7
		c1.7-1.7,2.7-4,2.7-6.6S307.2,70,305.5,68.4z M330.8,106.4c-1-1-2.3-1.6-3.8-1.6s-2.9,0.6-3.8,1.6c-1,1-1.6,2.3-1.6,3.8
		s0.6,2.9,1.6,3.8c1,1,2.3,1.6,3.8,1.6s2.9-0.6,3.8-1.6c1-1,1.6-2.3,1.6-3.8S331.8,107.4,330.8,106.4z M5.6,65.6
		c-2.6,0-4.9,1-6.6,2.7c-1.7,1.7-2.7,4-2.7,6.6s1,4.9,2.7,6.6c1.7,1.7,4,2.7,6.6,2.7s4.9-1,6.6-2.7c1.7-1.7,2.7-4,2.7-6.6
		s-1-4.9-2.7-6.6C10.4,66.7,8.1,65.6,5.6,65.6z M-22.5,104.8c-1.5,0-2.9,0.6-3.8,1.6s-1.6,2.3-1.6,3.8s0.6,2.9,1.6,3.8
		s2.3,1.6,3.8,1.6s2.9-0.6,3.8-1.6c1-1,1.6-2.3,1.6-3.8s-0.6-2.9-1.6-3.8C-19.6,105.4-21,104.8-22.5,104.8z M180.2,416.8
		c0-1.9,1.5-3.4,3.4-3.4s3.4,1.5,3.4,3.4c0,4-1.4,7.6-3.7,10.3c-2.4,2.8-5.8,4.5-9.6,4.5s-7.1-1.7-9.6-4.5
		c-2.3-2.7-3.7-6.3-3.7-10.3c0-7.2,2.5-13.7,6.6-18.4c4.2-4.9,10.1-7.9,16.6-7.9c0.3,0,0.6,0,0.8,0c0.5,0,1-0.1,1.5-0.1
		c3.6-0.1,7,0.3,10.3,1.1c7.1,1.7,13,5.4,18.6,8.9c9.4,5.9,18.1,11.3,30.9,3.4c5.4-3.4,8.5-8.2,11.5-12.8c6-9.2,11.5-17.7,30.8-16.6
		c1.9,0.1,3.3,1.7,3.2,3.6s-1.7,3.3-3.6,3.2c-15.4-0.9-19.9,6-24.8,13.5c-3.4,5.2-6.9,10.7-13.6,14.8c-16.3,10.2-26.7,3.7-38-3.4
		c-2.3-1.4-4.7-2.9-7.1-4.3c2.1,2.9,3.5,6.2,4.2,9.8c0.1,0.2,0,0.1,0,0.1c0.1,0.4,0.3,1.3,0.4,2.2c1.2,8.1,1.8,33.7-41.4,40.2
		c-0.7,1-1.5,1.9-2.4,2.7c-3.2,2.8-7.6,4.6-12.4,4.6s-9.2-1.7-12.4-4.6c-0.9-0.8-1.7-1.7-2.4-2.6c-0.1,0-0.1,0-0.2,0
		c-43.4-6.5-42.8-32.2-41.6-40.3c0.1-0.9,0.3-1.7,0.4-2.2c0-0.1,0,0.1,0-0.1c0.7-3.5,2.2-6.9,4.2-9.8c-2.4,1.3-4.8,2.8-7.1,4.3
		c-11.3,7.1-21.7,13.6-38,3.4c-6.7-4.2-10.2-9.6-13.6-14.8c-4.9-7.5-9.3-14.4-24.8-13.5c-1.9,0.1-3.5-1.3-3.6-3.2
		c-0.1-1.9,1.3-3.5,3.2-3.6c19.3-1.1,24.8,7.3,30.8,16.6c3,4.6,6.1,9.4,11.5,12.8c12.8,8,21.4,2.5,30.9-3.4
		c5.6-3.5,11.4-7.2,18.6-8.9c3.2-0.8,6.6-1.2,10.3-1.1c0.5,0,1,0.1,1.5,0.1c0.3,0,0.6,0,0.8,0c6.5,0,12.4,3,16.6,7.9
		c4.1,4.8,6.6,11.3,6.6,18.4c0,4-1.4,7.6-3.7,10.3c-2.4,2.8-5.8,4.5-9.6,4.5c-3.8,0-7.1-1.7-9.6-4.5c-2.3-2.7-3.7-6.3-3.7-10.3
		c0-1.9,1.5-3.4,3.4-3.4c1.9,0,3.4,1.5,3.4,3.4c0,2.3,0.8,4.4,2.1,5.9c1.2,1.3,2.8,2.2,4.5,2.2c1.7,0,3.3-0.8,4.5-2.2
		c1.3-1.5,2.1-3.6,2.1-5.9c0-5.5-1.9-10.5-5-14c-1.4-1.6-3.1-3-4.9-3.9c-2.6-0.9-5-1.4-7.4-1.6c-3.7,0.2-7.5,1.9-10.7,4.6
		c-3.3,2.8-5.8,6.7-6.6,11c0,0.2,0,0-0.1,0.3c-0.1,0.3-0.2,0.8-0.3,1.7c-0.9,6.3-1.2,25.6,32.2,31.9c-0.1-0.5-0.1-1-0.1-1.5
		c0-4.5,2.1-8.6,5.4-11.5c3.2-2.8,7.6-4.6,12.4-4.6s9.2,1.7,12.4,4.6c3.3,2.9,5.4,7,5.4,11.5c0,0.5,0,1-0.1,1.5
		c33.1-6.4,32.8-25.6,31.9-31.9c-0.1-1-0.3-1.5-0.3-1.7c-0.1-0.3,0-0.2-0.1-0.3c-0.8-4.3-3.3-8.1-6.6-11c-3.1-2.7-6.9-4.4-10.7-4.6
		c-2.3,0.2-4.8,0.7-7.4,1.6c-1.8,0.9-3.5,2.3-4.9,3.9c-3.1,3.6-5,8.5-5,14c0,2.3,0.8,4.4,2.1,5.9c1.2,1.3,2.7,2.2,4.5,2.2
		s3.3-0.8,4.5-2.2C179.3,421.2,180.1,419.1,180.2,416.8L180.2,416.8z M152.4,454.5c3.1,0,5.9-1.1,7.9-2.9c1.9-1.7,3-3.9,3-6.4
		c0-2.5-1.2-4.8-3-6.4c-2-1.8-4.8-2.9-7.9-2.9c-3.1,0-5.9,1.1-7.9,2.9c-1.9,1.7-3,3.9-3,6.4c0,2.5,1.2,4.8,3,6.4
		C146.5,453.4,149.3,454.5,152.4,454.5z M299,357c2.6,0,4.9-1,6.6-2.7c1.7-1.7,2.7-4,2.7-6.6s-1-4.9-2.7-6.6c-1.7-1.7-4-2.7-6.6-2.7
		c-2.6,0-4.9,1-6.6,2.7c-1.7,1.7-2.7,4-2.7,6.6s1,4.9,2.7,6.6C294.1,355.9,296.4,357,299,357z M327,317.8c1.5,0,2.9-0.6,3.8-1.6
		c1-1,1.6-2.3,1.6-3.8s-0.6-2.9-1.6-3.8c-1-1-2.3-1.6-3.8-1.6s-2.9,0.6-3.8,1.6c-1,1-1.6,2.3-1.6,3.8s0.6,2.9,1.6,3.8
		C324.1,317.2,325.5,317.8,327,317.8z M-1,354.3c1.7,1.7,4,2.7,6.6,2.7s4.9-1,6.6-2.7c1.7-1.7,2.7-4,2.7-6.6s-1-4.9-2.7-6.6
		c-1.7-1.7-4-2.7-6.6-2.7s-4.9,1-6.6,2.7c-1.7,1.7-2.7,4-2.7,6.6S-2.7,352.6-1,354.3z M-26.3,316.2c1,1,2.3,1.6,3.8,1.6
		s2.9-0.6,3.8-1.6c1-1,1.6-2.3,1.6-3.8s-0.6-2.9-1.6-3.8c-1-1-2.3-1.6-3.8-1.6s-2.9,0.6-3.8,1.6c-1,1-1.6,2.3-1.6,3.8
		S-27.3,315.2-26.3,316.2z"/>
	<path id="text" d="M141.7,202.3v-68.2c1.1-7.1,5.2-11.1,12.4-12l0,0h73.1c3.2,0.8,4.3,2.9,3.4,6.2l0,0c-0.7,1.5-1.6,2.3-2.8,2.6
		l0,0c-0.8,0.3-3.1,0.4-7,0.4l0,0h-58.6c-3.2,0-5.5,0.2-6.8,0.6l0,0c-2.3,1.1-3.7,3.1-4.2,6.2l0,0v7.8c0,3.3,1.6,5,4.8,5l0,0h61.2
		c4,0,6.2,0.1,6.6,0.2l0,0c1.5,0.7,2.3,1.6,2.4,2.8l0,0c0.7,2.3,0,4.2-2.2,5.8l0,0c-0.8,0.2-3.2,0.4-7.2,0.4l0,0h-60.6
		c-3.3,0-5,1.6-5,4.8l0,0v8.8c0,3.3,1.6,5,4.8,5l0,0h61c4,0,6.2,0.1,6.6,0.2l0,0c1.5,0.7,2.3,1.7,2.6,3l0,0c0.7,2.4,0,4.3-2.2,5.6
		l0,0c-0.8,0.4-3.2,0.6-7.2,0.6l0,0h-60.6c-3.3,0-5,1.6-5,4.8l0,0v9c0,3.3,1.6,5,4.8,5l0,0h78.9c2.8,0.8,4,2.7,3.4,5.8l0,0
		c-0.2,1.5-1.2,2.5-2.8,3l0,0c-0.5,0.2-2.8,0.4-6.8,0.4l0,0h-40.5c-3.2,0-4.4,1.6-3.6,4.8l0,0c2.5,8.4,5.4,16,8.6,22.6l0,0
		c1.5,3.5,3.7,4.6,6.8,3.2l0,0c5.1-2.2,10.1-4.6,15-7.2l0,0c4-2.3,9.4-5,16.1-8.2l0,0c1.5-0.7,2.6-0.6,3.4,0.2l0,0
		c3.1,3.2,2.6,6-1.4,8.3l0,0c-7.6,4.8-17,9.7-28.1,14.8l0,0c-3.1,1.5-3.5,3.8-1.2,7l0,0c10.3,12.8,22.3,22.9,36.1,30.3l0,0
		c1.9,1.1,2.6,2.3,2.2,3.8l0,0c-0.4,2.9-2.1,4.5-5,4.6l0,0c-1.6-0.1-3.3-0.9-5-2.4l0,0c-16.3-9.4-29.2-21.3-38.5-35.7l0,0
		c-8.7-13.7-14.9-27.4-18.5-41.3l0,0c-0.8-3.2-2.8-4.8-6-4.8l0,0h-12.9c-3.3,0-5,1.6-5,4.8l0,0v61c0,3.2,1.6,4.4,4.8,3.6l0,0
		c7.8-2,15.6-3.9,23.5-5.8l0,0c2.3-0.8,3.9,0.3,5,3.4l0,0c0.9,2.3,0.1,4-2.4,5.2l0,0c-6,2.3-16.7,5.1-32.1,8.4l0,0
		c-9.8,2-16.6,3-20.7,3l0,0c-2.9-0.4-4.1-2.3-3.6-5.6l0,0c0.3-0.8,0.9-1.5,1.8-2.2l0,0c2.7-1.1,5.8-1.9,9.5-2.4l0,0
		c3.2-0.5,4.8-2.4,4.8-5.6l0,0v-63c0-3.2-1.6-4.8-4.8-4.8l0,0h-8.1c-1.9-0.5-2.9-1.8-3.2-4l0,0c-0.3-2.4,0.5-4,2.2-4.8l0,0
		c0.9-0.3,3.5-0.4,7.6-0.4C139.6,207.1,141.7,205.5,141.7,202.3L141.7,202.3z M65.3,123.8L65.3,123.8c1-0.2,3.4-0.4,7.2-0.4l0,0
		h33.1c4.7,0.1,8.5,2.2,11.4,6.2l0,0c0.9,2,1.5,4.4,1.8,7.2l0,0v27.3c-1.1,8-5.3,12.3-12.8,12.8l0,0H80.1c-2.5,0.3-4.4,1.5-5.4,3.8
		l0,0c-0.4,0.8-0.6,2.8-0.6,6l0,0v22.5c0.1,2.8,2,4.7,5.6,5.8l0,0h24.9c6.6,0.4,10.7,4.2,12.5,11.3l0,0c0.4,1.7,0.4,5,0,9.8l0,0
		l-0.4,12.8v10.8c-0.2,9.2-1,17.3-2.4,24.1l0,0c-0.4,2.5-1.4,5.2-3,8l0,0c-2.2,2.7-4.8,4.7-7.8,6l0,0c-4.3,1.7-9.3,2.3-15,1.6l0,0
		c-7-0.9-15-3.2-24.1-6.8l0,0c-2.3-1.6-2.3-4,0-7.2l0,0c1.6-1.1,3.2-1.3,4.6-0.6l0,0c11.8,3.3,20.8,5,27.1,4.8l0,0
		c5-0.4,8.1-3.2,9.5-8.5l0,0c1.2-4.5,1.9-10.2,2.2-17.1l0,0l0.6-30.3c0.5-2.8,0.1-5.1-1.4-7l0,0c-1.1-1.6-2.5-2.5-4.2-2.6l0,0H76.3
		c-6.7-1.3-10.6-5.3-11.6-11.8l0,0v-33.9c0.4-3.1,2-5.8,4.8-8.2l0,0c1.9-1.5,4-2.3,6.4-2.6l0,0H99c6,0.8,9.5-1.2,10.6-5.8l0,0v-23.1
		c-0.3-2.3-1.4-4-3.5-5.2l0,0c-1.5-0.5-3.8-0.8-7-0.8l0,0H72.5c-4,0-6.3-0.1-7-0.4l0,0c-2-0.7-3-2.1-3-4.2l0,0
		C62.1,126.4,63,124.9,65.3,123.8z"/>
</g>
</svg>
